<svg width="48" height="48" viewBox="0 0 48 48" fill="none" xmlns="http://www.w3.org/2000/svg">
<circle cx="24" cy="24" r="24" fill="#E31031"/>
<path d="M33.75 27.1094C33.625 27.7031 33.2656 28 32.6719 28H18.9375L19.2188 29.5H31.8281C32.1719 29.5 32.4531 29.6406 32.6719 29.9219C32.8906 30.2031 32.9688 30.5156 32.9062 30.8594L32.625 32.0312C33.625 32.5 34.125 33.2812 34.125 34.375C34.125 35.0938 33.8594 35.7031 33.3281 36.2031C32.8281 36.7344 32.2188 37 31.5 37C30.7812 37 30.1562 36.7344 29.625 36.2031C29.125 35.7031 28.875 35.0938 28.875 34.375C28.875 33.625 29.1406 33 29.6719 32.5H19.8281C20.3594 33 20.625 33.625 20.625 34.375C20.625 35.0938 20.3594 35.7031 19.8281 36.2031C19.3281 36.7344 18.7188 37 18 37C17.2812 37 16.6562 36.7344 16.125 36.2031C15.625 35.7031 15.375 35.0938 15.375 34.375C15.375 33.375 15.8125 32.6094 16.6875 32.0781L13.4062 16H10.125C9.8125 16 9.54688 15.8906 9.32812 15.6719C9.10938 15.4531 9 15.1875 9 14.875V14.125C9 13.8125 9.10938 13.5469 9.32812 13.3281C9.54688 13.1094 9.8125 13 10.125 13H14.9531C15.2031 13 15.4219 13.0938 15.6094 13.2812C15.8281 13.4375 15.9688 13.6406 16.0312 13.8906L16.4531 16H34.875C35.25 16 35.5469 16.1406 35.7656 16.4219C35.9844 16.7031 36.0469 17.0156 35.9531 17.3594L33.75 27.1094Z" fill="#FBFBFB"/>
</svg>
