<svg id="Шар_1" data-name="Шар 1" xmlns="http://www.w3.org/2000/svg" viewBox="0 0 28 28"><defs><style>.cls-1{fill:#fff;}</style></defs><title>icons</title><path class="cls-1" d="M24.4,1.36A1.75,1.75,0,0,0,22.29.05L19.5.7a4.78,4.78,0,0,0-3.16,2.47,7.27,7.27,0,0,0-3.5-.9A7.12,7.12,0,0,0,8,4.18a7.2,7.2,0,0,0-2.23,4.2,2.82,2.82,0,0,0-.39,5.54l.72,8a.52.52,0,0,0,.19.37.46.46,0,0,0,.38.11.52.52,0,0,0,.48-.57s-.26-3.07-.3-3.48L7,18.19l0,0a3.73,3.73,0,0,1,.38-.28,4.33,4.33,0,0,1,1.86-.73,5.16,5.16,0,0,1,2.59.2l-.69,2.23A1.77,1.77,0,0,0,11.29,21a1.56,1.56,0,0,0,1,.78,1.74,1.74,0,0,0,2.19-1.15L15,18.91a7.6,7.6,0,0,0,3.71.93l-.44,4.75a2.57,2.57,0,0,1-2.57,2.35H10a2.56,2.56,0,0,1-2.56-2.35l-.08-.83a.54.54,0,0,0-.19-.36.53.53,0,0,0-.87.46l.08.83A3.63,3.63,0,0,0,10,28h5.77a3.63,3.63,0,0,0,3.63-3.31l1-10.77A2.82,2.82,0,0,0,20,8.38a7.24,7.24,0,0,0-.86-2.49L19.37,5a1.28,1.28,0,0,1,.93-.86l2.79-.65A1.74,1.74,0,0,0,24.4,1.36Zm-17.59,7A6.12,6.12,0,0,1,16,4.18L14.64,8.37Zm11.5,0,.3-1a6.17,6.17,0,0,1,.26,1Zm.05-3.72,0,.13a5.68,5.68,0,0,0-1.09-1,3.73,3.73,0,0,1,2.51-2l2.8-.65a.69.69,0,0,1,.52.09.7.7,0,0,1,.3.43.67.67,0,0,1-.51.82l-2.8.66A2.31,2.31,0,0,0,18.36,4.65ZM15.75,8.37l1.11-3.55A4.52,4.52,0,0,1,17.93,6L17.2,8.37Zm-.33,1.06h1.44l-.46,1.45a.54.54,0,0,0,.35.67.52.52,0,0,0,.66-.35L18,9.43h1.68a1.76,1.76,0,1,1,0,3.51H14.33ZM12.88,14l-.73,2.32A5.78,5.78,0,0,0,10.84,16l-.44,0a6.42,6.42,0,0,0-2.58.42A6.23,6.23,0,0,0,6.7,17l-.28-3Zm2.56,0-2,6.3a.83.83,0,0,1-.34.45.73.73,0,0,1-1-.86L14,14ZM14.31,9.43l-1.1,3.51H6A1.76,1.76,0,0,1,6,9.43Zm5,4.57-.44,4.77a6.52,6.52,0,0,1-3.48-.9L16.55,14Z"/></svg>