<svg id="Layer_1" data-name="Layer 1" xmlns="http://www.w3.org/2000/svg" xmlns:xlink="http://www.w3.org/1999/xlink" viewBox="0 0 53 53"><defs><style>.cls-1{fill:url(#linear-gradient);}.cls-2{fill:url(#linear-gradient-2);}.cls-3{fill:url(#linear-gradient-3);}.cls-4{fill:url(#linear-gradient-4);}.cls-5{fill:url(#linear-gradient-5);}.cls-6{fill:url(#linear-gradient-6);}.cls-7{fill:url(#linear-gradient-7);}.cls-8{opacity:0.6;}.cls-9{fill:url(#linear-gradient-8);}.cls-10{fill:url(#linear-gradient-9);}.cls-11{fill:url(#linear-gradient-10);}.cls-12{fill:url(#linear-gradient-11);}.cls-13{fill:url(#linear-gradient-12);}.cls-14{fill:url(#linear-gradient-13);}.cls-15{fill:url(#linear-gradient-14);}.cls-16{fill:url(#linear-gradient-15);}.cls-17{fill:url(#linear-gradient-16);}.cls-18{fill:url(#linear-gradient-17);}.cls-19{fill:url(#linear-gradient-18);}.cls-20{fill:url(#linear-gradient-19);}.cls-21{fill:url(#linear-gradient-20);}.cls-22{fill:url(#linear-gradient-21);}.cls-23{fill:url(#linear-gradient-22);}.cls-24{fill:url(#linear-gradient-23);}.cls-25{fill:url(#linear-gradient-24);}.cls-26{fill:url(#linear-gradient-25);}.cls-27{fill:url(#linear-gradient-26);}.cls-28{fill:url(#linear-gradient-27);}.cls-29{fill:url(#linear-gradient-28);}.cls-30{fill:url(#linear-gradient-29);}.cls-31{fill:url(#linear-gradient-30);}.cls-32{fill:url(#linear-gradient-31);}.cls-33{fill:url(#linear-gradient-32);}.cls-34{fill:url(#linear-gradient-33);}.cls-35{fill:url(#linear-gradient-34);}.cls-36{fill:url(#linear-gradient-35);}.cls-37{fill:url(#linear-gradient-36);}.cls-38{fill:url(#linear-gradient-37);}.cls-39{fill:url(#linear-gradient-38);}.cls-40{fill:url(#linear-gradient-39);}.cls-41{fill:url(#linear-gradient-40);}.cls-42{fill:url(#linear-gradient-41);}.cls-43{fill:url(#linear-gradient-42);}.cls-44{fill:url(#linear-gradient-43);}.cls-45{fill:url(#linear-gradient-44);}.cls-46{fill:url(#linear-gradient-45);}.cls-47{fill:url(#linear-gradient-46);}.cls-48{fill:url(#linear-gradient-47);}.cls-49{fill:url(#linear-gradient-48);}.cls-50{fill:url(#linear-gradient-49);}.cls-51{fill:url(#linear-gradient-50);}.cls-52{fill:url(#linear-gradient-51);}.cls-53{fill:url(#linear-gradient-52);}.cls-54{fill:url(#linear-gradient-53);}.cls-55{fill:url(#linear-gradient-54);}.cls-56{fill:url(#linear-gradient-55);}.cls-57{fill:url(#linear-gradient-56);}.cls-58{fill:url(#linear-gradient-57);}.cls-59{fill:url(#linear-gradient-58);}.cls-60{fill:url(#linear-gradient-59);}.cls-61{fill:url(#linear-gradient-60);}.cls-62{fill:url(#linear-gradient-61);}.cls-63{fill:url(#linear-gradient-62);}.cls-64{fill:url(#linear-gradient-63);}.cls-65{fill:url(#linear-gradient-64);}.cls-66{fill:url(#linear-gradient-65);}.cls-67{fill:url(#linear-gradient-66);}</style><linearGradient id="linear-gradient" x1="34.76" y1="-239.21" x2="41.66" y2="-246.53" gradientTransform="matrix(1, 0, 0, -1, -1.37, -231.52)" gradientUnits="userSpaceOnUse"><stop offset="0" stop-color="#484e13"/><stop offset="0.29" stop-color="#45441f"/><stop offset="0.75" stop-color="#423838"/><stop offset="1" stop-color="#403343"/></linearGradient><linearGradient id="linear-gradient-2" x1="36.08" y1="-231.18" x2="39.73" y2="-244.79" gradientTransform="matrix(1, 0, 0, -1, -1.37, -231.52)" gradientUnits="userSpaceOnUse"><stop offset="0" stop-color="#f7f5fa"/><stop offset="1" stop-color="#ebdcf8"/></linearGradient><linearGradient id="linear-gradient-3" x1="38.12" y1="-235.35" x2="39" y2="-237.31" gradientTransform="matrix(1, 0, 0, -1, -1.37, -231.52)" gradientUnits="userSpaceOnUse"><stop offset="0" stop-color="#ec6d60"/><stop offset="0.22" stop-color="#eb6658"/><stop offset="0.6" stop-color="#e85543"/><stop offset="1" stop-color="#e4402b"/></linearGradient><linearGradient id="linear-gradient-4" x1="41.38" y1="-233.69" x2="43.6" y2="-236.33" gradientTransform="matrix(1, 0, 0, -1, -1.37, -231.52)" gradientUnits="userSpaceOnUse"><stop offset="0" stop-color="#f2aa50"/><stop offset="0.41" stop-color="#ef8a56"/><stop offset="0.78" stop-color="#ed755d"/><stop offset="1" stop-color="#ec6d60"/></linearGradient><linearGradient id="linear-gradient-5" x1="35.96" y1="-232.31" x2="37.67" y2="-235.16" gradientTransform="matrix(1, 0, 0, -1, -1.37, -231.52)" gradientUnits="userSpaceOnUse"><stop offset="0" stop-color="#c0d645"/><stop offset="0.23" stop-color="#b5ca41"/><stop offset="0.64" stop-color="#99ab35"/><stop offset="1" stop-color="#7d8929"/></linearGradient><linearGradient id="linear-gradient-6" x1="31.75" y1="-234.09" x2="33.93" y2="-236.89" gradientTransform="matrix(1, 0, 0, -1, -1.37, -231.52)" gradientUnits="userSpaceOnUse"><stop offset="0" stop-color="#f9d862"/><stop offset="0.3" stop-color="#f7cc5b"/><stop offset="0.86" stop-color="#f3ae4a"/><stop offset="1" stop-color="#f2a546"/></linearGradient><linearGradient id="linear-gradient-7" x1="40.76" y1="-64.59" x2="43.46" y2="-65.52" gradientTransform="translate(-1.37 70.86)" gradientUnits="userSpaceOnUse"><stop offset="0" stop-color="#f9ded0"/><stop offset="0.38" stop-color="#f4c5b2"/><stop offset="0.77" stop-color="#efb09a"/><stop offset="1" stop-color="#eda892"/></linearGradient><linearGradient id="linear-gradient-8" x1="2489.47" y1="221.85" x2="2490.97" y2="219.76" gradientTransform="matrix(-0.69, 0.73, 0.73, 0.69, 1588.07, -1958.85)" gradientUnits="userSpaceOnUse"><stop offset="0" stop-color="#ebdcf8" stop-opacity="0"/><stop offset="0.03" stop-color="#e5d6f4" stop-opacity="0.03"/><stop offset="0.22" stop-color="#c1b5da" stop-opacity="0.22"/><stop offset="0.41" stop-color="#a69cc6" stop-opacity="0.41"/><stop offset="0.61" stop-color="#9289b8" stop-opacity="0.61"/><stop offset="0.8" stop-color="#867fb0" stop-opacity="0.8"/><stop offset="1" stop-color="#827bad"/></linearGradient><linearGradient id="linear-gradient-9" x1="2490.5" y1="223.17" x2="2491.69" y2="221.52" xlink:href="#linear-gradient-8"/><linearGradient id="linear-gradient-10" x1="2488.76" y1="223.21" x2="2489.48" y2="222.22" xlink:href="#linear-gradient-8"/><linearGradient id="linear-gradient-11" x1="2993.23" y1="1480.94" x2="2994.74" y2="1478.85" gradientTransform="matrix(-1, -0.06, -0.06, 1, 3130.76, -1313.29)" xlink:href="#linear-gradient-8"/><linearGradient id="linear-gradient-12" x1="2994.26" y1="1482.26" x2="2995.45" y2="1480.61" gradientTransform="matrix(-1, -0.06, -0.06, 1, 3130.76, -1313.29)" xlink:href="#linear-gradient-8"/><linearGradient id="linear-gradient-13" x1="2992.53" y1="1482.3" x2="2993.24" y2="1481.31" gradientTransform="matrix(-1, -0.06, -0.06, 1, 3130.76, -1313.29)" xlink:href="#linear-gradient-8"/><linearGradient id="linear-gradient-14" x1="2389.7" y1="1020.63" x2="2390.82" y2="1019.09" gradientTransform="matrix(-1, -0.03, -0.03, 1, 2457.48, -947.47)" xlink:href="#linear-gradient-8"/><linearGradient id="linear-gradient-15" x1="2390.47" y1="1021.61" x2="2391.34" y2="1020.39" gradientTransform="matrix(-1, -0.03, -0.03, 1, 2457.48, -947.47)" xlink:href="#linear-gradient-8"/><linearGradient id="linear-gradient-16" x1="2389.18" y1="1021.64" x2="2389.71" y2="1020.91" gradientTransform="matrix(-1, -0.03, -0.03, 1, 2457.48, -947.47)" xlink:href="#linear-gradient-8"/><linearGradient id="linear-gradient-17" x1="36.59" y1="-257.74" x2="24.51" y2="-245.67" gradientTransform="matrix(1, 0, 0, -1, -1.37, -231.52)" gradientUnits="userSpaceOnUse"><stop offset="0" stop-color="#403343" stop-opacity="0"/><stop offset="0.48" stop-color="#342736" stop-opacity="0.48"/><stop offset="1" stop-color="#2b1f2d"/></linearGradient><linearGradient id="linear-gradient-18" x1="13.81" y1="-250.02" x2="20.71" y2="-257.33" xlink:href="#linear-gradient"/><linearGradient id="linear-gradient-19" x1="15.13" y1="-241.99" x2="18.78" y2="-255.6" xlink:href="#linear-gradient-2"/><linearGradient id="linear-gradient-20" x1="15.91" y1="-247.1" x2="16.48" y2="-249.02" xlink:href="#linear-gradient-3"/><linearGradient id="linear-gradient-21" x1="11.5" y1="-245.08" x2="13.1" y2="-248.08" xlink:href="#linear-gradient-4"/><linearGradient id="linear-gradient-22" x1="17.29" y1="-244.2" x2="18.06" y2="-245.86" xlink:href="#linear-gradient-5"/><linearGradient id="linear-gradient-23" x1="20.62" y1="-244.87" x2="22.38" y2="-248.44" xlink:href="#linear-gradient-6"/><linearGradient id="linear-gradient-24" x1="10.91" y1="-246.47" x2="11.84" y2="-248.17" gradientTransform="matrix(1, 0, 0, -1, -1.37, -231.52)" xlink:href="#linear-gradient-7"/><linearGradient id="linear-gradient-25" x1="2511.74" y1="214.14" x2="2513.25" y2="212.05" xlink:href="#linear-gradient-8"/><linearGradient id="linear-gradient-26" x1="2512.78" y1="215.46" x2="2513.96" y2="213.81" xlink:href="#linear-gradient-8"/><linearGradient id="linear-gradient-27" x1="2511.04" y1="215.5" x2="2511.76" y2="214.51" xlink:href="#linear-gradient-8"/><linearGradient id="linear-gradient-28" x1="3013.54" y1="1492.88" x2="3015.05" y2="1490.79" gradientTransform="matrix(-1, -0.06, -0.06, 1, 3130.76, -1313.29)" xlink:href="#linear-gradient-8"/><linearGradient id="linear-gradient-29" x1="3014.57" y1="1494.19" x2="3015.76" y2="1492.55" gradientTransform="matrix(-1, -0.06, -0.06, 1, 3130.76, -1313.29)" xlink:href="#linear-gradient-8"/><linearGradient id="linear-gradient-30" x1="3012.84" y1="1494.24" x2="3013.56" y2="1493.25" gradientTransform="matrix(-1, -0.06, -0.06, 1, 3130.76, -1313.29)" xlink:href="#linear-gradient-8"/><linearGradient id="linear-gradient-31" x1="2410.29" y1="1032.08" x2="2411.41" y2="1030.54" gradientTransform="matrix(-1, -0.03, -0.03, 1, 2457.48, -947.47)" xlink:href="#linear-gradient-8"/><linearGradient id="linear-gradient-32" x1="2411.06" y1="1033.06" x2="2411.93" y2="1031.84" gradientTransform="matrix(-1, -0.03, -0.03, 1, 2457.48, -947.47)" xlink:href="#linear-gradient-8"/><linearGradient id="linear-gradient-33" x1="2409.77" y1="1033.09" x2="2410.3" y2="1032.36" gradientTransform="matrix(-1, -0.03, -0.03, 1, 2457.48, -947.47)" xlink:href="#linear-gradient-8"/><linearGradient id="linear-gradient-34" x1="36.65" y1="-257" x2="43.55" y2="-264.31" xlink:href="#linear-gradient"/><linearGradient id="linear-gradient-35" x1="37.97" y1="-248.97" x2="41.61" y2="-262.58" xlink:href="#linear-gradient-2"/><linearGradient id="linear-gradient-36" x1="1388.56" y1="-250.78" x2="1388.72" y2="-252.6" gradientTransform="translate(1431.63 -231.52) rotate(180)" xlink:href="#linear-gradient-3"/><linearGradient id="linear-gradient-37" x1="33.62" y1="-252.13" x2="35.02" y2="-255.34" xlink:href="#linear-gradient-4"/><linearGradient id="linear-gradient-38" x1="39.41" y1="-253.11" x2="40.5" y2="-256.42" xlink:href="#linear-gradient-5"/><linearGradient id="linear-gradient-39" x1="43.72" y1="-252.62" x2="45.95" y2="-255.83" xlink:href="#linear-gradient-6"/><linearGradient id="linear-gradient-40" x1="42.65" y1="-251.45" x2="45.35" y2="-252.39" gradientTransform="matrix(1, 0, 0, -1, -1.37, -231.52)" xlink:href="#linear-gradient-7"/><linearGradient id="linear-gradient-41" x1="2501.04" y1="235.48" x2="2502.55" y2="233.4" xlink:href="#linear-gradient-8"/><linearGradient id="linear-gradient-42" x1="2502.07" y1="236.8" x2="2503.26" y2="235.15" xlink:href="#linear-gradient-8"/><linearGradient id="linear-gradient-43" x1="2500.34" y1="236.85" x2="2501.05" y2="235.85" xlink:href="#linear-gradient-8"/><linearGradient id="linear-gradient-44" x1="2990.36" y1="1498.59" x2="2991.87" y2="1496.5" gradientTransform="matrix(-1, -0.06, -0.06, 1, 3130.76, -1313.29)" xlink:href="#linear-gradient-8"/><linearGradient id="linear-gradient-45" x1="2991.4" y1="1499.91" x2="2992.58" y2="1498.26" gradientTransform="matrix(-1, -0.06, -0.06, 1, 3130.76, -1313.29)" xlink:href="#linear-gradient-8"/><linearGradient id="linear-gradient-46" x1="2989.66" y1="1499.96" x2="2990.38" y2="1498.96" gradientTransform="matrix(-1, -0.06, -0.06, 1, 3130.76, -1313.29)" xlink:href="#linear-gradient-8"/><linearGradient id="linear-gradient-47" x1="2387.26" y1="1038.35" x2="2388.37" y2="1036.81" gradientTransform="matrix(-1, -0.03, -0.03, 1, 2457.48, -947.47)" xlink:href="#linear-gradient-8"/><linearGradient id="linear-gradient-48" x1="2388.02" y1="1039.32" x2="2388.9" y2="1038.11" gradientTransform="matrix(-1, -0.03, -0.03, 1, 2457.48, -947.47)" xlink:href="#linear-gradient-8"/><linearGradient id="linear-gradient-49" x1="2386.74" y1="1039.36" x2="2387.27" y2="1038.62" gradientTransform="matrix(-1, -0.03, -0.03, 1, 2457.48, -947.47)" xlink:href="#linear-gradient-8"/><linearGradient id="linear-gradient-50" x1="40.79" y1="-277.08" x2="30.78" y2="-267.08" xlink:href="#linear-gradient-17"/><linearGradient id="linear-gradient-51" x1="16.92" y1="-270.39" x2="23.82" y2="-277.7" xlink:href="#linear-gradient"/><linearGradient id="linear-gradient-52" x1="18.24" y1="-262.36" x2="21.88" y2="-275.97" xlink:href="#linear-gradient-2"/><linearGradient id="linear-gradient-53" x1="19.77" y1="-264.17" x2="19.93" y2="-265.98" xlink:href="#linear-gradient-3"/><linearGradient id="linear-gradient-54" x1="24.04" y1="-265.84" x2="24.63" y2="-268.47" xlink:href="#linear-gradient-4"/><linearGradient id="linear-gradient-55" x1="17.89" y1="-266.91" x2="19.71" y2="-270.39" xlink:href="#linear-gradient-5"/><linearGradient id="linear-gradient-56" x1="14.61" y1="-266.21" x2="16.39" y2="-269.04" xlink:href="#linear-gradient-6"/><linearGradient id="linear-gradient-57" x1="22.91" y1="-264.84" x2="25.62" y2="-265.78" gradientTransform="matrix(1, 0, 0, -1, -1.37, -231.52)" xlink:href="#linear-gradient-7"/><linearGradient id="linear-gradient-58" x1="2524.35" y1="230.43" x2="2525.85" y2="228.35" xlink:href="#linear-gradient-8"/><linearGradient id="linear-gradient-59" x1="2525.38" y1="231.75" x2="2526.57" y2="230.1" xlink:href="#linear-gradient-8"/><linearGradient id="linear-gradient-60" x1="2523.64" y1="231.8" x2="2524.36" y2="230.8" xlink:href="#linear-gradient-8"/><linearGradient id="linear-gradient-61" x1="3009.32" y1="1513.04" x2="3010.82" y2="1510.95" gradientTransform="matrix(-1, -0.06, -0.06, 1, 3130.76, -1313.29)" xlink:href="#linear-gradient-8"/><linearGradient id="linear-gradient-62" x1="3010.35" y1="1514.36" x2="3011.54" y2="1512.71" gradientTransform="matrix(-1, -0.06, -0.06, 1, 3130.76, -1313.29)" xlink:href="#linear-gradient-8"/><linearGradient id="linear-gradient-63" x1="3008.61" y1="1514.41" x2="3009.33" y2="1513.41" gradientTransform="matrix(-1, -0.06, -0.06, 1, 3130.76, -1313.29)" xlink:href="#linear-gradient-8"/><linearGradient id="linear-gradient-64" x1="2406.55" y1="1052.34" x2="2407.67" y2="1050.8" gradientTransform="matrix(-1, -0.03, -0.03, 1, 2457.48, -947.47)" xlink:href="#linear-gradient-8"/><linearGradient id="linear-gradient-65" x1="2407.32" y1="1053.32" x2="2408.2" y2="1052.1" gradientTransform="matrix(-1, -0.03, -0.03, 1, 2457.48, -947.47)" xlink:href="#linear-gradient-8"/><linearGradient id="linear-gradient-66" x1="2406.03" y1="1053.35" x2="2406.56" y2="1052.62" gradientTransform="matrix(-1, -0.03, -0.03, 1, 2457.48, -947.47)" xlink:href="#linear-gradient-8"/></defs><title>Суші штат_іконки_деталізовані</title><path class="cls-1" d="M51.1,5.09H21V16.61c0,6.79,30.07,6.79,30.07,0V5.09Z"/><path class="cls-2" d="M51.1,5.09c0,6.78-30.07,6.78-30.07,0S51.1-1.7,51.1,5.09Z"/><path class="cls-3" d="M44.81,4.54c0-1.1-2.05-1.83-4.75-2.17-5.18-.67-11.14.06-11.14,2.17,0,1.19.78,1.93,3.78,2.25,5.14.53,12.11-.22,12.11-2.25Z"/><path class="cls-4" d="M40.85,6.6c-2.1-.51-3.64-2-3.64-3.82a3.2,3.2,0,0,1,.07-.63c3.93.13,7.53.93,7.53,2.39,0,1-1.66,1.68-4,2.06Z"/><path class="cls-5" d="M40.11,2.37c-.38,1.36-2.44,2.41-4.93,2.41-2.32,0-4.26-.9-4.83-2.12a31.58,31.58,0,0,1,9.76-.29Z"/><path class="cls-6" d="M27.32,4.54c0-1.15,2.25-1.89,5.13-2.22A2.27,2.27,0,0,1,35,4.4v.13a2.2,2.2,0,0,1-.1.68,2.27,2.27,0,0,1-2.43,1.55c-2.89-.32-5.14-1.06-5.14-2.22Z"/><path class="cls-7" d="M38.65,5.7a2.08,2.08,0,0,1,2.79-.94l2.18,1.08a14.29,14.29,0,0,1-4.2,1A.76.76,0,0,1,38.65,5.7Z"/><g class="cls-8"><g class="cls-8"><circle class="cls-9" cx="24.08" cy="4.17" r="0.55"/><circle class="cls-10" cx="24.5" cy="5.85" r="0.43"/><circle class="cls-11" cx="25.99" cy="4.66" r="0.26"/><circle class="cls-12" cx="46.56" cy="5.97" r="0.55"/><circle class="cls-13" cx="45.54" cy="7.38" r="0.43"/><circle class="cls-14" cx="47.42" cy="7.74" r="0.26"/><circle class="cls-15" cx="26.27" cy="2.24" r="0.4"/><circle class="cls-16" cx="25.54" cy="3.3" r="0.32"/><circle class="cls-17" cx="26.94" cy="3.53" r="0.19"/></g></g><path class="cls-18" d="M39.2,24l-9.77-9.6c-1.33-1.52-4.55-2.53-8.4-3v7.73c0,3.8,9.76,5.43,18.17,4.9Z"/><path class="cls-19" d="M30.07,15.94H0V27.47c0,6.78,30.07,6.78,30.07,0Z"/><path class="cls-20" d="M30.07,15.94c0,6.78-30.07,6.78-30.07,0S30.07,9.16,30.07,15.94Z"/><path class="cls-21" d="M6.29,15.39c0-1.1,2.05-1.82,4.74-2.17,5.18-.67,11.19.06,11.19,2.17,0,1.17-.73,1.91-3.66,2.23C13.4,18.19,6.29,17.44,6.29,15.39Z"/><path class="cls-22" d="M10.25,17.45c2.11-.5,3.64-2,3.64-3.82a3.21,3.21,0,0,0-.06-.63c-3.94.14-7.54.93-7.54,2.39C6.29,16.38,8,17.07,10.25,17.45Z"/><path class="cls-23" d="M11,13.22c.37,1.37,2.44,2.41,4.93,2.41,2.31,0,4.25-.9,4.82-2.12A31.82,31.82,0,0,0,11,13.22Z"/><path class="cls-24" d="M23.78,15.39c0-1.15-2.24-1.89-5.13-2.22a2.27,2.27,0,0,0-2.53,2.08.57.57,0,0,0,0,.13,2.54,2.54,0,0,0,.1.68,2.26,2.26,0,0,0,2.43,1.55C21.53,17.29,23.78,16.55,23.78,15.39Z"/><path class="cls-25" d="M12.45,16.55a2.07,2.07,0,0,0-2.78-.94L7.49,16.69a14.14,14.14,0,0,0,4.2.95.76.76,0,0,0,.76-1.09Z"/><g class="cls-8"><g class="cls-8"><circle class="cls-26" cx="3.05" cy="15.02" r="0.55"/><circle class="cls-27" cx="3.47" cy="16.7" r="0.43"/><circle class="cls-28" cx="4.96" cy="15.51" r="0.26"/><circle class="cls-29" cx="25.53" cy="16.82" r="0.55"/><circle class="cls-30" cx="24.51" cy="18.23" r="0.43"/><circle class="cls-31" cx="26.39" cy="18.59" r="0.26"/><circle class="cls-32" cx="5.24" cy="13.09" r="0.4"/><circle class="cls-33" cx="4.51" cy="14.15" r="0.32"/><circle class="cls-34" cx="5.91" cy="14.38" r="0.19"/></g></g><path class="cls-35" d="M53,22.94H22.93V34.47c0,6.78,30.07,6.78,30.07,0Z"/><path class="cls-36" d="M53,22.94c0,6.79-30.07,6.79-30.07,0S53,16.16,53,22.94Z"/><path class="cls-37" d="M29.22,22.4c0,1.1,2.05,1.82,4.75,2.17,5.18.67,11.69-.06,11.69-2.17,0-1.2-1.38-1.95-4.43-2.26-5.13-.51-12,.24-12,2.26Z"/><path class="cls-38" d="M33.18,20.34c2.1.5,3.64,2,3.64,3.82a3.38,3.38,0,0,1-.07.63c-3.93-.14-7.53-.93-7.53-2.39,0-1,1.66-1.68,4-2.06Z"/><path class="cls-39" d="M33.92,24.56c.38-1.36,2.44-2.4,4.93-2.4,2.31,0,4.26.9,4.83,2.12a31.59,31.59,0,0,1-9.76.28Z"/><path class="cls-40" d="M46.71,22.4c0,1.15-2.25,1.89-5.13,2.22A2.27,2.27,0,0,1,39,22.54V22.4a2.18,2.18,0,0,1,.1-.67,2.26,2.26,0,0,1,2.43-1.55c2.89.32,5.14,1.06,5.14,2.22Z"/><path class="cls-41" d="M40.55,21.24a2.07,2.07,0,0,0,2.78.94l2.18-1.08a13.83,13.83,0,0,0-4.2-1,.76.76,0,0,0-.76,1.09Z"/><g class="cls-8"><g class="cls-8"><circle class="cls-42" cx="25.98" cy="22.02" r="0.55"/><circle class="cls-43" cx="26.4" cy="23.71" r="0.43"/><circle class="cls-44" cx="27.89" cy="22.51" r="0.26"/><circle class="cls-45" cx="48.45" cy="23.82" r="0.55"/><circle class="cls-46" cx="47.44" cy="25.23" r="0.43"/><circle class="cls-47" cx="49.32" cy="25.6" r="0.26"/><circle class="cls-48" cx="28.16" cy="20.09" r="0.4"/><circle class="cls-49" cx="27.44" cy="21.15" r="0.32"/><circle class="cls-50" cx="28.83" cy="21.39" r="0.19"/></g></g><path class="cls-51" d="M22.93,32v3.4c0,2.83,7.93,4.21,15.65,4.13l-6.13-5c-1.53-1.34-5.24-2.19-9.52-2.55Z"/><path class="cls-52" d="M33.19,36.39H3.12V47.91c0,6.79,30.07,6.79,30.07,0Z"/><path class="cls-53" d="M33.19,36.39c0,6.78-30.07,6.78-30.07,0S33.19,29.6,33.19,36.39Z"/><path class="cls-54" d="M26.9,35.84c0,1.1-2,1.82-4.74,2.17-5.2.33-11.71-.06-11.71-2.17,0-1.18,1.32-1.93,4.31-2.24a33.89,33.89,0,0,1,6.68,0c.74.08,1.33.35,2,.47a11.38,11.38,0,0,1,2.3.5c.75.34,1.19.78,1.19,1.29Z"/><path class="cls-55" d="M22.94,33.78c-2.11.51-3.64,2-3.64,3.82a2.59,2.59,0,0,0,.07.63c3.93-.13,7.53-.93,7.53-2.39,0-1-1.66-1.68-4-2.06Z"/><path class="cls-56" d="M22.19,38c-.37-1.36-2.44-2.41-4.93-2.41-2.31,0-4.25.9-4.82,2.12A31.82,31.82,0,0,0,22.19,38Z"/><path class="cls-57" d="M9.41,35.84c0,1.15,2.24,1.89,5.13,2.22A2.27,2.27,0,0,0,17.07,36a.57.57,0,0,0,0-.13,2.54,2.54,0,0,0-.1-.68,2.26,2.26,0,0,0-2.43-1.55C11.66,33.94,9.41,34.68,9.41,35.84Z"/><path class="cls-58" d="M20.74,34.68a2.07,2.07,0,0,0,2.78.94l2.18-1.08a14.14,14.14,0,0,0-4.2-.95A.76.76,0,0,0,20.74,34.68Z"/><g class="cls-8"><g class="cls-8"><circle class="cls-59" cx="6.17" cy="35.46" r="0.55"/><circle class="cls-60" cx="6.59" cy="37.15" r="0.43"/><circle class="cls-61" cx="8.08" cy="35.96" r="0.26"/><circle class="cls-62" cx="28.65" cy="37.27" r="0.55"/><circle class="cls-63" cx="27.63" cy="38.68" r="0.43"/><circle class="cls-64" cx="29.51" cy="39.04" r="0.26"/><circle class="cls-65" cx="8.36" cy="33.53" r="0.4"/><circle class="cls-66" cx="7.63" cy="34.59" r="0.32"/><circle class="cls-67" cx="9.03" cy="34.83" r="0.19"/></g></g></svg>