<svg id="Layer_1" data-name="Layer 1" xmlns="http://www.w3.org/2000/svg" xmlns:xlink="http://www.w3.org/1999/xlink" viewBox="0 0 53 53"><defs><style>.cls-1{fill:url(#linear-gradient);}.cls-2{fill:url(#linear-gradient-2);}.cls-3{fill:url(#linear-gradient-3);}.cls-4{fill:url(#linear-gradient-4);}.cls-5{fill:url(#linear-gradient-5);}.cls-6{fill:url(#linear-gradient-6);}.cls-7{fill:url(#linear-gradient-7);}.cls-8{fill:url(#linear-gradient-8);}.cls-9{fill:url(#linear-gradient-9);}.cls-10{fill:url(#linear-gradient-10);}.cls-11{fill:url(#linear-gradient-11);}.cls-12{fill:url(#linear-gradient-12);}.cls-13{fill:url(#linear-gradient-13);}.cls-14{fill:url(#linear-gradient-14);}.cls-15{fill:url(#linear-gradient-15);}.cls-16{fill:url(#linear-gradient-16);}.cls-17{fill:url(#linear-gradient-17);}.cls-18{fill:#fbe9aa;}.cls-19{fill:url(#linear-gradient-18);}.cls-20{fill:url(#linear-gradient-19);}.cls-21{fill:url(#linear-gradient-20);}.cls-22{fill:url(#linear-gradient-21);}.cls-23{fill:url(#linear-gradient-22);}.cls-24{fill:url(#linear-gradient-23);}.cls-25{fill:url(#linear-gradient-24);}.cls-26{fill:url(#linear-gradient-25);}.cls-27{fill:url(#linear-gradient-26);}.cls-28{fill:url(#linear-gradient-27);}.cls-29{fill:url(#linear-gradient-28);}.cls-30{fill:url(#linear-gradient-29);}.cls-31{fill:url(#linear-gradient-30);}</style><linearGradient id="linear-gradient" x1="26.45" y1="-278.48" x2="26.66" y2="-281.9" gradientTransform="matrix(1, 0, 0, -1, 0.05, -231.52)" gradientUnits="userSpaceOnUse"><stop offset="0" stop-color="#f7f5fa"/><stop offset="1" stop-color="#ebdcf8"/></linearGradient><linearGradient id="linear-gradient-2" x1="24.62" y1="-266.97" x2="28.68" y2="-282.33" xlink:href="#linear-gradient"/><linearGradient id="linear-gradient-3" x1="27.49" y1="-281.94" x2="25.52" y2="-266.21" xlink:href="#linear-gradient"/><linearGradient id="linear-gradient-4" x1="35.74" y1="-282.45" x2="12.89" y2="-226.95" gradientTransform="matrix(1, 0, 0, -1, 0.05, -231.52)" gradientUnits="userSpaceOnUse"><stop offset="0" stop-color="#ebdcf8" stop-opacity="0"/><stop offset="0.03" stop-color="#e5d6f4" stop-opacity="0.03"/><stop offset="0.22" stop-color="#c1b5da" stop-opacity="0.22"/><stop offset="0.41" stop-color="#a69cc6" stop-opacity="0.41"/><stop offset="0.61" stop-color="#9289b8" stop-opacity="0.61"/><stop offset="0.8" stop-color="#867fb0" stop-opacity="0.8"/><stop offset="1" stop-color="#827bad"/></linearGradient><linearGradient id="linear-gradient-5" x1="26.46" y1="-273.88" x2="26.65" y2="-277.08" xlink:href="#linear-gradient"/><linearGradient id="linear-gradient-6" x1="-38.03" y1="-259.47" x2="-37.83" y2="-262.86" gradientTransform="translate(10.28 -231.52) rotate(180)" xlink:href="#linear-gradient"/><linearGradient id="linear-gradient-7" x1="49.06" y1="-260.02" x2="43.26" y2="-259.59" xlink:href="#linear-gradient-4"/><linearGradient id="linear-gradient-8" x1="-38.39" y1="-258.23" x2="-37.56" y2="-262.17" gradientTransform="translate(10.28 -231.52) rotate(180)" xlink:href="#linear-gradient-4"/><linearGradient id="linear-gradient-9" x1="23.11" y1="-249.43" x2="34.55" y2="-276.11" xlink:href="#linear-gradient"/><linearGradient id="linear-gradient-10" x1="30.3" y1="-269.23" x2="26.65" y2="-255.6" xlink:href="#linear-gradient"/><linearGradient id="linear-gradient-11" x1="26.35" y1="-258.05" x2="26.35" y2="-230.46" xlink:href="#linear-gradient-4"/><linearGradient id="linear-gradient-12" x1="26.35" y1="-252.52" x2="26.35" y2="-261.59" gradientTransform="matrix(1, 0, 0, -1, 0.05, -231.52)" gradientUnits="userSpaceOnUse"><stop offset="0" stop-color="#f9d862"/><stop offset="0.3" stop-color="#f7cc5b"/><stop offset="0.86" stop-color="#f3ae4a"/><stop offset="1" stop-color="#f2a546"/></linearGradient><linearGradient id="linear-gradient-13" x1="26.69" y1="-256.83" x2="38.97" y2="-224.26" gradientTransform="matrix(1, 0, 0, -1, 0.05, -231.52)" gradientUnits="userSpaceOnUse"><stop offset="0" stop-color="#e4402b" stop-opacity="0"/><stop offset="1" stop-color="#b03634"/></linearGradient><linearGradient id="linear-gradient-14" x1="26.26" y1="-257.52" x2="24.49" y2="-234.88" xlink:href="#linear-gradient-13"/><linearGradient id="linear-gradient-15" x1="17.44" y1="-256.7" x2="18.04" y2="-258.48" gradientTransform="matrix(1, 0, 0, -1, 0.05, -231.52)" gradientUnits="userSpaceOnUse"><stop offset="0" stop-color="#f9ded0"/><stop offset="0.38" stop-color="#f4c5b2"/><stop offset="0.77" stop-color="#efb09a"/><stop offset="1" stop-color="#eda892"/></linearGradient><linearGradient id="linear-gradient-16" x1="38.64" y1="-255.07" x2="39.24" y2="-256.86" xlink:href="#linear-gradient-15"/><linearGradient id="linear-gradient-17" x1="24.56" y1="-259.25" x2="24.99" y2="-260.53" xlink:href="#linear-gradient-15"/><linearGradient id="linear-gradient-18" x1="22.39" y1="-254.38" x2="23.41" y2="-256.36" gradientTransform="matrix(1, 0, 0, -1, 0.05, -231.52)" gradientUnits="userSpaceOnUse"><stop offset="0" stop-color="#ec6d60"/><stop offset="0.22" stop-color="#eb6658"/><stop offset="0.6" stop-color="#e85543"/><stop offset="1" stop-color="#e4402b"/></linearGradient><linearGradient id="linear-gradient-19" x1="1944.83" y1="322.46" x2="1945.47" y2="320.99" gradientTransform="matrix(-0.8, -0.13, -0.3, -0.75, 1677.69, 528.19)" gradientUnits="userSpaceOnUse"><stop offset="0" stop-color="#c0d645"/><stop offset="0.23" stop-color="#b5ca41"/><stop offset="0.64" stop-color="#99ab35"/><stop offset="1" stop-color="#7d8929"/></linearGradient><linearGradient id="linear-gradient-20" x1="2387.77" y1="-128.38" x2="2388.99" y2="-129.14" gradientTransform="matrix(-1, 0.11, -0.11, -1, 2393.49, -364.01)" xlink:href="#linear-gradient-19"/><linearGradient id="linear-gradient-21" x1="26.36" y1="-254.61" x2="27.16" y2="-257.07" gradientTransform="matrix(1, 0, 0, -1, 0.05, -231.52)" gradientUnits="userSpaceOnUse"><stop offset="0" stop-color="#9e7d58"/><stop offset="0.13" stop-color="#9a6e50"/><stop offset="0.52" stop-color="#8e483b"/><stop offset="0.82" stop-color="#88322e"/><stop offset="1" stop-color="#862b2a"/></linearGradient><linearGradient id="linear-gradient-22" x1="25.7" y1="-253.82" x2="26.99" y2="-257.81" xlink:href="#linear-gradient-21"/><linearGradient id="linear-gradient-23" x1="32.77" y1="-256.55" x2="33.8" y2="-258.52" xlink:href="#linear-gradient-18"/><linearGradient id="linear-gradient-24" x1="26.35" y1="-270.37" x2="26.35" y2="-282.49" xlink:href="#linear-gradient-4"/><linearGradient id="linear-gradient-25" x1="12.87" y1="-267.73" x2="-10.16" y2="-257.37" xlink:href="#linear-gradient-4"/><linearGradient id="linear-gradient-26" x1="4.47" y1="-259.47" x2="4.68" y2="-262.86" xlink:href="#linear-gradient"/><linearGradient id="linear-gradient-27" x1="4.12" y1="-258.23" x2="4.94" y2="-262.17" xlink:href="#linear-gradient-4"/><linearGradient id="linear-gradient-28" x1="31.7" y1="-246.26" x2="40.74" y2="-250.56" gradientTransform="matrix(1, 0, 0, -1, 0.05, -231.52)" gradientUnits="userSpaceOnUse"><stop offset="0" stop-color="#d97869" stop-opacity="0"/><stop offset="1" stop-color="#f3dec1"/></linearGradient><linearGradient id="linear-gradient-29" x1="25.04" y1="-238.75" x2="31.45" y2="-240.26" gradientTransform="matrix(1, 0, 0, -1, 0.05, -231.52)" gradientUnits="userSpaceOnUse"><stop offset="0" stop-color="#d97869" stop-opacity="0"/><stop offset="0.16" stop-color="#da7e6e" stop-opacity="0.16"/><stop offset="0.38" stop-color="#de8e7d" stop-opacity="0.38"/><stop offset="0.64" stop-color="#e5ab94" stop-opacity="0.63"/><stop offset="0.92" stop-color="#f0d2b6" stop-opacity="0.92"/><stop offset="1" stop-color="#f3dec1"/></linearGradient><linearGradient id="linear-gradient-30" x1="15.95" y1="-246.08" x2="20.85" y2="-247.99" xlink:href="#linear-gradient-28"/></defs><title>Суші штат_іконки_деталізовані</title><path class="cls-1" d="M26.5,48.15A80.26,80.26,0,0,1,9.17,46.43,5.6,5.6,0,0,0,12.7,50a54.3,54.3,0,0,0,13.8,1.58A54.3,54.3,0,0,0,40.3,50a5.6,5.6,0,0,0,3.53-3.57A80.26,80.26,0,0,1,26.5,48.15Z"/><path class="cls-2" d="M53,43.08c0,9.08-53,9.08-53,0S53,34,53,43.08Z"/><path class="cls-3" d="M49.37,42.41c0,6.48-45.74,6.48-45.74,0S49.37,35.93,49.37,42.41Z"/><path class="cls-4" d="M53,43.08c0-6.7-28.75-8.46-43.9-5.29a24.08,24.08,0,0,0,3,3.79L22,51.43c1.46.1,3,.15,4.55.15A54.3,54.3,0,0,0,40.3,50a4.65,4.65,0,0,0,2.17-1.36c6.19-1.11,10.53-3,10.53-5.56Z"/><path class="cls-5" d="M26.5,43.38a39.76,39.76,0,0,1-12.08-1.72c.48,1.79,1.37,3.13,2.46,3.57A27.32,27.32,0,0,0,26.5,46.8a27.32,27.32,0,0,0,9.62-1.57c1.09-.44,2-1.78,2.46-3.57A39.76,39.76,0,0,1,26.5,43.38Z"/><path class="cls-6" d="M44.1,31a1.41,1.41,0,0,0,1.4,1.41h4.16a3,3,0,0,0,3-3,3,3,0,0,0-3-3h-2c0,.31-.05.61-.08.92-.09.78-.22,1.55-.38,2.31H45.5A1.4,1.4,0,0,0,44.1,31Z"/><path class="cls-7" d="M44.1,31a1.41,1.41,0,0,0,1.4,1.41h4.16a3,3,0,0,0,3-3,3,3,0,0,0-3-3h-2c0,.31-.05.61-.08.92-.09.78-.22,1.55-.38,2.31H45.5A1.4,1.4,0,0,0,44.1,31Z"/><path class="cls-8" d="M47.24,29.61h1.45A1.27,1.27,0,0,0,50,28.34a1,1,0,0,0-.31-.73,1,1,0,0,0-.74-.31H47.62c-.09.78-.22,1.55-.38,2.31Z"/><path class="cls-9" d="M16,43.79a48,48,0,0,0,20.94,0,7.88,7.88,0,0,0,3.94-2.21,24.5,24.5,0,0,0,6.86-17V24c0-9.44-42.54-9.44-42.54,0v.59a24.5,24.5,0,0,0,6.86,17A7.88,7.88,0,0,0,16,43.79Z"/><path class="cls-10" d="M47.77,24c0,9.43-42.54,9.43-42.54,0S47.77,14.54,47.77,24Z"/><path class="cls-11" d="M45.6,23.47c0,7.47-38.2,7.47-38.2,0S45.6,16,45.6,23.47Z"/><path class="cls-12" d="M8.47,25.48c5.5,4.79,30.56,4.79,36.06,0C39,20.7,14,20.7,8.47,25.48Z"/><path class="cls-13" d="M39.16,27.79a1.56,1.56,0,0,0,.11-.57c0-5-25.54-5-25.54,0a1.6,1.6,0,0,0,.11.57A63.13,63.13,0,0,0,39.16,27.79Z"/><path class="cls-14" d="M15.85,28.21c1-4.67,20.33-4.67,21.3,0A66.18,66.18,0,0,1,15.85,28.21Z"/><path class="cls-15" d="M19.14,26.61c0,.59-2.92.59-2.92,0s.66-1.06,1.46-1.06,1.46.47,1.46,1.06Z"/><path class="cls-16" d="M40.42,25c0,.58-2.91.58-2.91,0s.65-1.06,1.46-1.06,1.45.47,1.45,1.06Z"/><path class="cls-17" d="M23.42,29c.91,0,1.83.06,2.76.06a1.5,1.5,0,0,0-1.4-.75A1.52,1.52,0,0,0,23.42,29Z"/><path class="cls-18" d="M37.31,26.86a.32.32,0,0,0-.45.15.34.34,0,0,0,.15.46.35.35,0,0,0,.46-.16A.34.34,0,0,0,37.31,26.86Z"/><path class="cls-18" d="M39.64,26.3a.26.26,0,0,0-.36.12.27.27,0,0,0,.12.36.27.27,0,0,0,.36-.12A.26.26,0,0,0,39.64,26.3Z"/><path class="cls-18" d="M39.2,25.1a.16.16,0,0,0-.22.07.17.17,0,0,0,.08.22.15.15,0,0,0,.21-.07A.16.16,0,0,0,39.2,25.1Z"/><path class="cls-18" d="M21.46,23.42a.34.34,0,1,0,.34.34.34.34,0,0,0-.34-.34Z"/><path class="cls-18" d="M18.44,24.72a.27.27,0,0,0-.27.27.26.26,0,0,0,.27.26.27.27,0,1,0,0-.53Z"/><path class="cls-18" d="M23.06,26.84a.16.16,0,1,0,.16.16A.16.16,0,0,0,23.06,26.84Z"/><path class="cls-18" d="M35.78,24.44a.25.25,0,0,0-.18.31.26.26,0,0,0,.31.18.25.25,0,0,0-.13-.49Z"/><path class="cls-18" d="M35.34,26.41a.21.21,0,0,0-.14.25.2.2,0,0,0,.24.14.21.21,0,0,0,.15-.24A.21.21,0,0,0,35.34,26.41Z"/><path class="cls-18" d="M38.55,26.18a.12.12,0,0,0-.09.15.13.13,0,0,0,.15.09.12.12,0,0,0-.06-.24Z"/><path class="cls-18" d="M17.17,26.69a.34.34,0,0,0-.3.62.34.34,0,0,0,.45-.16A.36.36,0,0,0,17.17,26.69Z"/><path class="cls-18" d="M20,25.25a.26.26,0,0,0-.35.12.26.26,0,0,0,.12.36.27.27,0,0,0,.36-.12A.27.27,0,0,0,20,25.25Z"/><path class="cls-18" d="M17.59,24.13a.16.16,0,0,0-.22.07.17.17,0,0,0,.08.22.15.15,0,0,0,.21-.07A.16.16,0,0,0,17.59,24.13Z"/><path class="cls-18" d="M13.89,25.2a.34.34,0,0,0-.34-.34.34.34,0,1,0,0,.68A.34.34,0,0,0,13.89,25.2Z"/><path class="cls-18" d="M13.88,25.73a.27.27,0,1,0,.27.26A.28.28,0,0,0,13.88,25.73Z"/><path class="cls-18" d="M14.66,26a.17.17,0,0,0-.16.17.16.16,0,0,0,.16.16.17.17,0,0,0,.16-.17A.16.16,0,0,0,14.66,26Z"/><path class="cls-18" d="M15.92,23.4a.26.26,0,0,0-.18.31.26.26,0,0,0,.31.18.27.27,0,0,0,.18-.31A.25.25,0,0,0,15.92,23.4Z"/><path class="cls-18" d="M14.79,25.2a.19.19,0,0,0-.14.24.2.2,0,1,0,.38-.1A.2.2,0,0,0,14.79,25.2Z"/><path class="cls-18" d="M15.68,25.17a.12.12,0,0,0-.08.15.11.11,0,0,0,.14.08.12.12,0,0,0,.09-.15A.12.12,0,0,0,15.68,25.17Z"/><path class="cls-19" d="M24.52,25c0,.58-2.92.58-2.92,0s.66-1.06,1.46-1.06,1.46.47,1.46,1.06Z"/><path class="cls-20" d="M24.48,23.73c.5.47.76,1.12.58,1.47s-.72.25-1.22-.21-1.5-1.79-1.33-2.14S24,23.27,24.48,23.73Z"/><path class="cls-21" d="M25.24,23.66c.11.84-.12,1.57-.52,1.63s-.81-.58-.92-1.43,0-2.82.36-2.88S25.13,22.81,25.24,23.66Z"/><path class="cls-22" d="M27.77,22.66a1.32,1.32,0,0,0-.34,0c-.71.18-3.46,1-3.55,2.57-.05,1,1.62,1.33,3.11,1.4s2.53-.65,2.61-1.61-.17-2.32-1.83-2.4Z"/><path class="cls-23" d="M27.79,22.66a1.11,1.11,0,0,0-.36,0c-.71.18-3.46,1-3.55,2.57-.05,1,1.62,1.33,3.11,1.4s2.41-3.85.8-4Z"/><path class="cls-24" d="M34.94,27.15c0,.59-2.91.59-2.91,0s.65-1.06,1.45-1.06,1.46.47,1.46,1.06Z"/><path class="cls-25" d="M8.45,36.71a24.83,24.83,0,0,0,3.64,4.87A7.88,7.88,0,0,0,16,43.79a48,48,0,0,0,20.94,0,7.88,7.88,0,0,0,3.94-2.21,24.83,24.83,0,0,0,3.64-4.87Z"/><path class="cls-26" d="M23.28,44.84a47.08,47.08,0,0,1-4.72-.56c-.85-.14-1.69-.3-2.53-.49a7.88,7.88,0,0,1-3.94-2.21,24.39,24.39,0,0,1-5.53-9.06,26,26,0,0,1-.8-2.87h0v0H7.5a1.36,1.36,0,0,1,1.13.58Z"/><path class="cls-27" d="M8.9,31a1.41,1.41,0,0,1-1.4,1.41H3.34a3,3,0,0,1-3-3,3,3,0,0,1,.88-2.13,3,3,0,0,1,2.13-.89h2c0,.31,0,.61.08.92.09.78.22,1.55.38,2.31H7.5A1.4,1.4,0,0,1,8.9,31Z"/><path class="cls-28" d="M5.76,29.61H4.31A1.27,1.27,0,0,1,3,28.34a1,1,0,0,1,.31-.73,1,1,0,0,1,.74-.31H5.38C5.47,28.08,5.6,28.85,5.76,29.61Z"/><path class="cls-29" d="M33.94,10.51a.37.37,0,0,1,.51-.47A4.77,4.77,0,0,1,37,14.1c0,3.27-3.75,3.58-3.75,6a10,10,0,0,0,.3,2.64.36.36,0,0,1-.49.45A4.33,4.33,0,0,1,30.71,19c0-3.82,3.73-3.76,3.73-5.85A7.62,7.62,0,0,0,33.94,10.51Z"/><path class="cls-30" d="M28.06,1.63c-.08-.15.14-.28.28-.17C29.34,2.17,31,3.7,31,5.75c0,2.92-3.17,3.75-3.59,6a7.11,7.11,0,0,0,.8,4.33c.06.12-.08.24-.23.2A4.78,4.78,0,0,1,24.39,11c.43-3.55,3.61-3.39,4.18-5.69a5.06,5.06,0,0,0-.51-3.7Z"/><path class="cls-31" d="M17.85,11.28c-.12-.27.12-.53.35-.38a4.38,4.38,0,0,1,2.13,3.35c.19,2.7-2.54,2.95-2.4,4.95a9.48,9.48,0,0,0,.38,2.18c.09.26-.12.48-.33.37a3.94,3.94,0,0,1-2-3.44c-.23-3.15,2.5-3.11,2.38-4.83a7.65,7.65,0,0,0-.52-2.2Z"/></svg>