<svg id="Layer_1" data-name="Layer 1" xmlns="http://www.w3.org/2000/svg" xmlns:xlink="http://www.w3.org/1999/xlink" viewBox="0 0 53 53"><defs><style>.cls-1{fill:url(#linear-gradient);}.cls-2{fill:url(#linear-gradient-2);}.cls-3{fill:url(#linear-gradient-3);}.cls-4{fill:url(#linear-gradient-4);}.cls-5{fill:url(#linear-gradient-5);}.cls-6{fill:url(#linear-gradient-6);}.cls-7{fill:url(#linear-gradient-7);}.cls-8{fill:url(#linear-gradient-8);}.cls-9{fill:#fbe9aa;}.cls-10{fill:url(#linear-gradient-9);}.cls-11{fill:url(#linear-gradient-10);}.cls-12{fill:url(#linear-gradient-11);}.cls-13{fill:url(#linear-gradient-12);}.cls-14{fill:url(#linear-gradient-13);}.cls-15{fill:url(#linear-gradient-14);}.cls-16{fill:url(#linear-gradient-15);}.cls-17{fill:url(#linear-gradient-16);}.cls-18{fill:url(#linear-gradient-17);}.cls-19{fill:url(#linear-gradient-18);}.cls-20{fill:url(#linear-gradient-19);}.cls-21{fill:url(#linear-gradient-20);}.cls-22{fill:url(#linear-gradient-21);}.cls-23{fill:url(#linear-gradient-22);}.cls-24{fill:url(#linear-gradient-23);}.cls-25{fill:url(#linear-gradient-24);}.cls-26{fill:url(#linear-gradient-25);}.cls-27{fill:url(#linear-gradient-26);}.cls-28{fill:url(#linear-gradient-27);}.cls-29{fill:url(#linear-gradient-28);}.cls-30{fill:url(#linear-gradient-29);}.cls-31{fill:url(#linear-gradient-30);}.cls-32{fill:url(#linear-gradient-31);}.cls-33{fill:url(#linear-gradient-32);}.cls-34{fill:url(#linear-gradient-33);}.cls-35{fill:url(#linear-gradient-34);}.cls-36{fill:url(#linear-gradient-35);}.cls-37{fill:url(#linear-gradient-36);}.cls-38{fill:url(#linear-gradient-37);}.cls-39{fill:url(#linear-gradient-38);}.cls-40{fill:url(#linear-gradient-39);}.cls-41{fill:url(#linear-gradient-40);}.cls-42{fill:url(#linear-gradient-41);}.cls-43{fill:url(#linear-gradient-42);}.cls-44{fill:url(#linear-gradient-43);}.cls-45{fill:url(#linear-gradient-44);}.cls-46{fill:url(#linear-gradient-45);}.cls-47{fill:url(#linear-gradient-46);}.cls-48{fill:url(#linear-gradient-47);}.cls-49{fill:url(#linear-gradient-48);}.cls-50{fill:url(#linear-gradient-49);}.cls-51{fill:url(#linear-gradient-50);}.cls-52{fill:url(#linear-gradient-51);}.cls-53{fill:url(#linear-gradient-52);}.cls-54{fill:url(#linear-gradient-53);}.cls-55{fill:url(#linear-gradient-54);}.cls-56{fill:url(#linear-gradient-55);}.cls-57{fill:url(#linear-gradient-56);}</style><linearGradient id="linear-gradient" x1="23.34" y1="-261.55" x2="26.13" y2="-267.66" gradientTransform="matrix(1, 0, 0, -1, -0.23, -231.52)" gradientUnits="userSpaceOnUse"><stop offset="0" stop-color="#eda892"/><stop offset="0.21" stop-color="#eea887"/><stop offset="0.58" stop-color="#f0aa6d"/><stop offset="1" stop-color="#f2aa50"/></linearGradient><linearGradient id="linear-gradient-2" x1="26.26" y1="-268.07" x2="23.9" y2="-261.26" gradientTransform="matrix(1, 0, 0, -1, -0.23, -231.52)" gradientUnits="userSpaceOnUse"><stop offset="0" stop-color="#e4402b" stop-opacity="0"/><stop offset="0.25" stop-color="#dd3e2b" stop-opacity="0.25"/><stop offset="0.61" stop-color="#cb3b2e" stop-opacity="0.61"/><stop offset="1" stop-color="#b03634"/></linearGradient><linearGradient id="linear-gradient-3" x1="15.23" y1="-253.51" x2="27.64" y2="-268.37" gradientTransform="matrix(1, 0, 0, -1, -0.23, -231.52)" gradientUnits="userSpaceOnUse"><stop offset="0" stop-color="#f9d862"/><stop offset="0.3" stop-color="#f7cc5b"/><stop offset="0.86" stop-color="#f3ae4a"/><stop offset="1" stop-color="#f2a546"/></linearGradient><linearGradient id="linear-gradient-4" x1="32.41" y1="-252.69" x2="36.82" y2="-246.45" gradientTransform="matrix(1, 0, 0, -1, -0.23, -231.52)" gradientUnits="userSpaceOnUse"><stop offset="0" stop-color="#e4402b" stop-opacity="0"/><stop offset="1" stop-color="#b03634"/></linearGradient><linearGradient id="linear-gradient-5" x1="30.37" y1="-255.15" x2="10.53" y2="-224.47" xlink:href="#linear-gradient-4"/><linearGradient id="linear-gradient-6" x1="20.22" y1="-257.39" x2="11.86" y2="-241.73" xlink:href="#linear-gradient-4"/><linearGradient id="linear-gradient-7" x1="33.5" y1="-261.78" x2="25.18" y2="-246.11" xlink:href="#linear-gradient-4"/><linearGradient id="linear-gradient-8" x1="15.09" y1="-270.36" x2="8.41" y2="-258.99" xlink:href="#linear-gradient-4"/><linearGradient id="linear-gradient-9" x1="22.23" y1="-250.64" x2="23.25" y2="-253.1" gradientTransform="matrix(1, 0, 0, -1, -0.23, -231.52)" gradientUnits="userSpaceOnUse"><stop offset="0" stop-color="#c0d645"/><stop offset="0.23" stop-color="#b5ca41"/><stop offset="0.64" stop-color="#99ab35"/><stop offset="1" stop-color="#7d8929"/></linearGradient><linearGradient id="linear-gradient-10" x1="2409.16" y1="2543.16" x2="2410.21" y2="2541.7" gradientTransform="matrix(-1, -0.06, -0.06, 1, 2579.32, -2396.67)" gradientUnits="userSpaceOnUse"><stop offset="0" stop-color="#7d8929" stop-opacity="0"/><stop offset="0.65" stop-color="#58601a" stop-opacity="0.65"/><stop offset="1" stop-color="#484e13"/></linearGradient><linearGradient id="linear-gradient-11" x1="2409.88" y1="2544.08" x2="2410.71" y2="2542.92" xlink:href="#linear-gradient-10"/><linearGradient id="linear-gradient-12" x1="2408.67" y1="2544.11" x2="2409.17" y2="2543.41" xlink:href="#linear-gradient-10"/><linearGradient id="linear-gradient-13" x1="12.39" y1="-259.17" x2="13.4" y2="-261.63" xlink:href="#linear-gradient-9"/><linearGradient id="linear-gradient-14" x1="2418.52" y1="2552.21" x2="2419.57" y2="2550.75" xlink:href="#linear-gradient-10"/><linearGradient id="linear-gradient-15" x1="2419.24" y1="2553.13" x2="2420.07" y2="2551.98" xlink:href="#linear-gradient-10"/><linearGradient id="linear-gradient-16" x1="2418.02" y1="2553.16" x2="2418.52" y2="2552.47" xlink:href="#linear-gradient-10"/><linearGradient id="linear-gradient-17" x1="24.64" y1="-261.62" x2="25.66" y2="-264.08" xlink:href="#linear-gradient-9"/><linearGradient id="linear-gradient-18" x1="2406.15" y1="2553.99" x2="2407.2" y2="2552.53" xlink:href="#linear-gradient-10"/><linearGradient id="linear-gradient-19" x1="2406.87" y1="2554.91" x2="2407.7" y2="2553.76" xlink:href="#linear-gradient-10"/><linearGradient id="linear-gradient-20" x1="2405.66" y1="2554.94" x2="2406.16" y2="2554.25" xlink:href="#linear-gradient-10"/><linearGradient id="linear-gradient-21" x1="42.18" y1="-256.07" x2="43.19" y2="-258.54" xlink:href="#linear-gradient-9"/><linearGradient id="linear-gradient-22" x1="2388.95" y1="2547.49" x2="2390.01" y2="2546.03" xlink:href="#linear-gradient-10"/><linearGradient id="linear-gradient-23" x1="2389.67" y1="2548.41" x2="2390.5" y2="2547.26" xlink:href="#linear-gradient-10"/><linearGradient id="linear-gradient-24" x1="2388.46" y1="2548.44" x2="2388.96" y2="2547.75" xlink:href="#linear-gradient-10"/><linearGradient id="linear-gradient-25" x1="22.36" y1="-240.68" x2="23.38" y2="-243.14" xlink:href="#linear-gradient-9"/><linearGradient id="linear-gradient-26" x1="2409.58" y1="2533.2" x2="2410.63" y2="2531.74" xlink:href="#linear-gradient-10"/><linearGradient id="linear-gradient-27" x1="2410.3" y1="2534.12" x2="2411.13" y2="2532.97" xlink:href="#linear-gradient-10"/><linearGradient id="linear-gradient-28" x1="2409.09" y1="2534.16" x2="2409.59" y2="2533.46" xlink:href="#linear-gradient-10"/><linearGradient id="linear-gradient-29" x1="924.1" y1="-550.85" x2="926.58" y2="-555.91" gradientTransform="matrix(0.71, 0.71, 0.71, -0.71, -241.37, -1034.47)" gradientUnits="userSpaceOnUse"><stop offset="0" stop-color="#f9ded0"/><stop offset="0.38" stop-color="#f4c5b2"/><stop offset="0.77" stop-color="#efb09a"/><stop offset="1" stop-color="#eda892"/></linearGradient><linearGradient id="linear-gradient-30" x1="747.06" y1="2367.5" x2="749.05" y2="2363.41" gradientTransform="matrix(-0.71, -0.71, -0.71, 0.71, 2231.72, -1130.95)" xlink:href="#linear-gradient-29"/><linearGradient id="linear-gradient-31" x1="4.1" y1="-268.61" x2="5.77" y2="-271.34" gradientTransform="matrix(1, 0, 0, -1, -0.23, -231.52)" gradientUnits="userSpaceOnUse"><stop offset="0" stop-color="#9e7d58"/><stop offset="0.13" stop-color="#9a6e50"/><stop offset="0.52" stop-color="#8e483b"/><stop offset="0.82" stop-color="#88322e"/><stop offset="1" stop-color="#862b2a"/></linearGradient><linearGradient id="linear-gradient-32" x1="928.46" y1="-574.96" x2="930.57" y2="-579.28" xlink:href="#linear-gradient-29"/><linearGradient id="linear-gradient-33" x1="743.15" y1="2390.65" x2="744.86" y2="2387.16" gradientTransform="matrix(-0.71, -0.71, -0.71, 0.71, 2231.72, -1130.95)" xlink:href="#linear-gradient-29"/><linearGradient id="linear-gradient-34" x1="33.95" y1="-258.95" x2="36.17" y2="-262.63" xlink:href="#linear-gradient-31"/><linearGradient id="linear-gradient-35" x1="32.88" y1="-253.38" x2="34.81" y2="-258.06" gradientTransform="matrix(1, 0, 0, -1, -0.23, -231.52)" gradientUnits="userSpaceOnUse"><stop offset="0" stop-color="#ec6d60"/><stop offset="0.22" stop-color="#eb6658"/><stop offset="0.6" stop-color="#e85543"/><stop offset="1" stop-color="#e4402b"/></linearGradient><linearGradient id="linear-gradient-36" x1="2397.84" y1="2545.91" x2="2399.83" y2="2543.14" gradientTransform="matrix(-1, -0.06, -0.06, 1, 2579.32, -2396.67)" xlink:href="#linear-gradient-2"/><linearGradient id="linear-gradient-37" x1="2399.2" y1="2547.66" x2="2400.78" y2="2545.47" gradientTransform="matrix(-1, -0.06, -0.06, 1, 2579.32, -2396.67)" xlink:href="#linear-gradient-2"/><linearGradient id="linear-gradient-38" x1="2396.9" y1="2547.72" x2="2397.85" y2="2546.4" gradientTransform="matrix(-1, -0.06, -0.06, 1, 2579.32, -2396.67)" xlink:href="#linear-gradient-2"/><linearGradient id="linear-gradient-39" x1="13.84" y1="-261.77" x2="15.77" y2="-266.45" xlink:href="#linear-gradient-35"/><linearGradient id="linear-gradient-40" x1="2416.38" y1="2555.33" x2="2418.38" y2="2552.57" gradientTransform="matrix(-1, -0.06, -0.06, 1, 2579.32, -2396.67)" xlink:href="#linear-gradient-2"/><linearGradient id="linear-gradient-41" x1="2417.75" y1="2557.08" x2="2419.32" y2="2554.9" gradientTransform="matrix(-1, -0.06, -0.06, 1, 2579.32, -2396.67)" xlink:href="#linear-gradient-2"/><linearGradient id="linear-gradient-42" x1="2415.45" y1="2557.14" x2="2416.4" y2="2555.83" gradientTransform="matrix(-1, -0.06, -0.06, 1, 2579.32, -2396.67)" xlink:href="#linear-gradient-2"/><linearGradient id="linear-gradient-43" x1="22.98" y1="-254.9" x2="25.19" y2="-258.58" xlink:href="#linear-gradient-31"/><linearGradient id="linear-gradient-44" x1="26.96" y1="-265.29" x2="22.53" y2="-256.93" gradientTransform="matrix(1, 0, 0, -1, -0.23, -231.52)" xlink:href="#linear-gradient-10"/><linearGradient id="linear-gradient-45" x1="935.85" y1="-557.01" x2="937.96" y2="-561.32" xlink:href="#linear-gradient-29"/><linearGradient id="linear-gradient-46" x1="735.76" y1="2372.69" x2="737.46" y2="2369.21" gradientTransform="matrix(-0.71, -0.71, -0.71, 0.71, 2231.72, -1130.95)" xlink:href="#linear-gradient-29"/><linearGradient id="linear-gradient-47" x1="7.26" y1="-259.25" x2="8.21" y2="-261.16" gradientTransform="matrix(1, 0, 0, -1, -0.23, -231.52)" gradientUnits="userSpaceOnUse"><stop offset="0" stop-color="#867987"/><stop offset="0.33" stop-color="#827483"/><stop offset="0.7" stop-color="#78677a"/><stop offset="1" stop-color="#6a576c"/></linearGradient><linearGradient id="linear-gradient-48" x1="17.7" y1="-256.39" x2="18.65" y2="-258.3" xlink:href="#linear-gradient-47"/><linearGradient id="linear-gradient-49" x1="31" y1="-249.01" x2="31.95" y2="-250.92" xlink:href="#linear-gradient-47"/><linearGradient id="linear-gradient-50" x1="3.18" y1="-270.65" x2="4.14" y2="-272.56" xlink:href="#linear-gradient-47"/><linearGradient id="linear-gradient-51" x1="14.32" y1="-250.73" x2="16.25" y2="-255.41" xlink:href="#linear-gradient-35"/><linearGradient id="linear-gradient-52" x1="2416.51" y1="2544.29" x2="2418.51" y2="2541.52" gradientTransform="matrix(-1, -0.06, -0.06, 1, 2579.32, -2396.67)" xlink:href="#linear-gradient-2"/><linearGradient id="linear-gradient-53" x1="2417.88" y1="2546.04" x2="2419.46" y2="2543.85" gradientTransform="matrix(-1, -0.06, -0.06, 1, 2579.32, -2396.67)" xlink:href="#linear-gradient-2"/><linearGradient id="linear-gradient-54" x1="2415.58" y1="2546.1" x2="2416.53" y2="2544.78" gradientTransform="matrix(-1, -0.06, -0.06, 1, 2579.32, -2396.67)" xlink:href="#linear-gradient-2"/><linearGradient id="linear-gradient-55" x1="29.88" y1="-245.3" x2="32.09" y2="-248.98" xlink:href="#linear-gradient-31"/><linearGradient id="linear-gradient-56" x1="38.82" y1="-244.31" x2="34.95" y2="-250.63" xlink:href="#linear-gradient"/></defs><title>Суші штат_іконки_деталізовані</title><path class="cls-1" d="M23.27,10.17S7.17,20,1.21,46.8A2.2,2.2,0,0,0,4.68,49,100.38,100.38,0,0,1,48,30.63a3.36,3.36,0,0,0,2.3-5.14c-3.17-5-10.6-12.66-27-15.32Z"/><path class="cls-2" d="M50.25,25.43a100.08,100.08,0,0,0-47.31,19,2.17,2.17,0,0,1-1.27.44c-.16.64-.31,1.29-.46,1.95A2.2,2.2,0,0,0,4.68,49,100.31,100.31,0,0,1,48,30.63a3.37,3.37,0,0,0,2.31-5.12l-.06-.08Z"/><path class="cls-3" d="M51.14,27.41S47,12.36,21.85,8.88c0,0-16,9.71-21.81,35.49a2.17,2.17,0,0,0,3.48,2.09q.93-.69,2-1.47a1.4,1.4,0,0,1,2.2,1.15v.08a2.16,2.16,0,0,0,4.32,0V44a5.37,5.37,0,0,1,2.81-4.72,105.36,105.36,0,0,1,14.94-6.69,1.4,1.4,0,0,1,1.87,1.32,2.17,2.17,0,0,0,4.33,0V31.07a.7.7,0,0,1,.51-.67h0a.72.72,0,0,1,.9.68v7a2.16,2.16,0,0,0,4.32,0v-6a3.73,3.73,0,0,1,3-3.66c2.06-.4,4.18-.75,6.36-1Z"/><path class="cls-4" d="M21.85,8.88a36.67,36.67,0,0,0-7,6.09L35.33,35.45a2.16,2.16,0,0,0,.7-1.59V31.07a.7.7,0,0,1,.51-.67h0a.7.7,0,0,1,.9.67v6.49l2.66,2.66a2.16,2.16,0,0,0,1.66-2.1v-6a3.73,3.73,0,0,1,3-3.66c2.06-.4,4.18-.75,6.36-1,0,0-4.19-15-29.29-18.53Z"/><path class="cls-5" d="M27.08,13.93a4.86,4.86,0,0,0-.74-.68,7.3,7.3,0,0,0-8.31,0,3.69,3.69,0,0,0-.34,6L34.41,36A2.17,2.17,0,0,0,36,33.86V31.07a.7.7,0,0,1,.51-.67h0a.72.72,0,0,1,.9.68v7a2.19,2.19,0,0,0,.48,1.37c.15.15.31.29.49.44a2.19,2.19,0,0,0,1.19.35,2.16,2.16,0,0,0,2.16-2.16v-6a3.73,3.73,0,0,1,1-2.51Z"/><path class="cls-6" d="M19,20.88a5.13,5.13,0,0,0-3.87-1.53c-2.5,0-4.53,1.43-4.53,3.19a2.64,2.64,0,0,0,1,2L22.48,35.48c2.3-1,4.76-2,7.35-2.94a1.34,1.34,0,0,1,.71-.06Z"/><path class="cls-7" d="M37.57,23.48A5.2,5.2,0,0,0,33.75,22c-2.5,0-4.53,1.43-4.53,3.2a1.48,1.48,0,0,0,0,.21,6.29,6.29,0,0,0-6.42.43,3.13,3.13,0,0,0-.33,5.06l3.21,3.22c1.34-.54,2.72-1.07,4.14-1.58a1.4,1.4,0,0,1,1.87,1.32,2.17,2.17,0,0,0,4.33,0V31.07a.7.7,0,0,1,.51-.67h0a.7.7,0,0,1,.9.67v7a2.16,2.16,0,0,0,4.32,0v-6a3.75,3.75,0,0,1,1.46-3Z"/><path class="cls-8" d="M22.17,35.62,18.45,31.9a5.23,5.23,0,0,0-3.82-1.47,4.73,4.73,0,0,0-4.26,2.11,6.28,6.28,0,0,0-5.55.79,3.14,3.14,0,0,0-.33,5.07L12.08,46V44a5.37,5.37,0,0,1,2.81-4.72c2.21-1.21,4.64-2.43,7.28-3.61Z"/><path class="cls-9" d="M10.15,26.59a.38.38,0,1,0-.52.16.38.38,0,0,0,.52-.16Z"/><path class="cls-9" d="M8.89,26.75a.3.3,0,1,0,.12.41A.3.3,0,0,0,8.89,26.75Z"/><path class="cls-9" d="M9.22,28.33a.19.19,0,0,0-.25.08.17.17,0,0,0,.08.24.18.18,0,0,0,.25-.07A.19.19,0,0,0,9.22,28.33Z"/><path class="cls-9" d="M11.85,28.84a.39.39,0,0,0-.4.37.4.4,0,0,0,.38.4.38.38,0,0,0,.39-.38A.37.37,0,0,0,11.85,28.84Z"/><path class="cls-9" d="M13.85,26.11a.31.31,0,1,0,0,.61.31.31,0,0,0,.31-.3.32.32,0,0,0-.3-.31Z"/><path class="cls-9" d="M11,26.23a.18.18,0,0,0-.19.18.19.19,0,0,0,.37,0A.19.19,0,0,0,11,26.23Z"/><path class="cls-9" d="M10.42,27.81a.27.27,0,0,0-.21.34.28.28,0,0,0,.55-.13A.27.27,0,0,0,10.42,27.81Z"/><path class="cls-9" d="M10.74,27a.23.23,0,1,0,.27.17A.24.24,0,0,0,10.74,27Z"/><path class="cls-9" d="M9.83,27.45a.13.13,0,0,0,.1-.16.13.13,0,0,0-.16-.1.12.12,0,0,0-.1.16A.13.13,0,0,0,9.83,27.45Z"/><path class="cls-9" d="M17.29,25.45a.38.38,0,1,0-.52.16A.38.38,0,0,0,17.29,25.45Z"/><path class="cls-9" d="M15.43,28.76a.31.31,0,0,0-.41.13.3.3,0,0,0,.12.41.31.31,0,0,0,.41-.12A.32.32,0,0,0,15.43,28.76Z"/><path class="cls-9" d="M15,27.09a.19.19,0,0,0-.18.33.19.19,0,0,0,.25-.08A.19.19,0,0,0,15,27.09Z"/><path class="cls-9" d="M19.39,26a.4.4,0,0,0-.4.38.38.38,0,0,0,.38.39.37.37,0,0,0,.39-.37A.39.39,0,0,0,19.39,26Z"/><path class="cls-9" d="M19.35,25.46a.3.3,0,0,0-.3-.31.29.29,0,0,0-.31.29.3.3,0,0,0,.29.31.3.3,0,0,0,.32-.29Z"/><path class="cls-9" d="M18.17,25.09a.19.19,0,0,0-.19.18.19.19,0,1,0,.37,0A.19.19,0,0,0,18.17,25.09Z"/><path class="cls-9" d="M16.51,27.75a.29.29,0,0,0-.22.34.3.3,0,0,0,.34.22.29.29,0,0,0-.12-.56Z"/><path class="cls-9" d="M17.88,25.87a.24.24,0,0,0-.17.27.23.23,0,0,0,.27.17.22.22,0,0,0,.17-.27A.24.24,0,0,0,17.88,25.87Z"/><path class="cls-9" d="M17,26.31a.13.13,0,0,0,.1-.16.13.13,0,1,0-.26.06A.12.12,0,0,0,17,26.31Z"/><path class="cls-9" d="M21.28,31.63a.38.38,0,0,0-.68-.36.39.39,0,0,0,.16.52A.38.38,0,0,0,21.28,31.63Z"/><path class="cls-9" d="M20,31.79a.3.3,0,0,0-.41.12.3.3,0,0,0,.12.41.3.3,0,1,0,.29-.53Z"/><path class="cls-9" d="M20.35,33.37a.18.18,0,0,0-.24.08.18.18,0,0,0,.07.25.19.19,0,0,0,.25-.08A.19.19,0,0,0,20.35,33.37Z"/><path class="cls-9" d="M23,33.88a.37.37,0,0,0-.39.37.38.38,0,0,0,.37.4.4.4,0,0,0,.4-.38A.38.38,0,0,0,23,33.88Z"/><path class="cls-9" d="M40.21,25.2a.32.32,0,0,0-.41-.15.3.3,0,1,0,.41.15Z"/><path class="cls-9" d="M22.16,31.27a.19.19,0,0,0,0,.37.19.19,0,1,0,0-.37Z"/><path class="cls-9" d="M21.56,32.85a.28.28,0,1,0,.12.55.28.28,0,0,0,.22-.34A.28.28,0,0,0,21.56,32.85Z"/><path class="cls-9" d="M21.88,32.05a.23.23,0,0,0,.1.44.22.22,0,0,0,.16-.27A.22.22,0,0,0,21.88,32.05Z"/><path class="cls-9" d="M21,32.49a.12.12,0,0,0,.1-.16.13.13,0,0,0-.16-.1.13.13,0,1,0,.06.26Z"/><path class="cls-9" d="M21.31,14.83a.38.38,0,1,0-.52.16A.38.38,0,0,0,21.31,14.83Z"/><path class="cls-9" d="M38.55,27.8a.3.3,0,1,0-.6,0,.3.3,0,0,0,.3.31A.3.3,0,0,0,38.55,27.8Z"/><path class="cls-9" d="M39.83,26.61a.18.18,0,0,0-.18-.18.19.19,0,0,0-.19.18.19.19,0,0,0,.18.19A.19.19,0,0,0,39.83,26.61Z"/><path class="cls-9" d="M23.41,15.35a.39.39,0,1,0,0,.77.38.38,0,0,0,.39-.38A.37.37,0,0,0,23.41,15.35Z"/><path class="cls-9" d="M23.37,14.83a.32.32,0,0,0-.3-.31.3.3,0,0,0-.31.3.3.3,0,0,0,.29.31.32.32,0,0,0,.32-.3Z"/><path class="cls-9" d="M22.19,14.47a.18.18,0,0,0-.19.18.19.19,0,0,0,.37,0A.18.18,0,0,0,22.19,14.47Z"/><path class="cls-9" d="M40,28.31a.28.28,0,1,0,0,.4A.29.29,0,0,0,40,28.31Z"/><path class="cls-9" d="M21.9,15.25a.24.24,0,0,0-.17.27.23.23,0,1,0,.17-.27Z"/><path class="cls-9" d="M21,15.69a.13.13,0,0,0-.06-.26.13.13,0,1,0,.06.26Z"/><path class="cls-9" d="M31.82,22.81a.38.38,0,1,0,.65.41.38.38,0,0,0-.12-.53A.39.39,0,0,0,31.82,22.81Z"/><path class="cls-9" d="M33.09,22.75a.31.31,0,1,0-.09-.42A.31.31,0,0,0,33.09,22.75Z"/><path class="cls-9" d="M32.87,21.14a.18.18,0,0,0,.26-.06.19.19,0,0,0-.06-.25.18.18,0,0,0-.2.31Z"/><path class="cls-9" d="M30.29,20.45a.39.39,0,0,0,.42-.35.38.38,0,0,0-.34-.42.39.39,0,1,0-.08.77Z"/><path class="cls-9" d="M28.09,23a.3.3,0,1,0,.06-.6.3.3,0,0,0-.33.27A.31.31,0,0,0,28.09,23Z"/><path class="cls-9" d="M30.92,23.11a.19.19,0,0,0,0-.37.19.19,0,0,0-.21.17A.19.19,0,0,0,30.92,23.11Z"/><path class="cls-9" d="M31.64,21.58a.28.28,0,0,0,.23-.33.28.28,0,1,0-.56.09A.3.3,0,0,0,31.64,21.58Z"/><path class="cls-9" d="M31.26,22.35a.23.23,0,0,0,.19-.26.23.23,0,0,0-.26-.19.24.24,0,0,0-.19.26A.23.23,0,0,0,31.26,22.35Z"/><path class="cls-9" d="M32.2,22a.14.14,0,0,0-.11.16.14.14,0,0,0,.27,0A.14.14,0,0,0,32.2,22Z"/><path class="cls-9" d="M24.62,23.43a.38.38,0,0,0,.12.53.38.38,0,1,0-.12-.53Z"/><path class="cls-9" d="M26.71,20.26a.3.3,0,1,0-.09-.42A.3.3,0,0,0,26.71,20.26Z"/><path class="cls-9" d="M27.07,22a.19.19,0,0,0,.26-.05.2.2,0,0,0-.06-.26.19.19,0,0,0-.25.06.18.18,0,0,0,.05.25Z"/><path class="cls-9" d="M22.56,22.76a.38.38,0,0,0,.42-.34.38.38,0,1,0-.76-.08A.38.38,0,0,0,22.56,22.76Z"/><path class="cls-9" d="M22.57,23.28a.3.3,0,1,0,.6.06.3.3,0,1,0-.6-.06Z"/><path class="cls-9" d="M23.71,23.73a.19.19,0,0,0,.21-.17.19.19,0,0,0-.37,0A.18.18,0,0,0,23.71,23.73Z"/><path class="cls-9" d="M25.56,21.19a.28.28,0,0,0,.24-.32.28.28,0,1,0-.56.09A.27.27,0,0,0,25.56,21.19Z"/><path class="cls-9" d="M24.06,23a.23.23,0,0,0,.18-.26.22.22,0,0,0-.25-.19.23.23,0,0,0-.19.26A.23.23,0,0,0,24.06,23Z"/><path class="cls-9" d="M25,22.59a.14.14,0,0,0-.11.16.13.13,0,0,0,.15.11.13.13,0,0,0,.11-.15A.13.13,0,0,0,25,22.59Z"/><path class="cls-9" d="M10,41.07a.39.39,0,0,0,.33.44.38.38,0,0,0,.43-.33.38.38,0,0,0-.32-.43A.39.39,0,0,0,10,41.07Z"/><path class="cls-9" d="M11.11,40.5a.3.3,0,0,0,.34-.26.29.29,0,0,0-.25-.34.3.3,0,0,0-.35.25A.31.31,0,0,0,11.11,40.5Z"/><path class="cls-9" d="M10.26,39.12a.18.18,0,0,0,.2-.16.17.17,0,0,0-.15-.2.18.18,0,0,0-.21.15A.19.19,0,0,0,10.26,39.12Z"/><path class="cls-9" d="M7.61,39.53a.39.39,0,0,0,.25-.48.4.4,0,0,0-.49-.25.39.39,0,0,0-.24.49A.37.37,0,0,0,7.61,39.53Z"/><path class="cls-9" d="M6.65,42.78a.3.3,0,0,0,.19-.39.3.3,0,0,0-.38-.19.29.29,0,0,0-.19.38A.3.3,0,0,0,6.65,42.78Z"/><path class="cls-9" d="M9.27,41.71a.19.19,0,0,0,.12-.23.19.19,0,0,0-.24-.12.19.19,0,0,0-.11.23A.18.18,0,0,0,9.27,41.71Z"/><path class="cls-9" d="M9.3,40a.28.28,0,0,0-.3-.48.28.28,0,1,0,.3.48Z"/><path class="cls-9" d="M9.27,40.88A.22.22,0,0,0,9,40.5a.22.22,0,0,0-.07.31A.24.24,0,0,0,9.27,40.88Z"/><path class="cls-9" d="M10,40.15a.14.14,0,0,0,.15.23.14.14,0,0,0-.15-.23Z"/><path class="cls-9" d="M3.64,44.56a.38.38,0,1,0,.76.11.38.38,0,0,0-.76-.11Z"/><path class="cls-9" d="M4.27,40.81a.31.31,0,0,0,.35-.25.32.32,0,0,0-.26-.35.31.31,0,0,0-.35.26A.3.3,0,0,0,4.27,40.81Z"/><path class="cls-9" d="M5.29,42.23A.19.19,0,1,0,5.13,42,.2.2,0,0,0,5.29,42.23Z"/><path class="cls-9" d="M1.49,44.78a.37.37,0,0,0,.24-.48.39.39,0,0,0-.48-.25.4.4,0,0,0-.25.49A.39.39,0,0,0,1.49,44.78Z"/><path class="cls-9" d="M1.7,45.25a.32.32,0,0,0,.39.2.31.31,0,0,0,.19-.39.3.3,0,0,0-.38-.19A.3.3,0,0,0,1.7,45.25Z"/><path class="cls-9" d="M2.94,45.2A.18.18,0,0,0,3.05,45a.18.18,0,0,0-.23-.12.19.19,0,0,0-.12.23A.19.19,0,0,0,2.94,45.2Z"/><path class="cls-9" d="M3.6,42.13a.28.28,0,1,0-.31-.47.28.28,0,1,0,.31.47Z"/><path class="cls-9" d="M2.94,44.37A.25.25,0,0,0,3,44.05.22.22,0,0,0,2.7,44a.22.22,0,0,0-.07.31A.24.24,0,0,0,2.94,44.37Z"/><path class="cls-9" d="M3.65,43.64a.14.14,0,0,0,0,.19.14.14,0,1,0,.23-.15A.14.14,0,0,0,3.65,43.64Z"/><ellipse class="cls-10" cx="22.6" cy="21.34" rx="2.39" ry="1.68"/><circle class="cls-11" cx="22.35" cy="20.32" r="0.38"/><circle class="cls-12" cx="21.64" cy="21.31" r="0.3"/><circle class="cls-13" cx="22.95" cy="21.56" r="0.18"/><ellipse class="cls-14" cx="12.71" cy="29.9" rx="2.39" ry="1.68"/><circle class="cls-15" cx="12.46" cy="28.88" r="0.38"/><circle class="cls-16" cx="11.75" cy="29.87" r="0.3"/><circle class="cls-17" cx="13.07" cy="30.12" r="0.18"/><ellipse class="cls-18" cx="25.02" cy="32.36" rx="2.39" ry="1.68"/><circle class="cls-19" cx="24.77" cy="31.35" r="0.38"/><circle class="cls-20" cx="24.06" cy="32.33" r="0.3"/><circle class="cls-21" cx="25.37" cy="32.58" r="0.18"/><ellipse class="cls-22" cx="42.62" cy="26.8" rx="2.39" ry="1.68"/><circle class="cls-23" cx="42.37" cy="25.78" r="0.38"/><circle class="cls-24" cx="41.66" cy="26.77" r="0.3"/><circle class="cls-25" cx="42.97" cy="27.02" r="0.18"/><ellipse class="cls-26" cx="22.73" cy="11.34" rx="2.39" ry="1.68"/><circle class="cls-27" cx="22.47" cy="10.32" r="0.38"/><circle class="cls-28" cx="21.77" cy="11.31" r="0.3"/><circle class="cls-29" cx="23.08" cy="11.56" r="0.18"/><path class="cls-30" d="M26.34,13.25a7.3,7.3,0,0,0-8.31,0,3.72,3.72,0,0,0,0,6.27,7.34,7.34,0,0,0,8.31,0A3.72,3.72,0,0,0,26.34,13.25Zm-6.79,4.26a1.93,1.93,0,0,1,0-3.48,5.21,5.21,0,0,1,5.27,0,1.92,1.92,0,0,1,0,3.47A5.18,5.18,0,0,1,19.55,17.51Z"/><path class="cls-31" d="M18.73,18.54a6.28,6.28,0,0,0,6.91,0,2.92,2.92,0,0,0,0-5,6.25,6.25,0,0,0-6.91,0A2.92,2.92,0,0,0,18.73,18.54ZM24.82,14a1.93,1.93,0,0,1,0,3.48,5.18,5.18,0,0,1-5.27,0,1.93,1.93,0,0,1,0-3.48A5.23,5.23,0,0,1,24.82,14Z"/><path class="cls-32" d="M3.31,40a2.22,2.22,0,0,0,2.44-.54c.1-.13.06-.28-.08-.43s-.09-.38.11-.52l0,0c.26-.17.2-.48-.12-.59l-1.28-.46c-.32-.12-.71,0-.75.28a.54.54,0,0,1-.54.36.65.65,0,0,0-.49.17c-.49.64-.19,1.42.67,1.75Z"/><path class="cls-33" d="M11.91,33.33a6.25,6.25,0,0,0-7.09,0,3.17,3.17,0,0,0,0,5.35,6.22,6.22,0,0,0,7.09,0A3.17,3.17,0,0,0,11.91,33.33ZM6.11,37a1.65,1.65,0,0,1,0-3,4.42,4.42,0,0,1,4.5,0,1.64,1.64,0,0,1,0,3A4.42,4.42,0,0,1,6.11,37Z"/><path class="cls-34" d="M5.42,37.85a5.34,5.34,0,0,0,5.89,0,2.49,2.49,0,0,0,0-4.29,5.34,5.34,0,0,0-5.89,0A2.49,2.49,0,0,0,5.42,37.85ZM10.62,34a1.65,1.65,0,0,1,0,3,4.44,4.44,0,0,1-4.51,0,1.65,1.65,0,0,1,0-3A4.44,4.44,0,0,1,10.62,34Z"/><path class="cls-35" d="M35.3,28a2.24,2.24,0,0,0-2.45.54c-.09.13-.05.28.09.43a.34.34,0,0,1-.11.52l0,0c-.26.17-.2.48.12.59l1.28.46c.32.12.71,0,.75-.28a.56.56,0,0,1,.54-.36.67.67,0,0,0,.49-.17c.49-.64.19-1.42-.67-1.75Z"/><ellipse class="cls-36" cx="33.75" cy="25.2" rx="4.53" ry="3.19"/><circle class="cls-37" cx="33.27" cy="23.27" r="0.72"/><circle class="cls-38" cx="31.92" cy="25.14" r="0.57"/><circle class="cls-39" cx="34.42" cy="25.62" r="0.34"/><ellipse class="cls-40" cx="14.63" cy="33.62" rx="4.53" ry="3.19"/><circle class="cls-41" cx="14.15" cy="31.69" r="0.72"/><circle class="cls-42" cx="12.81" cy="33.57" r="0.57"/><circle class="cls-43" cx="15.3" cy="34.05" r="0.34"/><path class="cls-44" d="M24.29,24a2.23,2.23,0,0,0-2.45.55c-.1.12-.06.27.08.42a.33.33,0,0,1-.11.52l0,0c-.27.17-.21.48.11.59l1.28.46c.33.12.71,0,.76-.28a.52.52,0,0,1,.53-.35.65.65,0,0,0,.49-.18c.49-.64.19-1.42-.66-1.75Z"/><path class="cls-45" d="M25.57,34c1.05-.18,1.84-.84,1.84-1.64S26.34,30.68,25,30.68a2.75,2.75,0,0,0-2,.77Z"/><path class="cls-46" d="M29.9,25.83a6.25,6.25,0,0,0-7.09,0,3.17,3.17,0,0,0,0,5.35,6.22,6.22,0,0,0,7.09,0,3.17,3.17,0,0,0,0-5.35Zm-5.8,3.64a1.65,1.65,0,0,1,0-3,4.49,4.49,0,0,1,4.51,0,1.65,1.65,0,0,1,0,3A4.44,4.44,0,0,1,24.1,29.47Z"/><path class="cls-47" d="M23.41,30.35a5.34,5.34,0,0,0,5.89,0,2.49,2.49,0,0,0,0-4.29,5.34,5.34,0,0,0-5.89,0A2.49,2.49,0,0,0,23.41,30.35Zm5.2-3.85a1.65,1.65,0,0,1,0,3,4.44,4.44,0,0,1-4.51,0,1.65,1.65,0,0,1,0-3A4.44,4.44,0,0,1,28.61,26.5Z"/><path class="cls-48" d="M7.9,29c-1.15,0-2.07.66-2.07,1.47S6.75,31.9,7.9,31.9,10,31.24,10,30.43,9,29,7.9,29Zm0,2.1c-.49,0-.88-.28-.88-.63s.39-.62.88-.62.87.28.87.62S8.38,31.06,7.9,31.06Z"/><path class="cls-49" d="M18.38,26.09c-1.14,0-2.07.66-2.07,1.47S17.24,29,18.38,29s2.07-.66,2.07-1.47-.93-1.47-2.07-1.47Zm0,2.1c-.49,0-.88-.28-.88-.63s.39-.63.88-.63.88.28.88.63S18.86,28.19,18.38,28.19Z"/><path class="cls-50" d="M31.73,18.67c-1.14,0-2.07.66-2.07,1.48s.93,1.47,2.07,1.47S33.8,21,33.8,20.15,32.87,18.67,31.73,18.67Zm0,2.1c-.48,0-.88-.28-.88-.62s.4-.63.88-.63.88.28.88.63S32.22,20.77,31.73,20.77Z"/><path class="cls-51" d="M3.8,40.4c-1.14,0-2.06.66-2.06,1.48s.92,1.47,2.06,1.47,2.07-.66,2.07-1.47S5,40.4,3.8,40.4Zm0,2.1c-.48,0-.87-.28-.87-.62s.39-.63.87-.63.88.28.88.63S4.29,42.5,3.8,42.5Z"/><ellipse class="cls-52" cx="15.11" cy="22.54" rx="4.53" ry="3.19"/><circle class="cls-53" cx="14.63" cy="20.61" r="0.72"/><circle class="cls-54" cx="13.29" cy="22.49" r="0.57"/><circle class="cls-55" cx="15.78" cy="22.97" r="0.34"/><path class="cls-56" d="M31.21,14.33a2.22,2.22,0,0,0-2.44.55c-.1.12-.06.27.08.42a.33.33,0,0,1-.11.52l0,0c-.26.18-.2.48.12.6l1.28.46c.32.11.71,0,.76-.29a.51.51,0,0,1,.53-.35.65.65,0,0,0,.49-.18c.49-.63.19-1.42-.67-1.75Z"/><path class="cls-57" d="M22.31,10.84A51.51,51.51,0,0,1,34.59,18c4.71,3.46,8.33,8.64,11,12,1.44,1.8,5.42,1.47,6.73-.58a5.82,5.82,0,0,0,0-5.4A57.45,57.45,0,0,0,39.77,11.82,54.33,54.33,0,0,0,24.66,3.65a3.44,3.44,0,0,0-3.87,1.57,3.81,3.81,0,0,0,1.52,5.62Z"/></svg>