<svg id="Layer_1" data-name="Layer 1" xmlns="http://www.w3.org/2000/svg" xmlns:xlink="http://www.w3.org/1999/xlink" viewBox="0 0 53 53"><defs><style>.cls-1{fill:url(#linear-gradient);}.cls-2{fill:url(#linear-gradient-2);}.cls-3{fill:url(#linear-gradient-3);}.cls-4{fill:url(#linear-gradient-4);}.cls-5{fill:url(#linear-gradient-5);}.cls-6{fill:url(#linear-gradient-6);}</style><linearGradient id="linear-gradient" x1="-2212.68" y1="-231.98" x2="-2207.78" y2="-236.89" gradientTransform="matrix(0.96, -0.3, -0.3, -0.96, 2079.71, -875.47)" gradientUnits="userSpaceOnUse"><stop offset="0" stop-color="#f9d862"/><stop offset="0.3" stop-color="#f7cc5b"/><stop offset="0.86" stop-color="#f3ae4a"/><stop offset="1" stop-color="#f2a546"/></linearGradient><linearGradient id="linear-gradient-2" x1="25.76" y1="-282.18" x2="25.76" y2="-283.66" gradientTransform="matrix(1, 0, 0, -1, 0.64, -231.52)" xlink:href="#linear-gradient"/><linearGradient id="linear-gradient-3" x1="20.19" y1="-261.6" x2="40.17" y2="-265.61" gradientTransform="matrix(1, 0, 0, -1, 0.64, -231.52)" gradientUnits="userSpaceOnUse"><stop offset="0" stop-color="#ec6d60"/><stop offset="0.22" stop-color="#eb6658"/><stop offset="0.6" stop-color="#e85543"/><stop offset="1" stop-color="#e4402b"/></linearGradient><linearGradient id="linear-gradient-4" x1="35.67" y1="-266.92" x2="21.31" y2="-236.77" gradientTransform="matrix(1, 0, 0, -1, 0.64, -231.52)" gradientUnits="userSpaceOnUse"><stop offset="0" stop-color="#e4402b" stop-opacity="0"/><stop offset="1" stop-color="#b03634"/></linearGradient><linearGradient id="linear-gradient-5" x1="25.76" y1="-241.39" x2="25.76" y2="-244.16" gradientTransform="matrix(1, 0, 0, -1, 0.64, -231.52)" gradientUnits="userSpaceOnUse"><stop offset="0" stop-color="#f7f5fa"/><stop offset="1" stop-color="#ebdcf8"/></linearGradient><linearGradient id="linear-gradient-6" x1="25.76" y1="-243.26" x2="25.76" y2="-247.11" xlink:href="#linear-gradient-5"/></defs><title>Суші штат_іконки_деталізовані</title><path class="cls-1" d="M36.87,2.17A1,1,0,0,1,36.13,4l-4.93-2a.93.93,0,0,0-.87.08,1,1,0,0,0-.45.75l-.81,10.41a1.56,1.56,0,0,1-1.66,1.44.45.45,0,0,1-.41-.48l.89-11.52A3,3,0,0,1,31.94.21l4.93,2Z"/><path class="cls-2" d="M34.18,53H18.82a1.34,1.34,0,0,1-1.34-1.34v-1.2h18v1.2A1.34,1.34,0,0,1,34.18,53Z"/><path class="cls-3" d="M33.29,51.63H19.71A3.71,3.71,0,0,1,16,48.27L11.83,14.35H41.17L37,48.27A3.71,3.71,0,0,1,33.29,51.63Z"/><path class="cls-4" d="M12.16,17.44,37.64,42.92l3.53-28.57H11.83Z"/><path class="cls-5" d="M38.7,14.35H14.3V12a1.28,1.28,0,0,1,1.28-1.28H37.42A1.28,1.28,0,0,1,38.7,12Z"/><path class="cls-6" d="M40,17.6H13a2.43,2.43,0,0,1-2.43-2.43V15A2.43,2.43,0,0,1,13,12.56H40A2.43,2.43,0,0,1,42.4,15v.18A2.43,2.43,0,0,1,40,17.6Z"/></svg>