<svg id="Layer_1" data-name="Layer 1" xmlns="http://www.w3.org/2000/svg" xmlns:xlink="http://www.w3.org/1999/xlink" viewBox="0 0 53 53"><defs><style>.cls-1{fill:url(#linear-gradient);}.cls-2{fill:url(#linear-gradient-2);}.cls-3{fill:url(#linear-gradient-3);}.cls-4{fill:url(#linear-gradient-4);}.cls-5{fill:url(#linear-gradient-5);}.cls-6{fill:url(#linear-gradient-6);}.cls-7{fill:url(#linear-gradient-7);}.cls-8{fill:url(#linear-gradient-8);}.cls-9{fill:url(#linear-gradient-9);}.cls-10{fill:url(#linear-gradient-10);}.cls-11{fill:url(#linear-gradient-11);}.cls-12{fill:url(#linear-gradient-12);}.cls-13{fill:url(#linear-gradient-13);}.cls-14{fill:url(#linear-gradient-14);}.cls-15{fill:url(#linear-gradient-15);}.cls-16{fill:url(#linear-gradient-16);}.cls-17{fill:url(#linear-gradient-17);}.cls-18{fill:url(#linear-gradient-18);}.cls-19{fill:url(#linear-gradient-19);}.cls-20{fill:url(#linear-gradient-20);}.cls-21{fill:url(#linear-gradient-21);}.cls-22{fill:url(#linear-gradient-22);}.cls-23{fill:url(#linear-gradient-23);}.cls-24{fill:url(#linear-gradient-24);}.cls-25{fill:url(#linear-gradient-25);}.cls-26{fill:url(#linear-gradient-26);}.cls-27{fill:url(#linear-gradient-27);}.cls-28{fill:url(#linear-gradient-28);}.cls-29{fill:url(#linear-gradient-29);}.cls-30{fill:url(#linear-gradient-30);}.cls-31{fill:url(#linear-gradient-31);}.cls-32{fill:url(#linear-gradient-32);}.cls-33{fill:url(#linear-gradient-33);}.cls-34{fill:url(#linear-gradient-34);}.cls-35{fill:url(#linear-gradient-35);}.cls-36{fill:url(#linear-gradient-36);}.cls-37{fill:url(#linear-gradient-37);}.cls-38{fill:url(#linear-gradient-38);}.cls-39{fill:url(#linear-gradient-39);}.cls-40{fill:url(#linear-gradient-40);}.cls-41{fill:url(#linear-gradient-41);}.cls-42{fill:url(#linear-gradient-42);}.cls-43{fill:url(#linear-gradient-43);}.cls-44{fill:url(#linear-gradient-44);}.cls-45{fill:url(#linear-gradient-45);}.cls-46{fill:url(#linear-gradient-46);}.cls-47{fill:url(#linear-gradient-47);}.cls-48{fill:url(#linear-gradient-48);}.cls-49{fill:url(#linear-gradient-49);}.cls-50{fill:url(#linear-gradient-50);}.cls-51{fill:url(#linear-gradient-51);}.cls-52{fill:url(#linear-gradient-52);}.cls-53{fill:url(#linear-gradient-53);}.cls-54{fill:url(#linear-gradient-54);}.cls-55{fill:url(#linear-gradient-55);}.cls-56{fill:url(#linear-gradient-56);}.cls-57{fill:url(#linear-gradient-57);}.cls-58{fill:url(#linear-gradient-58);}.cls-59{fill:url(#linear-gradient-59);}.cls-60{fill:url(#linear-gradient-60);}.cls-61{fill:url(#linear-gradient-61);}.cls-62{fill:url(#linear-gradient-62);}.cls-63{fill:url(#linear-gradient-63);}.cls-64{fill:url(#linear-gradient-64);}.cls-65{fill:url(#linear-gradient-65);}.cls-66{fill:url(#linear-gradient-66);}.cls-67{fill:url(#linear-gradient-67);}.cls-68{fill:url(#linear-gradient-68);}.cls-69{fill:url(#linear-gradient-69);}.cls-70{fill:url(#linear-gradient-70);}.cls-71{fill:url(#linear-gradient-71);}.cls-72{fill:url(#linear-gradient-72);}.cls-73{fill:url(#linear-gradient-73);}.cls-74{fill:url(#linear-gradient-74);}.cls-75{fill:url(#linear-gradient-75);}.cls-76{fill:url(#linear-gradient-76);}.cls-77{fill:url(#linear-gradient-77);}.cls-78{fill:url(#linear-gradient-78);}.cls-79{fill:url(#linear-gradient-79);}.cls-80{fill:url(#linear-gradient-80);}.cls-81{fill:url(#linear-gradient-81);}</style><linearGradient id="linear-gradient" x1="26.17" y1="-274.53" x2="26.41" y2="-278.58" gradientTransform="matrix(1, 0, 0, -1, 0.35, -231.52)" gradientUnits="userSpaceOnUse"><stop offset="0" stop-color="#f7f5fa"/><stop offset="1" stop-color="#ebdcf8"/></linearGradient><linearGradient id="linear-gradient-2" x1="21.71" y1="-249.1" x2="37.42" y2="-272.52" xlink:href="#linear-gradient"/><linearGradient id="linear-gradient-3" x1="22.36" y1="-237.5" x2="26.61" y2="-254.64" xlink:href="#linear-gradient"/><linearGradient id="linear-gradient-4" x1="26.72" y1="-235.74" x2="26.72" y2="-245.38" gradientTransform="matrix(1, 0, 0, -1, 0.35, -231.52)" gradientUnits="userSpaceOnUse"><stop offset="0" stop-color="#c0d645"/><stop offset="0.23" stop-color="#b5ca41"/><stop offset="0.64" stop-color="#99ab35"/><stop offset="1" stop-color="#7d8929"/></linearGradient><linearGradient id="linear-gradient-5" x1="38.72" y1="-242.73" x2="39.79" y2="-244.86" gradientTransform="matrix(1, 0, 0, -1, 0.35, -231.52)" gradientUnits="userSpaceOnUse"><stop offset="0" stop-color="#867987"/><stop offset="0.33" stop-color="#827483"/><stop offset="0.7" stop-color="#78677a"/><stop offset="1" stop-color="#6a576c"/></linearGradient><linearGradient id="linear-gradient-6" x1="21.22" y1="-240.74" x2="22.36" y2="-243.03" xlink:href="#linear-gradient-5"/><linearGradient id="linear-gradient-7" x1="23.88" y1="-248.88" x2="21.46" y2="-234.66" gradientTransform="matrix(1, 0, 0, -1, 0.35, -231.52)" gradientUnits="userSpaceOnUse"><stop offset="0" stop-color="#7d8929" stop-opacity="0"/><stop offset="0.65" stop-color="#58601a" stop-opacity="0.65"/><stop offset="1" stop-color="#484e13"/></linearGradient><linearGradient id="linear-gradient-8" x1="26.02" y1="-265.84" x2="26.02" y2="-216.76" gradientTransform="matrix(1, 0, 0, -1, 0.35, -231.52)" gradientUnits="userSpaceOnUse"><stop offset="0" stop-color="#ebdcf8" stop-opacity="0"/><stop offset="0.03" stop-color="#e5d6f4" stop-opacity="0.03"/><stop offset="0.22" stop-color="#c1b5da" stop-opacity="0.22"/><stop offset="0.41" stop-color="#a69cc6" stop-opacity="0.41"/><stop offset="0.61" stop-color="#9289b8" stop-opacity="0.61"/><stop offset="0.8" stop-color="#867fb0" stop-opacity="0.8"/><stop offset="1" stop-color="#827bad"/></linearGradient><linearGradient id="linear-gradient-9" x1="34.92" y1="-265.44" x2="39.27" y2="-268.33" gradientTransform="matrix(1, 0, 0, -1, 0.35, -231.52)" gradientUnits="userSpaceOnUse"><stop offset="0" stop-color="#ec6d60"/><stop offset="0.22" stop-color="#eb6658"/><stop offset="0.6" stop-color="#e85543"/><stop offset="1" stop-color="#e4402b"/></linearGradient><linearGradient id="linear-gradient-10" x1="33.68" y1="-247.15" x2="34.59" y2="-257.73" xlink:href="#linear-gradient-4"/><linearGradient id="linear-gradient-11" x1="-252.83" y1="-910.81" x2="-248.65" y2="-919.34" gradientTransform="matrix(0.71, 0.71, 0.71, -0.71, 849.02, -461.07)" gradientUnits="userSpaceOnUse"><stop offset="0" stop-color="#f9d862"/><stop offset="0.31" stop-color="#f8d560"/><stop offset="0.56" stop-color="#f7cb5a"/><stop offset="0.78" stop-color="#f4bb51"/><stop offset="0.99" stop-color="#f2a646"/><stop offset="1" stop-color="#f2a546"/></linearGradient><linearGradient id="linear-gradient-12" x1="1627.97" y1="-459.93" x2="1631.45" y2="-467.02" gradientTransform="matrix(-0.71, -0.71, -0.71, 0.71, 847.94, 1500.16)" xlink:href="#linear-gradient-11"/><linearGradient id="linear-gradient-13" x1="39.75" y1="-240.96" x2="43.4" y2="-248.43" xlink:href="#linear-gradient-9"/><linearGradient id="linear-gradient-14" x1="49.24" y1="-253.28" x2="40.38" y2="-244.42" xlink:href="#linear-gradient-9"/><linearGradient id="linear-gradient-15" x1="-1331.16" y1="-786.48" x2="-1329.83" y2="-788.33" gradientTransform="matrix(0.38, 0.93, 0.93, -0.38, 1263.32, 951.33)" xlink:href="#linear-gradient-9"/><linearGradient id="linear-gradient-16" x1="-1330.6" y1="-789.65" x2="-1329.97" y2="-790.53" gradientTransform="matrix(0.38, 0.93, 0.93, -0.38, 1263.32, 951.33)" xlink:href="#linear-gradient-9"/><linearGradient id="linear-gradient-17" x1="-1329.47" y1="-786.78" x2="-1328.84" y2="-787.66" gradientTransform="matrix(0.38, 0.93, 0.93, -0.38, 1263.32, 951.33)" xlink:href="#linear-gradient-9"/><linearGradient id="linear-gradient-18" x1="-1329.57" y1="-784.69" x2="-1328.94" y2="-785.57" gradientTransform="matrix(0.38, 0.93, 0.93, -0.38, 1263.32, 951.33)" xlink:href="#linear-gradient-9"/><linearGradient id="linear-gradient-19" x1="-1329.88" y1="-789.73" x2="-1328.89" y2="-791.1" gradientTransform="matrix(0.38, 0.93, 0.93, -0.38, 1263.32, 951.33)" xlink:href="#linear-gradient-9"/><linearGradient id="linear-gradient-20" x1="-1330.8" y1="-788.07" x2="-1330.02" y2="-789.14" gradientTransform="matrix(0.38, 0.93, 0.93, -0.38, 1263.32, 951.33)" xlink:href="#linear-gradient-9"/><linearGradient id="linear-gradient-21" x1="-1330.76" y1="-785.31" x2="-1329.98" y2="-786.39" gradientTransform="matrix(0.38, 0.93, 0.93, -0.38, 1263.32, 951.33)" xlink:href="#linear-gradient-9"/><linearGradient id="linear-gradient-22" x1="-1330.04" y1="-787.67" x2="-1329.57" y2="-788.32" gradientTransform="matrix(0.38, 0.93, 0.93, -0.38, 1263.32, 951.33)" xlink:href="#linear-gradient-9"/><linearGradient id="linear-gradient-23" x1="-243.23" y1="-906" x2="-239.37" y2="-913.88" xlink:href="#linear-gradient-11"/><linearGradient id="linear-gradient-24" x1="1618.8" y1="-465.62" x2="1622.01" y2="-472.17" gradientTransform="matrix(-0.71, -0.71, -0.71, 0.71, 847.94, 1500.16)" xlink:href="#linear-gradient-11"/><linearGradient id="linear-gradient-25" x1="-797.53" y1="56.38" x2="-794" y2="49.18" gradientTransform="matrix(0.97, 0.27, 0.27, -0.97, 772.14, 279.94)" xlink:href="#linear-gradient-9"/><linearGradient id="linear-gradient-26" x1="-238.84" y1="-899.82" x2="-234.36" y2="-908.98" gradientTransform="matrix(0.71, 0.71, 0.71, -0.71, 849.02, -461.07)" gradientUnits="userSpaceOnUse"><stop offset="0" stop-color="#f9ded0"/><stop offset="0.38" stop-color="#f4c5b2"/><stop offset="0.77" stop-color="#efb09a"/><stop offset="1" stop-color="#eda892"/></linearGradient><linearGradient id="linear-gradient-27" x1="1613.57" y1="-470.06" x2="1617.3" y2="-477.68" gradientTransform="matrix(-0.71, -0.71, -0.71, 0.71, 847.94, 1500.16)" xlink:href="#linear-gradient-26"/><linearGradient id="linear-gradient-28" x1="-257.62" y1="-921.81" x2="-253.8" y2="-929.62" xlink:href="#linear-gradient-26"/><linearGradient id="linear-gradient-29" x1="1633.24" y1="-449.9" x2="1636.42" y2="-456.4" gradientTransform="matrix(-0.71, -0.71, -0.71, 0.71, 847.94, 1500.16)" xlink:href="#linear-gradient-26"/><linearGradient id="linear-gradient-30" x1="33.68" y1="-247.15" x2="34.59" y2="-257.73" xlink:href="#linear-gradient-4"/><linearGradient id="linear-gradient-31" x1="38.14" y1="-252.53" x2="37.73" y2="-235.61" xlink:href="#linear-gradient-7"/><linearGradient id="linear-gradient-32" x1="33.94" y1="-257.4" x2="22.99" y2="-248.81" xlink:href="#linear-gradient-7"/><linearGradient id="linear-gradient-33" x1="31.66" y1="-250.18" x2="32.82" y2="-252.5" xlink:href="#linear-gradient-5"/><linearGradient id="linear-gradient-34" x1="41.74" y1="-250.19" x2="42.94" y2="-252.59" xlink:href="#linear-gradient-5"/><linearGradient id="linear-gradient-35" x1="596.24" y1="-1824.14" x2="597.23" y2="-1825.51" gradientTransform="matrix(0.75, 0.67, 0.67, -0.75, 808.11, -1750.03)" xlink:href="#linear-gradient-26"/><linearGradient id="linear-gradient-36" x1="595.41" y1="-1824.93" x2="596.19" y2="-1826.01" gradientTransform="matrix(0.75, 0.67, 0.67, -0.75, 808.11, -1750.03)" xlink:href="#linear-gradient-26"/><linearGradient id="linear-gradient-37" x1="596.05" y1="-1826.37" x2="596.52" y2="-1827.02" gradientTransform="matrix(0.75, 0.67, 0.67, -0.75, 808.11, -1750.03)" xlink:href="#linear-gradient-26"/><linearGradient id="linear-gradient-38" x1="598.46" y1="-1826.47" x2="599.45" y2="-1827.84" gradientTransform="matrix(0.75, 0.67, 0.67, -0.75, 808.11, -1750.03)" xlink:href="#linear-gradient-26"/><linearGradient id="linear-gradient-39" x1="600.01" y1="-1823.73" x2="600.8" y2="-1824.81" gradientTransform="matrix(0.75, 0.67, 0.67, -0.75, 808.11, -1750.03)" xlink:href="#linear-gradient-26"/><linearGradient id="linear-gradient-40" x1="597.52" y1="-1824.22" x2="597.99" y2="-1824.87" gradientTransform="matrix(0.75, 0.67, 0.67, -0.75, 808.11, -1750.03)" xlink:href="#linear-gradient-26"/><linearGradient id="linear-gradient-41" x1="597.16" y1="-1825.71" x2="597.89" y2="-1826.72" gradientTransform="matrix(0.75, 0.67, 0.67, -0.75, 808.11, -1750.03)" xlink:href="#linear-gradient-26"/><linearGradient id="linear-gradient-42" x1="597.38" y1="-1824.96" x2="597.96" y2="-1825.76" gradientTransform="matrix(0.75, 0.67, 0.67, -0.75, 808.11, -1750.03)" xlink:href="#linear-gradient-26"/><linearGradient id="linear-gradient-43" x1="596.55" y1="-1825.27" x2="596.9" y2="-1825.75" gradientTransform="matrix(0.75, 0.67, 0.67, -0.75, 808.11, -1750.03)" xlink:href="#linear-gradient-26"/><linearGradient id="linear-gradient-44" x1="602.66" y1="-1822.19" x2="603.64" y2="-1823.56" gradientTransform="matrix(0.75, 0.67, 0.67, -0.75, 808.11, -1750.03)" xlink:href="#linear-gradient-26"/><linearGradient id="linear-gradient-45" x1="601.67" y1="-1825.95" x2="602.45" y2="-1827.03" gradientTransform="matrix(0.75, 0.67, 0.67, -0.75, 808.11, -1750.03)" xlink:href="#linear-gradient-26"/><linearGradient id="linear-gradient-46" x1="601.15" y1="-1824.51" x2="601.62" y2="-1825.16" gradientTransform="matrix(0.75, 0.67, 0.67, -0.75, 808.11, -1750.03)" xlink:href="#linear-gradient-26"/><linearGradient id="linear-gradient-47" x1="605.02" y1="-1822.88" x2="606.01" y2="-1824.25" gradientTransform="matrix(0.75, 0.67, 0.67, -0.75, 808.11, -1750.03)" xlink:href="#linear-gradient-26"/><linearGradient id="linear-gradient-48" x1="604.67" y1="-1822.18" x2="605.45" y2="-1823.27" gradientTransform="matrix(0.75, 0.67, 0.67, -0.75, 808.11, -1750.03)" xlink:href="#linear-gradient-26"/><linearGradient id="linear-gradient-49" x1="603.94" y1="-1822.27" x2="604.41" y2="-1822.92" gradientTransform="matrix(0.75, 0.67, 0.67, -0.75, 808.11, -1750.03)" xlink:href="#linear-gradient-26"/><linearGradient id="linear-gradient-50" x1="602.74" y1="-1824.89" x2="603.47" y2="-1825.9" gradientTransform="matrix(0.75, 0.67, 0.67, -0.75, 808.11, -1750.03)" xlink:href="#linear-gradient-26"/><linearGradient id="linear-gradient-51" x1="603.79" y1="-1823.01" x2="604.37" y2="-1823.81" gradientTransform="matrix(0.75, 0.67, 0.67, -0.75, 808.11, -1750.03)" xlink:href="#linear-gradient-26"/><linearGradient id="linear-gradient-52" x1="602.97" y1="-1823.32" x2="603.31" y2="-1823.8" gradientTransform="matrix(0.75, 0.67, 0.67, -0.75, 808.11, -1750.03)" xlink:href="#linear-gradient-26"/><linearGradient id="linear-gradient-53" x1="25.59" y1="-249.85" x2="28.15" y2="-257.94" xlink:href="#linear-gradient"/><linearGradient id="linear-gradient-54" x1="25.32" y1="-250.14" x2="32.37" y2="-283.38" xlink:href="#linear-gradient-8"/><linearGradient id="linear-gradient-55" x1="21.11" y1="-248.2" x2="27.12" y2="-254.39" gradientTransform="matrix(1, 0, 0, -1, 0.35, -231.52)" xlink:href="#linear-gradient-11"/><linearGradient id="linear-gradient-56" x1="14.12" y1="-251.46" x2="13.94" y2="-259.4" xlink:href="#linear-gradient-4"/><linearGradient id="linear-gradient-57" x1="44.79" y1="-259.36" x2="39.24" y2="-253.8" xlink:href="#linear-gradient-7"/><linearGradient id="linear-gradient-58" x1="39.48" y1="-252.79" x2="40.89" y2="-255.67" xlink:href="#linear-gradient-9"/><linearGradient id="linear-gradient-59" x1="36.49" y1="-254.39" x2="37.58" y2="-257.4" gradientTransform="matrix(1, 0, 0, -1, 0.35, -231.52)" gradientUnits="userSpaceOnUse"><stop offset="0" stop-color="#f2aa50"/><stop offset="0.41" stop-color="#ef8a56"/><stop offset="0.78" stop-color="#ed755d"/><stop offset="1" stop-color="#ec6d60"/></linearGradient><linearGradient id="linear-gradient-60" x1="16.45" y1="-257.67" x2="16.48" y2="-251.88" xlink:href="#linear-gradient-7"/><linearGradient id="linear-gradient-61" x1="9.44" y1="-249.23" x2="10.58" y2="-251.51" xlink:href="#linear-gradient-5"/><linearGradient id="linear-gradient-62" x1="13.89" y1="-251.51" x2="16.63" y2="-257.13" gradientTransform="matrix(1, 0, 0, -1, 0.35, -231.52)" xlink:href="#linear-gradient-26"/><linearGradient id="linear-gradient-63" x1="18.25" y1="-258.09" x2="11.48" y2="-251.33" gradientTransform="matrix(1, 0, 0, -1, 0.35, -231.52)" xlink:href="#linear-gradient-26"/><linearGradient id="linear-gradient-64" x1="15.85" y1="-243.23" x2="16.83" y2="-244.59" gradientTransform="matrix(1, 0, 0, -1, 0.35, -231.52)" xlink:href="#linear-gradient-26"/><linearGradient id="linear-gradient-65" x1="15.01" y1="-244" x2="15.79" y2="-245.08" gradientTransform="matrix(1, 0, 0, -1, 0.35, -231.52)" xlink:href="#linear-gradient-26"/><linearGradient id="linear-gradient-66" x1="15.66" y1="-245.43" x2="16.12" y2="-246.08" gradientTransform="matrix(1, 0, 0, -1, 0.35, -231.52)" xlink:href="#linear-gradient-26"/><linearGradient id="linear-gradient-67" x1="18.07" y1="-245.53" x2="19.05" y2="-246.89" gradientTransform="matrix(1, 0, 0, -1, 0.35, -231.52)" xlink:href="#linear-gradient-26"/><linearGradient id="linear-gradient-68" x1="19.62" y1="-242.82" x2="20.4" y2="-243.89" gradientTransform="matrix(1, 0, 0, -1, 0.35, -231.52)" xlink:href="#linear-gradient-26"/><linearGradient id="linear-gradient-69" x1="17.13" y1="-243.31" x2="17.6" y2="-243.95" gradientTransform="matrix(1, 0, 0, -1, 0.35, -231.52)" xlink:href="#linear-gradient-26"/><linearGradient id="linear-gradient-70" x1="16.76" y1="-244.78" x2="17.49" y2="-245.79" gradientTransform="matrix(1, 0, 0, -1, 0.35, -231.52)" xlink:href="#linear-gradient-26"/><linearGradient id="linear-gradient-71" x1="16.99" y1="-244.03" x2="17.56" y2="-244.83" gradientTransform="matrix(1, 0, 0, -1, 0.35, -231.52)" xlink:href="#linear-gradient-26"/><linearGradient id="linear-gradient-72" x1="16.16" y1="-244.34" x2="16.5" y2="-244.82" gradientTransform="matrix(1, 0, 0, -1, 0.35, -231.52)" xlink:href="#linear-gradient-26"/><linearGradient id="linear-gradient-73" x1="22.26" y1="-241.3" x2="23.24" y2="-242.66" gradientTransform="matrix(1, 0, 0, -1, 0.35, -231.52)" xlink:href="#linear-gradient-26"/><linearGradient id="linear-gradient-74" x1="21.27" y1="-245.02" x2="22.05" y2="-246.09" gradientTransform="matrix(1, 0, 0, -1, 0.35, -231.52)" xlink:href="#linear-gradient-26"/><linearGradient id="linear-gradient-75" x1="20.76" y1="-243.59" x2="21.22" y2="-244.24" gradientTransform="matrix(1, 0, 0, -1, 0.35, -231.52)" xlink:href="#linear-gradient-26"/><linearGradient id="linear-gradient-76" x1="24.63" y1="-241.98" x2="25.61" y2="-243.34" gradientTransform="matrix(1, 0, 0, -1, 0.35, -231.52)" xlink:href="#linear-gradient-26"/><linearGradient id="linear-gradient-77" x1="24.27" y1="-241.29" x2="25.05" y2="-242.36" gradientTransform="matrix(1, 0, 0, -1, 0.35, -231.52)" xlink:href="#linear-gradient-26"/><linearGradient id="linear-gradient-78" x1="23.54" y1="-241.38" x2="24.01" y2="-242.03" gradientTransform="matrix(1, 0, 0, -1, 0.35, -231.52)" xlink:href="#linear-gradient-26"/><linearGradient id="linear-gradient-79" x1="22.34" y1="-243.97" x2="23.07" y2="-244.97" gradientTransform="matrix(1, 0, 0, -1, 0.35, -231.52)" xlink:href="#linear-gradient-26"/><linearGradient id="linear-gradient-80" x1="23.4" y1="-242.11" x2="23.97" y2="-242.9" gradientTransform="matrix(1, 0, 0, -1, 0.35, -231.52)" xlink:href="#linear-gradient-26"/><linearGradient id="linear-gradient-81" x1="22.57" y1="-242.41" x2="22.92" y2="-242.89" gradientTransform="matrix(1, 0, 0, -1, 0.35, -231.52)" xlink:href="#linear-gradient-26"/></defs><title>Суші штат_іконки_деталізовані</title><path class="cls-1" d="M26.47,43.88a28.72,28.72,0,0,1-11.56-2.26c.45,2.34,1.3,4.12,2.35,4.69a19.77,19.77,0,0,0,9.21,2.07,19.76,19.76,0,0,0,9.2-2.07c1-.57,1.9-2.35,2.35-4.69A28.71,28.71,0,0,1,26.47,43.88Z"/><path class="cls-2" d="M53,21.72c0-9.65-53.1-9.65-53.1,0S6.16,45.54,26.47,45.54,53,31.38,53,21.72Z"/><path class="cls-3" d="M53,21.72c0,9.66-53.1,9.66-53.1,0S53,12.07,53,21.72Z"/><path class="cls-4" d="M45.62,14.73C45.62,25,8.73,25,8.73,14.73c0-1.78,1.09-3.25,2.91-4.42a5.5,5.5,0,0,0,1.78-2l.05-.1c1.11-2,2.71-2.59,4.1-1.46h0c1.19,1,2.55.72,3.62-.69l.1-.14C22.48,4.33,24,4.2,25.24,5.55l.1.1a2.28,2.28,0,0,0,3.67,0l.1-.11c1.24-1.35,2.76-1.22,4,.33l.12.17c1.07,1.4,2.42,1.65,3.6.66,1.38-1.15,3-.59,4.08,1.42l.07.14a5.5,5.5,0,0,0,1.78,2C44.53,11.48,45.62,13,45.62,14.73Z"/><path class="cls-5" d="M40.16,12.25A1.79,1.79,0,1,0,42,14,1.79,1.79,0,0,0,40.16,12.25Zm0,2.55a.76.76,0,1,1,0-1.52.76.76,0,1,1,0,1.52Z"/><path class="cls-6" d="M22.65,10.25a1.93,1.93,0,1,0,1.93,1.93,1.92,1.92,0,0,0-1.93-1.93Zm0,2.75a.82.82,0,0,1,0-1.64.82.82,0,0,1,0,1.64Z"/><path class="cls-7" d="M35.24,21.77,24.18,7.28A5.68,5.68,0,0,0,21.8,5.62c-.18.16-.34,0-.51.26l-.1.14c-1.07,1.41-2.43,1.67-3.62.69h0a1.77,1.77,0,0,0-1.25-.36,6.06,6.06,0,0,0-1.08,1.07,10.08,10.08,0,0,0-.12,11.71l1.61,2.1a45.61,45.61,0,0,0,18.51.54Z"/><path class="cls-8" d="M50.82,21.72c0,7.12-48.71,7.12-48.71,0S50.82,14.61,50.82,21.72Z"/><path class="cls-9" d="M.58,27.32A24.26,24.26,0,0,0,2,31.65c9.13,5.22,39.72,5.22,48.85,0a24.26,24.26,0,0,0,1.46-4.33c-7.05,6.61-44.72,6.61-51.77,0Z"/><path class="cls-10" d="M50.8,21.45a4.46,4.46,0,0,1-.39,1.37c-.79,1-2.66,1.82-5.22,2.47-1.4.35-3,0-4.76.22-1.59.22-3.3,1.08-5.08,1.22-2.74.21-5.65.32-8.56.33-2.59,0-8.16-1.32-8.21-2a5.41,5.41,0,0,1,2.21-4.46,3.81,3.81,0,0,0,.48-.5,6.2,6.2,0,0,0,.92-1.62l0-.1a3.81,3.81,0,0,1,1.54-2,1.68,1.68,0,0,1,1.63,0l.31.18h0a1.8,1.8,0,0,0,2.4-.17,4.05,4.05,0,0,0,.71-.91l.08-.14c.91-1.59,2.23-1.89,3.42-.78l.09.08c1.09,1,2.3.85,3.21-.44l.08-.11c1-1.41,2.32-1.47,3.47-.17l.12.14c1,1.18,2.24,1.25,3.19.19A2,2,0,0,1,44,13.51a2.83,2.83,0,0,1,2.2,1.58l.08.11a4.62,4.62,0,0,0,1.7,1.69,4.68,4.68,0,0,1,2.88,3.76,4.27,4.27,0,0,1,0,.8Z"/><path class="cls-11" d="M26.15,7.14a7.41,7.41,0,0,0-10.69,0,8,8,0,0,0,0,11,7.41,7.41,0,0,0,10.69,0A8,8,0,0,0,26.15,7.14Zm-8.74,9a5.06,5.06,0,0,1,0-7,4.71,4.71,0,0,1,6.79,0,5.06,5.06,0,0,1,0,7,4.71,4.71,0,0,1-6.79,0Z"/><path class="cls-12" d="M16.36,17.23a6.17,6.17,0,0,0,8.89,0,6.61,6.61,0,0,0,0-9.16,6.16,6.16,0,0,0-8.89,0A6.61,6.61,0,0,0,16.36,17.23ZM24.2,9.15a5.06,5.06,0,0,1,0,7,4.71,4.71,0,0,1-6.79,0,5.06,5.06,0,0,1,0-7,4.71,4.71,0,0,1,6.79,0Z"/><path class="cls-13" d="M48,11.21a7.52,7.52,0,0,0-10.14,0,6.4,6.4,0,0,0,0,9.48,7.54,7.54,0,0,0,10.14,0A6.4,6.4,0,0,0,48,11.21ZM39.75,19a4.08,4.08,0,0,1,0-6,4.79,4.79,0,0,1,6.44,0,4.06,4.06,0,0,1,0,6,4.79,4.79,0,0,1-6.44,0Z"/><path class="cls-14" d="M38.76,19.89a6.25,6.25,0,0,0,8.43,0,5.32,5.32,0,0,0,0-7.88,6.25,6.25,0,0,0-8.43,0A5.32,5.32,0,0,0,38.76,19.89Zm7.43-7a4.06,4.06,0,0,1,0,6,4.79,4.79,0,0,1-6.44,0,4.08,4.08,0,0,1,0-6,4.79,4.79,0,0,1,6.44,0Z"/><path class="cls-15" d="M30.43,7.55a.48.48,0,1,0,0-1,.47.47,0,0,0-.48.49A.49.49,0,0,0,30.43,7.55Z"/><path class="cls-16" d="M28.12,8.45a.24.24,0,0,0-.25-.22.23.23,0,0,0-.23.23.24.24,0,0,0,.25.22A.23.23,0,0,0,28.12,8.45Z"/><path class="cls-17" d="M31.18,8.33a.23.23,0,0,0-.32-.1.22.22,0,0,0-.09.31.24.24,0,0,0,.32.09A.21.21,0,0,0,31.18,8.33Z"/><path class="cls-18" d="M33.1,7.44a.24.24,0,0,0-.32-.09.22.22,0,0,0-.1.31.24.24,0,0,0,.32.09A.22.22,0,0,0,33.1,7.44Z"/><path class="cls-19" d="M28.25,9.09a.38.38,0,0,0-.52,0,.34.34,0,0,0,0,.5.37.37,0,0,0,.52,0A.33.33,0,0,0,28.25,9.09Z"/><path class="cls-20" d="M29.45,7.55a.3.3,0,0,0-.41,0,.27.27,0,0,0,0,.39.31.31,0,0,0,.41,0A.27.27,0,0,0,29.45,7.55Z"/><path class="cls-21" d="M32,6.56a.31.31,0,0,0-.42,0,.27.27,0,0,0,0,.39A.3.3,0,0,0,32,7,.27.27,0,0,0,32,6.56Z"/><path class="cls-22" d="M29.86,8.27a.18.18,0,0,0,.25,0,.16.16,0,0,0,0-.23.18.18,0,0,0-.25,0A.15.15,0,0,0,29.86,8.27Z"/><path class="cls-23" d="M36.33,10.48a7.3,7.3,0,0,0-10.23,0,7.09,7.09,0,0,0,0,10.12,7.3,7.3,0,0,0,10.23,0A7.11,7.11,0,0,0,36.33,10.48ZM28,18.75a4.51,4.51,0,0,1,0-6.42,4.62,4.62,0,0,1,6.5,0,4.51,4.51,0,0,1,0,6.42A4.62,4.62,0,0,1,28,18.75Z"/><path class="cls-24" d="M27,19.75a6.07,6.07,0,0,0,8.51,0,5.91,5.91,0,0,0,0-8.42,6.07,6.07,0,0,0-8.51,0A5.9,5.9,0,0,0,27,19.75Zm7.5-7.42a4.51,4.51,0,0,1,0,6.42,4.62,4.62,0,0,1-6.5,0,4.51,4.51,0,0,1,0-6.42A4.62,4.62,0,0,1,34.46,12.33Z"/><path class="cls-25" d="M23.5,20.78c-1.06,4.46-14.88,0-13.82-4.49s5-7.07,8.83-5.83,6,5.86,5,10.32Z"/><path class="cls-26" d="M44,9.34a7.63,7.63,0,0,0-11.21,0,8.71,8.71,0,0,0,0,11.85,7.63,7.63,0,0,0,11.21,0A8.71,8.71,0,0,0,44,9.34ZM34.8,19a5.54,5.54,0,0,1,0-7.52,4.85,4.85,0,0,1,7.13,0,5.54,5.54,0,0,1,0,7.52A4.85,4.85,0,0,1,34.8,19Z"/><path class="cls-27" d="M33.7,20.2a6.35,6.35,0,0,0,9.33,0,7.25,7.25,0,0,0,0-9.86,6.35,6.35,0,0,0-9.33,0A7.25,7.25,0,0,0,33.7,20.2Zm8.23-8.69a5.54,5.54,0,0,1,0,7.52,4.85,4.85,0,0,1-7.13,0,5.54,5.54,0,0,1,0-7.52A4.85,4.85,0,0,1,41.93,11.51Z"/><path class="cls-28" d="M14.5,11.44a6.33,6.33,0,0,0-9.42,0,7.53,7.53,0,0,0,0,10.11,6.35,6.35,0,0,0,9.42,0A7.53,7.53,0,0,0,14.5,11.44ZM6.8,19.71a4.8,4.8,0,0,1,0-6.43,4,4,0,0,1,6,0,4.78,4.78,0,0,1,0,6.43,4,4,0,0,1-6,0Z"/><path class="cls-29" d="M5.87,20.7a5.29,5.29,0,0,0,7.84,0,6.27,6.27,0,0,0,0-8.41,5.27,5.27,0,0,0-7.84,0A6.27,6.27,0,0,0,5.87,20.7Zm6.91-7.42a4.77,4.77,0,0,1,0,6.43,4,4,0,0,1-6,0,4.78,4.78,0,0,1,0-6.42A4,4,0,0,1,12.78,13.28Z"/><path class="cls-30" d="M50.8,21.45a4.46,4.46,0,0,1-.39,1.37c-.79,1-2.66,1.82-5.23,2.47-1.48.37-3.19-.13-5.06.13-1.51.2-3.11,1.18-4.77,1.31-2.74.21-5.65.32-8.56.33-2.59,0-8.16-1.32-8.21-2a5.41,5.41,0,0,1,2.21-4.46,3.81,3.81,0,0,0,.48-.5,6.2,6.2,0,0,0,.92-1.62l0-.1a3.81,3.81,0,0,1,1.54-2,1.68,1.68,0,0,1,1.63,0l.31.18h0a1.8,1.8,0,0,0,2.4-.17,4.05,4.05,0,0,0,.71-.91l.08-.14c.91-1.59,2.23-1.89,3.42-.78l.09.08c1.09,1,2.3.85,3.21-.44l.08-.11c1-1.41,2.32-1.47,3.47-.17l.12.14c1,1.18,2.24,1.25,3.19.19A2,2,0,0,1,44,13.51a2.83,2.83,0,0,1,2.2,1.58l.08.11a4.62,4.62,0,0,0,1.7,1.69,4.68,4.68,0,0,1,2.88,3.76,4.27,4.27,0,0,1,0,.8Z"/><path class="cls-31" d="M26.55,26.9l.09.16c3,0,5.92-.11,8.69-.33,1.74-.13,3.41-.85,5-1.07,1.81-.25,3.46,0,4.89-.37,2.57-.65,4.44-1.47,5.23-2.47a4.46,4.46,0,0,0,.39-1.37,4.27,4.27,0,0,0,0-.8c0-.06,0-.12,0-.18a2.78,2.78,0,0,0-2.14-2.54A2.57,2.57,0,0,1,47.19,17l-.12-.14c-1.15-1.3-2.49-1.24-3.48.17l-.07.11c-.91,1.29-2.12,1.46-3.21.44l-.09-.08c-1.19-1.11-2.51-.81-3.43.78l-.08.14a3.76,3.76,0,0,1-.7.91,1.81,1.81,0,0,1-2.41.17h0a2.38,2.38,0,0,0-.3-.18,1.71,1.71,0,0,0-1.63,0,3.76,3.76,0,0,0-1.54,2l0,.1a6.2,6.2,0,0,1-.92,1.62,3.81,3.81,0,0,1-.48.5,6,6,0,0,0-2.14,3.31Z"/><path class="cls-32" d="M41.26,25.89c-1.86.29-3.72.49-5.92.84-2.74.21-5.64.32-8.55.33-2.59,0-8.16-1.32-8.21-2a5.41,5.41,0,0,1,2.21-4.46,3.81,3.81,0,0,0,.48-.5,6.2,6.2,0,0,0,.92-1.62l0-.1a3.81,3.81,0,0,1,1.54-2,1.68,1.68,0,0,1,1.63,0l.31.18h0a1.8,1.8,0,0,0,2.4-.17,4.05,4.05,0,0,0,.71-.91l.08-.14c.91-1.59,2.23-1.89,3.42-.78l.09.08a2.64,2.64,0,0,0,.58.42Z"/><path class="cls-33" d="M33.15,19.72a2,2,0,1,0,1.93,2,1.94,1.94,0,0,0-1.93-2Zm0,2.8a.83.83,0,0,1-.81-.84.82.82,0,1,1,1.63,0A.83.83,0,0,1,33.15,22.52Z"/><path class="cls-34" d="M43.3,19.72a2,2,0,1,0,1.93,2,2,2,0,0,0-1.93-2Zm0,2.91a.84.84,0,0,1-.81-.87.82.82,0,1,1,1.63,0A.84.84,0,0,1,43.3,22.63Z"/><path class="cls-35" d="M32.68,14.42a.36.36,0,0,0,.15-.49.35.35,0,0,0-.48-.14.34.34,0,0,0-.15.48A.36.36,0,0,0,32.68,14.42Z"/><path class="cls-36" d="M31.63,13.88a.3.3,0,0,0-.39-.12.29.29,0,0,0-.11.39.28.28,0,0,0,.38.11A.28.28,0,0,0,31.63,13.88Z"/><path class="cls-37" d="M31.06,15.28a.16.16,0,0,0-.23-.07.16.16,0,0,0-.07.23.18.18,0,0,0,.23.07A.18.18,0,0,0,31.06,15.28Z"/><path class="cls-38" d="M32.83,17a.36.36,0,0,0-.5.09.36.36,0,1,0,.58.41A.36.36,0,0,0,32.83,17Z"/><path class="cls-39" d="M35.79,16a.29.29,0,0,0-.4.07.28.28,0,0,0,.46.33A.29.29,0,0,0,35.79,16Z"/><path class="cls-40" d="M33.55,14.59a.19.19,0,0,0-.24,0,.17.17,0,0,0,0,.24.17.17,0,0,0,.24,0A.19.19,0,0,0,33.55,14.59Z"/><path class="cls-41" d="M32.26,15.5a.26.26,0,1,0-.19.49.25.25,0,0,0,.34-.15A.26.26,0,0,0,32.26,15.5Z"/><path class="cls-42" d="M32.92,15.05a.21.21,0,1,0,.12.27A.21.21,0,0,0,32.92,15.05Z"/><path class="cls-43" d="M32,14.92a.13.13,0,0,0,.16-.08.14.14,0,0,0-.07-.16.14.14,0,0,0-.17.07A.14.14,0,0,0,32,14.92Z"/><path class="cls-44" d="M38.78,17.25a.34.34,0,0,0,.15-.48.36.36,0,1,0-.15.48Z"/><path class="cls-45" d="M35.62,18.84a.28.28,0,0,0-.38-.12.29.29,0,0,0-.12.38.3.3,0,0,0,.39.12A.27.27,0,0,0,35.62,18.84Z"/><path class="cls-46" d="M36.12,17.3a.16.16,0,0,0-.23-.07.17.17,0,0,0-.07.23.18.18,0,0,0,.23.07A.16.16,0,0,0,36.12,17.3Z"/><path class="cls-47" d="M40.13,18.74a.36.36,0,0,0-.5.09.36.36,0,1,0,.5-.09Z"/><path class="cls-48" d="M40.37,18.32a.28.28,0,0,0-.07-.39.28.28,0,0,0-.39.06.3.3,0,0,0,.06.4A.29.29,0,0,0,40.37,18.32Z"/><path class="cls-49" d="M39.65,17.43a.17.17,0,0,0-.24,0,.17.17,0,0,0,.28.2A.17.17,0,0,0,39.65,17.43Z"/><path class="cls-50" d="M37,18.62a.26.26,0,1,0-.2.49.27.27,0,0,0,.35-.15A.27.27,0,0,0,37,18.62Z"/><path class="cls-51" d="M39,17.88a.22.22,0,0,0-.27.12.21.21,0,0,0,.12.27.2.2,0,0,0,.27-.11A.22.22,0,0,0,39,17.88Z"/><path class="cls-52" d="M38.09,17.75a.13.13,0,0,0,.16-.07.13.13,0,0,0-.07-.17.12.12,0,0,0-.16.08A.12.12,0,0,0,38.09,17.75Z"/><path class="cls-53" d="M30.1,25.14a7.07,7.07,0,0,1-9.82,0,6.66,6.66,0,0,1,0-9.58c2.72-2.65,9.18-4.68,11.89-2s.63,9-2.08,11.59Z"/><path class="cls-54" d="M20,24.88c2.45,2.11,6.42,1.8,9-.76S33.85,16,32,13.41a1,1,0,0,0-.21-.21c-2.9-2.1-8.89-.14-11.48,2.38a6.66,6.66,0,0,0-.28,9.3Z"/><ellipse class="cls-55" cx="23.87" cy="20.06" rx="3.89" ry="3.8"/><path class="cls-56" d="M26.79,27.06c-1.53,0-3.06,0-4.57-.07-.37,0-.74-1-1.11-1s-.87.91-1.3.89l-.67,0c-8.91-.55-16.39-2.14-17-4.77a3.55,3.55,0,0,1,0-.46A5.23,5.23,0,0,1,2.3,20a4.6,4.6,0,0,1,3.06-3.29,4.22,4.22,0,0,0,1.71-1.39l.06-.08c1.25-1.58,2.47-1.63,3.12-.13h0c.57,1.28,1.55,1.45,2.62.44l.1-.1c1.19-1.11,2.24-.77,2.75.89l0,.13a4.5,4.5,0,0,0,.16.44c.5,1.15,1.35,1.41,2.31.67l.09-.07c1.18-.89,2.17-.31,2.58,1.52l.05.19a4.41,4.41,0,0,0,.32,1c.44.91,1.13,1.2,1.94.75a1.57,1.57,0,0,1,.71-.2c.86,0,1.49,1,1.69,2.79v.15a6.5,6.5,0,0,0,.69,2.47q.27.48.48,1Z"/><path class="cls-57" d="M44.27,23a3.13,3.13,0,0,0-3.41-1.35c-1.75.51-2.92,2.6-2.83,4.87h0s2.5-.66,3.67-.85,2.46-.09,3.48-.35l.71-.19Z"/><path class="cls-58" d="M45.18,25.22c-.43-2.56-2.37-4.17-4.32-3.6-1.75.51-2.92,2.6-2.83,4.87a53.45,53.45,0,0,0,7.16-1.2s0-.05,0-.07Z"/><path class="cls-59" d="M40.13,25.89c0-1.76-1.09-3.19-2.44-3.19s-2.44,1.43-2.44,3.19a4.6,4.6,0,0,0,.08.84c1.68-.13,3.28-.29,4.79-.5,0-.11,0-.22,0-.34Z"/><path class="cls-60" d="M20.46,22.63a5.62,5.62,0,0,0-3.36-2.12,5.29,5.29,0,0,0-5.6,2.18,8.92,8.92,0,0,0-1.6,3.07l.23,0h0a75,75,0,0,0,9,1l.66,0c.44,0,.88-.63,1.33-.62s.72.72,1.09.73l1.61,0Z"/><path class="cls-61" d="M10.82,18.77a1.93,1.93,0,1,0,1.93,1.93,1.93,1.93,0,0,0-1.93-1.93Zm0,2.75a.82.82,0,0,1,0-1.64.82.82,0,0,1,0,1.64Z"/><path class="cls-62" d="M22.07,22.63a7.37,7.37,0,0,0-11,0,8.52,8.52,0,0,0-1.84,3.13c.93.15,1.91.28,2.92.4a5.4,5.4,0,0,1,.92-1.37,4.68,4.68,0,0,1,7,0,5.12,5.12,0,0,1,1.23,1.95c.52,0,1,.19,1.56.2l1.35,0a8.51,8.51,0,0,0-2.14-4.36Z"/><path class="cls-63" d="M21.15,23.62a6.14,6.14,0,0,0-9.14,0A7.1,7.1,0,0,0,10.58,26l1.59.2a5.4,5.4,0,0,1,.92-1.37,4.68,4.68,0,0,1,7,0,5.41,5.41,0,0,1,1.19,2.09l1.61.07a7.16,7.16,0,0,0-1.72-3.33Z"/><path class="cls-64" d="M16.91,13.23a.36.36,0,1,0-.46.21A.37.37,0,0,0,16.91,13.23Z"/><path class="cls-65" d="M15.77,13.53a.29.29,0,0,0-.37.16.28.28,0,0,0,.17.36.28.28,0,1,0,.2-.52Z"/><path class="cls-66" d="M16.27,14.93a.17.17,0,0,0-.11.32.17.17,0,1,0,.11-.32Z"/><path class="cls-67" d="M18.76,15.06a.36.36,0,1,0,.08.71.36.36,0,0,0,.32-.39A.36.36,0,0,0,18.76,15.06Z"/><path class="cls-68" d="M20.26,12.32a.3.3,0,0,0-.25.31.28.28,0,0,0,.31.25.29.29,0,0,0,.26-.31A.3.3,0,0,0,20.26,12.32Z"/><path class="cls-69" d="M17.67,12.78a.18.18,0,0,0-.15.19.18.18,0,0,0,.19.15.17.17,0,0,0,0-.34Z"/><path class="cls-70" d="M17.32,14.3a.26.26,0,1,0,.34.15.27.27,0,0,0-.34-.15Z"/><path class="cls-71" d="M17.51,13.54a.2.2,0,0,0-.12.26.21.21,0,0,0,.27.12.2.2,0,0,0,.12-.26A.21.21,0,0,0,17.51,13.54Z"/><path class="cls-72" d="M16.72,14.05a.12.12,0,0,0,.08-.16.14.14,0,0,0-.17-.07.13.13,0,0,0-.07.16A.13.13,0,0,0,16.72,14.05Z"/><path class="cls-73" d="M23.35,11.29a.36.36,0,1,0-.67-.24.34.34,0,0,0,.21.45A.36.36,0,0,0,23.35,11.29Z"/><path class="cls-74" d="M22.05,14.55a.28.28,0,1,0-.19.52.28.28,0,1,0,.19-.52Z"/><path class="cls-75" d="M21.39,13.08a.17.17,0,0,0-.11.32.18.18,0,0,0,.22-.1.18.18,0,0,0-.11-.22Z"/><path class="cls-76" d="M25.35,11.5a.36.36,0,0,0-.32.39.36.36,0,1,0,.71-.08A.35.35,0,0,0,25.35,11.5Z"/><path class="cls-77" d="M25.24,11a.27.27,0,0,0-.31-.25.28.28,0,0,0-.25.31.28.28,0,0,0,.31.24A.27.27,0,0,0,25.24,11Z"/><path class="cls-78" d="M24.11,10.85A.17.17,0,0,0,24,11a.16.16,0,0,0,.19.15A.17.17,0,0,0,24.3,11,.18.18,0,0,0,24.11,10.85Z"/><path class="cls-79" d="M22.92,13.49a.26.26,0,0,0-.16.33.28.28,0,0,0,.35.16.27.27,0,0,0,.15-.34.25.25,0,0,0-.34-.15Z"/><path class="cls-80" d="M24,11.6a.2.2,0,0,0-.12.27.21.21,0,0,0,.26.12.21.21,0,0,0,.13-.27A.21.21,0,0,0,24,11.6Z"/><path class="cls-81" d="M23.16,12.12a.12.12,0,0,0,.07-.16.12.12,0,0,0-.16-.08A.13.13,0,0,0,23,12,.13.13,0,0,0,23.16,12.12Z"/></svg>