<svg id="Layer_1" data-name="Layer 1" xmlns="http://www.w3.org/2000/svg" xmlns:xlink="http://www.w3.org/1999/xlink" viewBox="0 0 53 53"><defs><style>.cls-1{fill:url(#linear-gradient);}.cls-2{fill:url(#linear-gradient-2);}.cls-3{fill:url(#linear-gradient-3);}.cls-4{fill:url(#radial-gradient);}.cls-5{fill:url(#linear-gradient-4);}.cls-6{fill:url(#linear-gradient-5);}.cls-7{fill:url(#linear-gradient-6);}.cls-8{fill:url(#linear-gradient-7);}.cls-9{opacity:0.6;}.cls-10{fill:url(#linear-gradient-8);}.cls-11{fill:url(#linear-gradient-9);}.cls-12{fill:url(#linear-gradient-10);}.cls-13{fill:url(#linear-gradient-11);}.cls-14{fill:url(#linear-gradient-12);}.cls-15{fill:url(#linear-gradient-13);}.cls-16{fill:url(#linear-gradient-14);}.cls-17{fill:url(#linear-gradient-15);}.cls-18{fill:url(#linear-gradient-16);}.cls-19{fill:url(#linear-gradient-17);}.cls-20{fill:url(#radial-gradient-2);}.cls-21{fill:url(#linear-gradient-18);}.cls-22{fill:url(#linear-gradient-19);}.cls-23{fill:url(#linear-gradient-20);}.cls-24{fill:url(#linear-gradient-21);}.cls-25{fill:url(#linear-gradient-22);}.cls-26{fill:url(#linear-gradient-23);}.cls-27{fill:url(#linear-gradient-24);}.cls-28{fill:url(#linear-gradient-25);}.cls-29{fill:url(#linear-gradient-26);}.cls-30{fill:url(#linear-gradient-27);}.cls-31{fill:url(#linear-gradient-28);}.cls-32{fill:url(#radial-gradient-3);}.cls-33{fill:url(#linear-gradient-29);}.cls-34{fill:url(#linear-gradient-30);}.cls-35{fill:url(#linear-gradient-31);}.cls-36{fill:url(#linear-gradient-32);}.cls-37{fill:url(#linear-gradient-33);}.cls-38{fill:url(#linear-gradient-34);}.cls-39{fill:url(#linear-gradient-35);}.cls-40{fill:url(#linear-gradient-36);}.cls-41{fill:url(#linear-gradient-37);}.cls-42{fill:url(#linear-gradient-38);}</style><linearGradient id="linear-gradient" x1="24.68" y1="-244.1" x2="26.29" y2="-252.1" gradientTransform="matrix(1, 0, 0, -1, -0.78, -231.52)" gradientUnits="userSpaceOnUse"><stop offset="0" stop-color="#f7f5fa"/><stop offset="1" stop-color="#ebdcf8"/></linearGradient><linearGradient id="linear-gradient-2" x1="25.12" y1="-249.13" x2="24.07" y2="-235.16" gradientTransform="matrix(1, 0, 0, -1, -0.78, -231.52)" gradientUnits="userSpaceOnUse"><stop offset="0" stop-color="#ebdcf8" stop-opacity="0"/><stop offset="0.03" stop-color="#e5d6f4" stop-opacity="0.03"/><stop offset="0.22" stop-color="#c1b5da" stop-opacity="0.22"/><stop offset="0.41" stop-color="#a69cc6" stop-opacity="0.41"/><stop offset="0.61" stop-color="#9289b8" stop-opacity="0.61"/><stop offset="0.8" stop-color="#867fb0" stop-opacity="0.8"/><stop offset="1" stop-color="#827bad"/></linearGradient><linearGradient id="linear-gradient-3" x1="24.66" y1="-249.2" x2="24.66" y2="-256.47" xlink:href="#linear-gradient-2"/><radialGradient id="radial-gradient" cx="38.81" cy="-304.93" r="26.2" gradientTransform="translate(-10.17 163.51) scale(0.88 0.48)" gradientUnits="userSpaceOnUse"><stop offset="0" stop-color="#ec6d60"/><stop offset="0.23" stop-color="#ed715d"/><stop offset="0.5" stop-color="#ee7d56"/><stop offset="0.79" stop-color="#f0914b"/><stop offset="1" stop-color="#f2a546"/></radialGradient><linearGradient id="linear-gradient-4" x1="23.78" y1="-238.17" x2="17.6" y2="-228.29" gradientTransform="matrix(1, 0, 0, -1, -0.78, -231.52)" gradientUnits="userSpaceOnUse"><stop offset="0" stop-color="#f2a546" stop-opacity="0"/><stop offset="0.2" stop-color="#f3af52" stop-opacity="0.2"/><stop offset="0.59" stop-color="#f6ca79" stop-opacity="0.59"/><stop offset="1" stop-color="#fbe9aa"/></linearGradient><linearGradient id="linear-gradient-5" x1="26.76" y1="-236.51" x2="22.53" y2="-229.86" xlink:href="#linear-gradient-4"/><linearGradient id="linear-gradient-6" x1="31.38" y1="-237.11" x2="26.84" y2="-229.96" xlink:href="#linear-gradient-4"/><linearGradient id="linear-gradient-7" x1="35.69" y1="-238.47" x2="31.85" y2="-232.41" xlink:href="#linear-gradient-4"/><linearGradient id="linear-gradient-8" x1="-1359.6" y1="2141.67" x2="-1357.75" y2="2139.11" gradientTransform="matrix(-0.85, 0.54, -0.54, -0.85, 23.08, 2563.12)" xlink:href="#linear-gradient-2"/><linearGradient id="linear-gradient-9" x1="-1358.33" y1="2143.29" x2="-1356.87" y2="2141.27" gradientTransform="matrix(-0.85, 0.54, -0.54, -0.85, 23.08, 2563.12)" xlink:href="#linear-gradient-2"/><linearGradient id="linear-gradient-10" x1="-1360.46" y1="2143.35" x2="-1359.58" y2="2142.13" gradientTransform="matrix(-0.85, 0.54, -0.54, -0.85, 23.08, 2563.12)" xlink:href="#linear-gradient-2"/><linearGradient id="linear-gradient-11" x1="-2365.5" y1="1128.41" x2="-2364.13" y2="1126.52" gradientTransform="translate(755.83 2543.58) rotate(99.38)" xlink:href="#linear-gradient-2"/><linearGradient id="linear-gradient-12" x1="-2364.56" y1="1129.61" x2="-2363.48" y2="1128.11" gradientTransform="translate(755.83 2543.58) rotate(99.38)" xlink:href="#linear-gradient-2"/><linearGradient id="linear-gradient-13" x1="-2366.14" y1="1129.65" x2="-2365.49" y2="1128.75" gradientTransform="translate(755.83 2543.58) rotate(99.38)" xlink:href="#linear-gradient-2"/><linearGradient id="linear-gradient-14" x1="34.41" y1="-259.13" x2="36.03" y2="-267.12" xlink:href="#linear-gradient"/><linearGradient id="linear-gradient-15" x1="34.85" y1="-264.16" x2="33.8" y2="-250.19" xlink:href="#linear-gradient-2"/><linearGradient id="linear-gradient-16" x1="38.23" y1="-258.11" x2="35.4" y2="-258.11" xlink:href="#linear-gradient-2"/><linearGradient id="linear-gradient-17" x1="34.39" y1="-264.22" x2="34.39" y2="-271.5" xlink:href="#linear-gradient-2"/><radialGradient id="radial-gradient-2" cx="49.89" cy="-435.01" r="26.2" gradientTransform="translate(-10.17 240.58) scale(0.88 0.48)" gradientUnits="userSpaceOnUse"><stop offset="0" stop-color="#f4b840"/><stop offset="0.22" stop-color="#f4ba42"/><stop offset="0.48" stop-color="#f5c146"/><stop offset="0.75" stop-color="#f7cb51"/><stop offset="1" stop-color="#f9d862"/></radialGradient><linearGradient id="linear-gradient-18" x1="-1456.23" y1="2635.57" x2="-1454.38" y2="2633.01" gradientTransform="matrix(-0.41, -0.92, -0.92, 0.41, 1869.14, -2378.53)" xlink:href="#linear-gradient-2"/><linearGradient id="linear-gradient-19" x1="-1454.96" y1="2637.19" x2="-1453.5" y2="2635.17" gradientTransform="matrix(-0.41, -0.92, -0.92, 0.41, 1869.14, -2378.53)" xlink:href="#linear-gradient-2"/><linearGradient id="linear-gradient-20" x1="-1457.09" y1="2637.25" x2="-1456.21" y2="2636.03" gradientTransform="matrix(-0.41, -0.92, -0.92, 0.41, 1869.14, -2378.53)" xlink:href="#linear-gradient-2"/><linearGradient id="linear-gradient-21" x1="-2798.86" y1="1385.28" x2="-2797.49" y2="1383.39" gradientTransform="matrix(0.41, -0.92, -0.92, -0.41, 2468.35, -1956.4)" xlink:href="#linear-gradient-2"/><linearGradient id="linear-gradient-22" x1="-2797.92" y1="1386.48" x2="-2796.84" y2="1384.98" gradientTransform="matrix(0.41, -0.92, -0.92, -0.41, 2468.35, -1956.4)" xlink:href="#linear-gradient-2"/><linearGradient id="linear-gradient-23" x1="-2799.5" y1="1386.52" x2="-2798.85" y2="1385.62" gradientTransform="matrix(0.41, -0.92, -0.92, -0.41, 2468.35, -1956.4)" xlink:href="#linear-gradient-2"/><linearGradient id="linear-gradient-24" x1="38.03" y1="-254.19" x2="33.75" y2="-254.19" gradientTransform="matrix(1, 0, 0, -1, -0.78, -231.52)" gradientUnits="userSpaceOnUse"><stop offset="0" stop-color="#e4402b" stop-opacity="0"/><stop offset="1" stop-color="#b03634"/></linearGradient><linearGradient id="linear-gradient-25" x1="32.02" y1="-255.21" x2="37.6" y2="-260.7" gradientTransform="matrix(1, 0, 0, -1, -0.78, -231.52)" gradientUnits="userSpaceOnUse"><stop offset="0" stop-color="#484e13"/><stop offset="0.29" stop-color="#45441f"/><stop offset="0.75" stop-color="#423838"/><stop offset="1" stop-color="#403343"/></linearGradient><linearGradient id="linear-gradient-26" x1="19.98" y1="-273.15" x2="21.59" y2="-281.14" xlink:href="#linear-gradient"/><linearGradient id="linear-gradient-27" x1="20.42" y1="-278.18" x2="19.37" y2="-264.21" xlink:href="#linear-gradient-2"/><linearGradient id="linear-gradient-28" x1="19.96" y1="-278.24" x2="19.96" y2="-285.52" xlink:href="#linear-gradient-2"/><radialGradient id="radial-gradient-3" cx="33.46" cy="-584.4" r="26.2" gradientTransform="translate(-10.17 329.16) scale(0.88 0.48)" gradientUnits="userSpaceOnUse"><stop offset="0" stop-color="#e4402b"/><stop offset="0.42" stop-color="#e4412c"/><stop offset="0.61" stop-color="#e54530"/><stop offset="0.76" stop-color="#e64c39"/><stop offset="0.88" stop-color="#e85847"/><stop offset="0.98" stop-color="#eb695b"/><stop offset="1" stop-color="#ec6d60"/></radialGradient><linearGradient id="linear-gradient-29" x1="18.7" y1="-266.67" x2="13.92" y2="-259.13" gradientTransform="matrix(1, 0, 0, -1, -0.78, -231.52)" gradientUnits="userSpaceOnUse"><stop offset="0" stop-color="#e4402b" stop-opacity="0"/><stop offset="0.19" stop-color="#e44c36" stop-opacity="0.19"/><stop offset="0.59" stop-color="#e8755e" stop-opacity="0.59"/><stop offset="1" stop-color="#eda892"/></linearGradient><linearGradient id="linear-gradient-30" x1="22.62" y1="-266.44" x2="18.4" y2="-259.79" xlink:href="#linear-gradient-29"/><linearGradient id="linear-gradient-31" x1="26.88" y1="-266.47" x2="23.34" y2="-260.88" xlink:href="#linear-gradient-29"/><linearGradient id="linear-gradient-32" x1="30.99" y1="-267.52" x2="28.35" y2="-263.36" xlink:href="#linear-gradient-29"/><linearGradient id="linear-gradient-33" x1="-1305.86" y1="1795.48" x2="-1304.01" y2="1792.91" gradientTransform="matrix(-0.92, 0.41, 0.41, 0.92, -1922.63, -1068.77)" xlink:href="#linear-gradient-2"/><linearGradient id="linear-gradient-34" x1="-1304.59" y1="1797.1" x2="-1303.13" y2="1795.07" gradientTransform="matrix(-0.92, 0.41, 0.41, 0.92, -1922.63, -1068.77)" xlink:href="#linear-gradient-2"/><linearGradient id="linear-gradient-35" x1="-1306.72" y1="1797.15" x2="-1305.84" y2="1795.93" gradientTransform="matrix(-0.92, 0.41, 0.41, 0.92, -1922.63, -1068.77)" xlink:href="#linear-gradient-2"/><linearGradient id="linear-gradient-36" x1="-2072.43" y1="937.65" x2="-2071.07" y2="935.76" gradientTransform="matrix(-0.92, -0.41, -0.41, 0.92, -1500.51, -1667.98)" xlink:href="#linear-gradient-2"/><linearGradient id="linear-gradient-37" x1="-2071.5" y1="938.85" x2="-2070.42" y2="937.35" gradientTransform="matrix(-0.92, -0.41, -0.41, 0.92, -1500.51, -1667.98)" xlink:href="#linear-gradient-2"/><linearGradient id="linear-gradient-38" x1="-2073.07" y1="938.89" x2="-2072.42" y2="937.99" gradientTransform="matrix(-0.92, -0.41, -0.41, 0.92, -1500.51, -1667.98)" xlink:href="#linear-gradient-2"/></defs><title>Суші штат_іконки_деталізовані</title><path class="cls-1" d="M36.9,21.5a5.18,5.18,0,0,0,4.89-5c0-1.3.05-2.62.05-4v-1.6a7.61,7.61,0,0,0-7.29-7.49C31.27,3.29,27.7,3.21,24,3.21s-7.3.08-10.58.22A7.61,7.61,0,0,0,6.1,10.92c0,.53,0,1.07,0,1.6,0,1.35,0,2.67.06,4a5.17,5.17,0,0,0,4.89,5c3.9.22,8.29.34,12.93.34s9-.12,12.93-.34Z"/><path class="cls-2" d="M41.84,12.52c0,1.35,0,2.67-.05,4a5.18,5.18,0,0,1-4.89,5c-3.91.22-8.29.34-12.93.34-3.66,0-7.16-.08-10.4-.21L6.1,14.16c0-.54,0-1.09,0-1.64s0-1.07,0-1.6a7.61,7.61,0,0,1,7.29-7.49c3.28-.15,6.85-.22,10.58-.22s7.3.07,10.58.22a7.59,7.59,0,0,1,7.28,7.49c0,.53,0,1.07,0,1.6Z"/><path class="cls-3" d="M6.16,16.71A5.17,5.17,0,0,0,11,21.5c3.9.22,8.29.34,12.93.34s9-.12,12.93-.34a5.17,5.17,0,0,0,4.88-4.79Z"/><path class="cls-4" d="M39,15a43.68,43.68,0,0,0-15-2.43A43.68,43.68,0,0,0,9,15c-2.15.81-4.24-1.62-4.24-4.94,0-2.21,1-4.17,2.37-4.84C11.26,3.24,17.28,2,24,2S36.68,3.24,40.85,5.22c1.42.67,2.37,2.63,2.37,4.84,0,3.32-2.09,5.75-4.24,4.94Z"/><path class="cls-5" d="M43.22,10.06c0,2.88-1.57,5.1-3.4,5.1A2.28,2.28,0,0,1,39,15a34.47,34.47,0,0,0-5.2-1.48A49.18,49.18,0,0,0,24,12.57,43.68,43.68,0,0,0,9,15a2.37,2.37,0,0,1-1,.15A14.61,14.61,0,0,1,11.67,5.07,7.08,7.08,0,0,1,16,2.62,50.75,50.75,0,0,1,24,2a49.25,49.25,0,0,1,9.12.82,32.27,32.27,0,0,1,7.76,2.4c1.42.67,2.37,2.63,2.37,4.84Z"/><path class="cls-6" d="M40.85,5.22C36.68,3.24,30.66,2,24,2L22.56,2a5.24,5.24,0,0,0-3.84,1.81l0,0A14.77,14.77,0,0,0,15,13.36a49.46,49.46,0,0,1,9-.79A43.68,43.68,0,0,1,39,15c2.15.81,4.24-1.62,4.24-4.94C43.22,7.85,42.27,5.89,40.85,5.22Z"/><path class="cls-7" d="M40.85,5.22A37.51,37.51,0,0,0,27.91,2.15a1.41,1.41,0,0,0-1.19.48h0A14.69,14.69,0,0,0,23,12.58H24A43.68,43.68,0,0,1,39,15c2.15.81,4.24-1.62,4.24-4.94,0-2.21-.95-4.17-2.37-4.84Z"/><path class="cls-8" d="M40.85,5.22a30.31,30.31,0,0,0-6-2,1,1,0,0,0-1,.32h0a14.88,14.88,0,0,0-3.7,9.42A38.17,38.17,0,0,1,39,15c2.15.81,4.24-1.62,4.24-4.94,0-2.21-.95-4.17-2.37-4.84Z"/><g class="cls-9"><circle class="cls-10" cx="22.58" cy="17.83" r="0.67"/><circle class="cls-11" cx="20.65" cy="16.92" r="0.53"/><circle class="cls-12" cx="22.45" cy="15.41" r="0.32"/><circle class="cls-13" cx="25.43" cy="15.65" r="0.5"/><circle class="cls-14" cx="23.98" cy="16.27" r="0.39"/><circle class="cls-15" cx="24.03" cy="14.53" r="0.24"/></g><path class="cls-16" d="M46.68,36.59a5.16,5.16,0,0,0,4.88-5c0-1.3.06-2.62.06-4,0-.54,0-1.07,0-1.6a7.61,7.61,0,0,0-7.28-7.5c-3.29-.14-6.85-.22-10.58-.22s-7.3.08-10.59.22A7.61,7.61,0,0,0,15.88,26c0,.53,0,1.06,0,1.6,0,1.35,0,2.67.06,4a5.17,5.17,0,0,0,4.89,5c3.9.21,8.29.33,12.93.33s9-.12,12.93-.33Z"/><path class="cls-17" d="M51.62,27.61c0,1.35,0,2.67-.06,4a5.16,5.16,0,0,1-4.88,5c-3.91.21-8.3.33-12.93.33-3.66,0-7.17-.07-10.4-.21l-7.47-7.47c0-.54,0-1.08,0-1.63s0-1.07,0-1.6a7.61,7.61,0,0,1,7.28-7.5c3.29-.14,6.86-.22,10.59-.22s7.29.08,10.58.22A7.6,7.6,0,0,1,51.61,26c0,.53,0,1.06,0,1.6Z"/><path class="cls-18" d="M44.33,18.51c-2.91-.12-6-.2-9.32-.21V36.92c4.17,0,8.12-.14,11.67-.33a5.16,5.16,0,0,0,4.88-5c0-1.3.06-2.62.06-4,0-.54,0-1.07,0-1.6a7.6,7.6,0,0,0-7.28-7.5Z"/><path class="cls-19" d="M15.94,31.8a5.17,5.17,0,0,0,4.88,4.79c3.9.21,8.29.33,12.93.33s9-.12,12.93-.33a5.16,5.16,0,0,0,4.87-4.79Z"/><path class="cls-20" d="M48.75,30.09a43.42,43.42,0,0,0-15-2.43,43.44,43.44,0,0,0-15,2.43c-2.16.81-4.25-1.63-4.25-4.94,0-2.21,1-4.17,2.37-4.84,4.18-2,10.2-3.22,16.89-3.22s12.7,1.24,16.88,3.22C52,21,53,22.94,53,25.15,53,28.46,50.91,30.9,48.75,30.09Z"/><g class="cls-9"><circle class="cls-21" cx="44.86" cy="31.02" r="0.67"/><circle class="cls-22" cx="42.75" cy="30.7" r="0.53"/><circle class="cls-23" cx="43.4" cy="32.96" r="0.32"/><circle class="cls-24" cx="46.02" cy="34.41" r="0.5"/><circle class="cls-25" cx="45.16" cy="33.09" r="0.39"/><circle class="cls-26" cx="44.24" cy="34.56" r="0.24"/></g><path class="cls-27" d="M50.63,20.31A40,40,0,0,0,35,17.1V27.67a42.82,42.82,0,0,1,13.74,2.42c2.16.81,4.25-1.63,4.25-4.94,0-2.21-1-4.17-2.37-4.84Z"/><path class="cls-28" d="M31.74,36.81a.45.45,0,0,0,.45.45h3.12a.45.45,0,0,0,.45-.45V17.31a.54.54,0,0,0-.53-.54c-.49,0-1,0-1.48,0s-1,0-1.48,0a.53.53,0,0,0-.53.54v19.5Z"/><path class="cls-29" d="M32.18,50.66a5.16,5.16,0,0,0,4.89-5c0-1.29.06-2.62.06-4,0-.53,0-1.06,0-1.59a7.6,7.6,0,0,0-7.28-7.5c-3.29-.14-6.86-.22-10.59-.22s-7.29.08-10.58.22a7.59,7.59,0,0,0-7.28,7.5c0,.53,0,1.06,0,1.59,0,1.35,0,2.68.06,4a5.15,5.15,0,0,0,4.88,5c3.91.22,8.3.34,12.93.34s9-.12,12.93-.34Z"/><path class="cls-30" d="M37.13,41.68c0,1.35,0,2.68-.06,4a5.18,5.18,0,0,1-4.89,5c-3.9.21-8.29.33-12.93.33-3.66,0-7.16-.08-10.39-.21L1.39,43.32c0-.54,0-1.09,0-1.63s0-1.07,0-1.6a7.59,7.59,0,0,1,7.28-7.5c3.29-.14,6.85-.22,10.58-.22s7.3.08,10.59.22a7.6,7.6,0,0,1,7.28,7.5c0,.53,0,1.06,0,1.59Z"/><path class="cls-31" d="M1.45,45.87a5.15,5.15,0,0,0,4.87,4.79c3.91.22,8.3.34,12.93.34s9-.12,12.93-.34a5.16,5.16,0,0,0,4.88-4.79Z"/><path class="cls-32" d="M34.26,44.16a43.68,43.68,0,0,0-15-2.43,43.66,43.66,0,0,0-15,2.43C2.09,45,0,42.54,0,39.23,0,37,1,35.05,2.37,34.38c4.18-2,10.19-3.22,16.88-3.22S32,32.4,36.14,34.38c1.41.67,2.37,2.64,2.37,4.85,0,3.31-2.09,5.74-4.25,4.93Z"/><path class="cls-33" d="M38.51,39.23c0,2.87-1.58,5.09-3.41,5.09a2.31,2.31,0,0,1-.84-.16,33.36,33.36,0,0,0-5.2-1.47,49.15,49.15,0,0,0-9.81-1,43.66,43.66,0,0,0-15,2.43,2.42,2.42,0,0,1-1,.15A14.62,14.62,0,0,1,7,34.23a7.12,7.12,0,0,1,4.29-2.44,49.74,49.74,0,0,1,8-.63,49.17,49.17,0,0,1,9.12.82,32.5,32.5,0,0,1,7.77,2.4c1.41.67,2.37,2.64,2.37,4.85Z"/><path class="cls-34" d="M36.14,34.38c-4.18-2-10.2-3.22-16.89-3.22l-1.41,0A5.19,5.19,0,0,0,14,33l0,0a14.86,14.86,0,0,0-3.7,9.5,49.46,49.46,0,0,1,9-.79,43.68,43.68,0,0,1,15,2.43c2.16.81,4.25-1.62,4.25-4.93,0-2.21-1-4.18-2.37-4.85Z"/><path class="cls-35" d="M36.14,34.38A37.57,37.57,0,0,0,23.2,31.31a1.45,1.45,0,0,0-1.2.49h0a14.72,14.72,0,0,0-3.69,9.94h.94a43.68,43.68,0,0,1,15,2.43c2.16.81,4.25-1.62,4.25-4.93,0-2.21-1-4.18-2.37-4.85Z"/><path class="cls-36" d="M36.14,34.38a30,30,0,0,0-6-2,1,1,0,0,0-1,.31h0a14.88,14.88,0,0,0-3.7,9.42,38.08,38.08,0,0,1,8.8,2.06c2.16.81,4.25-1.62,4.25-4.93C38.51,37,37.55,35.05,36.14,34.38Z"/><g class="cls-9"><circle class="cls-37" cx="6.51" cy="45.94" r="0.67"/><circle class="cls-38" cx="6.19" cy="48.05" r="0.53"/><circle class="cls-39" cx="8.45" cy="47.4" r="0.32"/><circle class="cls-40" cx="9.9" cy="44.78" r="0.5"/><circle class="cls-41" cx="8.58" cy="45.64" r="0.39"/><circle class="cls-42" cx="10.05" cy="46.56" r="0.24"/></g></svg>