<svg id="Layer_1" data-name="Layer 1" xmlns="http://www.w3.org/2000/svg" xmlns:xlink="http://www.w3.org/1999/xlink" viewBox="0 0 53 53"><defs><style>.cls-1{fill:url(#linear-gradient);}.cls-2{fill:url(#linear-gradient-2);}.cls-3{fill:url(#linear-gradient-3);}.cls-4{fill:url(#linear-gradient-4);}.cls-5{fill:url(#linear-gradient-5);}.cls-6{fill:url(#linear-gradient-6);}.cls-7{fill:url(#linear-gradient-7);}.cls-8{opacity:0.6;}.cls-9{fill:url(#linear-gradient-8);}.cls-10{fill:url(#linear-gradient-9);}.cls-11{fill:url(#linear-gradient-10);}.cls-12{fill:url(#linear-gradient-11);}.cls-13{fill:url(#linear-gradient-12);}.cls-14{fill:url(#linear-gradient-13);}.cls-15{fill:url(#linear-gradient-14);}.cls-16{fill:url(#linear-gradient-15);}.cls-17{fill:url(#linear-gradient-16);}.cls-18{fill:url(#linear-gradient-17);}.cls-19{fill:url(#linear-gradient-18);}.cls-20{fill:url(#linear-gradient-19);}.cls-21{fill:url(#radial-gradient);}.cls-22{fill:url(#linear-gradient-20);}.cls-23{fill:url(#linear-gradient-21);}.cls-24{fill:url(#linear-gradient-22);}.cls-25{fill:url(#linear-gradient-23);}.cls-26{fill:url(#linear-gradient-24);}.cls-27{fill:url(#linear-gradient-25);}.cls-28{fill:url(#linear-gradient-26);}.cls-29{fill:url(#linear-gradient-27);}.cls-30{fill:url(#linear-gradient-28);}.cls-31{fill:url(#linear-gradient-29);}.cls-32{fill:url(#linear-gradient-30);}.cls-33{fill:url(#linear-gradient-31);}.cls-34{fill:url(#linear-gradient-32);}.cls-35{fill:url(#radial-gradient-2);}.cls-36{fill:url(#linear-gradient-33);}.cls-37{fill:url(#linear-gradient-34);}.cls-38{fill:url(#linear-gradient-35);}.cls-39{fill:url(#linear-gradient-36);}.cls-40{fill:url(#linear-gradient-37);}.cls-41{fill:url(#linear-gradient-38);}</style><linearGradient id="linear-gradient" x1="36.37" y1="-243.69" x2="43.26" y2="-251.01" gradientTransform="matrix(1, 0, 0, -1, -1.08, -231.52)" gradientUnits="userSpaceOnUse"><stop offset="0" stop-color="#484e13"/><stop offset="0.29" stop-color="#45441f"/><stop offset="0.75" stop-color="#423838"/><stop offset="1" stop-color="#403343"/></linearGradient><linearGradient id="linear-gradient-2" x1="37.69" y1="-235.66" x2="41.33" y2="-249.27" gradientTransform="matrix(1, 0, 0, -1, -1.08, -231.52)" gradientUnits="userSpaceOnUse"><stop offset="0" stop-color="#f7f5fa"/><stop offset="1" stop-color="#ebdcf8"/></linearGradient><linearGradient id="linear-gradient-3" x1="39.73" y1="-239.83" x2="40.61" y2="-241.79" gradientTransform="matrix(1, 0, 0, -1, -1.08, -231.52)" gradientUnits="userSpaceOnUse"><stop offset="0" stop-color="#ec6d60"/><stop offset="0.22" stop-color="#eb6658"/><stop offset="0.6" stop-color="#e85543"/><stop offset="1" stop-color="#e4402b"/></linearGradient><linearGradient id="linear-gradient-4" x1="42.98" y1="-238.17" x2="45.21" y2="-240.81" gradientTransform="matrix(1, 0, 0, -1, -1.08, -231.52)" gradientUnits="userSpaceOnUse"><stop offset="0" stop-color="#f2aa50"/><stop offset="0.41" stop-color="#ef8a56"/><stop offset="0.78" stop-color="#ed755d"/><stop offset="1" stop-color="#ec6d60"/></linearGradient><linearGradient id="linear-gradient-5" x1="37.57" y1="-236.79" x2="39.28" y2="-239.64" gradientTransform="matrix(1, 0, 0, -1, -1.08, -231.52)" gradientUnits="userSpaceOnUse"><stop offset="0" stop-color="#c0d645"/><stop offset="0.23" stop-color="#b5ca41"/><stop offset="0.64" stop-color="#99ab35"/><stop offset="1" stop-color="#7d8929"/></linearGradient><linearGradient id="linear-gradient-6" x1="33.36" y1="-238.57" x2="35.53" y2="-241.37" gradientTransform="matrix(1, 0, 0, -1, -1.08, -231.52)" gradientUnits="userSpaceOnUse"><stop offset="0" stop-color="#f9d862"/><stop offset="0.3" stop-color="#f7cc5b"/><stop offset="0.86" stop-color="#f3ae4a"/><stop offset="1" stop-color="#f2a546"/></linearGradient><linearGradient id="linear-gradient-7" x1="42.36" y1="-60.11" x2="45.07" y2="-61.04" gradientTransform="translate(-1.08 70.86)" gradientUnits="userSpaceOnUse"><stop offset="0" stop-color="#f9ded0"/><stop offset="0.38" stop-color="#f4c5b2"/><stop offset="0.77" stop-color="#efb09a"/><stop offset="1" stop-color="#eda892"/></linearGradient><linearGradient id="linear-gradient-8" x1="2369.33" y1="278.48" x2="2370.84" y2="276.39" gradientTransform="matrix(-0.69, 0.73, 0.73, 0.69, 1465.59, -1906.26)" gradientUnits="userSpaceOnUse"><stop offset="0" stop-color="#ebdcf8" stop-opacity="0"/><stop offset="0.03" stop-color="#e5d6f4" stop-opacity="0.03"/><stop offset="0.22" stop-color="#c1b5da" stop-opacity="0.22"/><stop offset="0.41" stop-color="#a69cc6" stop-opacity="0.41"/><stop offset="0.61" stop-color="#9289b8" stop-opacity="0.61"/><stop offset="0.8" stop-color="#867fb0" stop-opacity="0.8"/><stop offset="1" stop-color="#827bad"/></linearGradient><linearGradient id="linear-gradient-9" x1="2370.36" y1="279.8" x2="2371.55" y2="278.15" xlink:href="#linear-gradient-8"/><linearGradient id="linear-gradient-10" x1="2368.63" y1="279.84" x2="2369.34" y2="278.85" xlink:href="#linear-gradient-8"/><linearGradient id="linear-gradient-11" x1="2846.81" y1="1481.35" x2="2848.32" y2="1479.26" gradientTransform="matrix(-1, -0.06, -0.06, 1, 2985.83, -1317.29)" xlink:href="#linear-gradient-8"/><linearGradient id="linear-gradient-12" x1="2847.84" y1="1482.67" x2="2849.03" y2="1481.02" gradientTransform="matrix(-1, -0.06, -0.06, 1, 2985.83, -1317.29)" xlink:href="#linear-gradient-8"/><linearGradient id="linear-gradient-13" x1="2846.11" y1="1482.71" x2="2846.82" y2="1481.72" gradientTransform="matrix(-1, -0.06, -0.06, 1, 2985.83, -1317.29)" xlink:href="#linear-gradient-8"/><linearGradient id="linear-gradient-14" x1="2243.31" y1="1022.82" x2="2244.43" y2="1021.28" gradientTransform="matrix(-1, -0.03, -0.03, 1, 2312.48, -949.73)" xlink:href="#linear-gradient-8"/><linearGradient id="linear-gradient-15" x1="2244.08" y1="1023.79" x2="2244.95" y2="1022.57" gradientTransform="matrix(-1, -0.03, -0.03, 1, 2312.48, -949.73)" xlink:href="#linear-gradient-8"/><linearGradient id="linear-gradient-16" x1="2242.79" y1="1023.83" x2="2243.32" y2="1023.09" gradientTransform="matrix(-1, -0.03, -0.03, 1, 2312.48, -949.73)" xlink:href="#linear-gradient-8"/><linearGradient id="linear-gradient-17" x1="20.28" y1="-259.2" x2="21.89" y2="-267.19" xlink:href="#linear-gradient-2"/><linearGradient id="linear-gradient-18" x1="20.72" y1="-264.23" x2="19.67" y2="-250.26" gradientTransform="matrix(1, 0, 0, -1, -1.08, -231.52)" xlink:href="#linear-gradient-8"/><linearGradient id="linear-gradient-19" x1="20.26" y1="-264.29" x2="20.26" y2="-271.57" gradientTransform="matrix(1, 0, 0, -1, -1.08, -231.52)" xlink:href="#linear-gradient-8"/><radialGradient id="radial-gradient" cx="23.16" cy="-613.71" r="26.2" gradientTransform="translate(-1.09 329.16) scale(0.88 0.48)" gradientUnits="userSpaceOnUse"><stop offset="0" stop-color="#e4402b"/><stop offset="0.42" stop-color="#e4412c"/><stop offset="0.61" stop-color="#e54530"/><stop offset="0.76" stop-color="#e64c39"/><stop offset="0.88" stop-color="#e85847"/><stop offset="0.98" stop-color="#eb695b"/><stop offset="1" stop-color="#ec6d60"/></radialGradient><linearGradient id="linear-gradient-20" x1="19" y1="-252.72" x2="14.22" y2="-245.18" gradientTransform="matrix(1, 0, 0, -1, -1.08, -231.52)" gradientUnits="userSpaceOnUse"><stop offset="0" stop-color="#e4402b" stop-opacity="0"/><stop offset="0.19" stop-color="#e44c36" stop-opacity="0.19"/><stop offset="0.59" stop-color="#e8755e" stop-opacity="0.59"/><stop offset="1" stop-color="#eda892"/></linearGradient><linearGradient id="linear-gradient-21" x1="22.92" y1="-252.49" x2="18.7" y2="-245.84" xlink:href="#linear-gradient-20"/><linearGradient id="linear-gradient-22" x1="27.18" y1="-252.52" x2="23.64" y2="-246.93" xlink:href="#linear-gradient-20"/><linearGradient id="linear-gradient-23" x1="31.29" y1="-253.57" x2="28.65" y2="-249.41" xlink:href="#linear-gradient-20"/><linearGradient id="linear-gradient-24" x1="-1165.32" y1="1751.78" x2="-1163.47" y2="1749.22" gradientTransform="matrix(-0.92, 0.41, 0.41, 0.92, -1775.87, -1099.97)" xlink:href="#linear-gradient-8"/><linearGradient id="linear-gradient-25" x1="-1164.05" y1="1753.4" x2="-1162.59" y2="1751.38" gradientTransform="matrix(-0.92, 0.41, 0.41, 0.92, -1775.87, -1099.97)" xlink:href="#linear-gradient-8"/><linearGradient id="linear-gradient-26" x1="-1166.18" y1="1753.46" x2="-1165.3" y2="1752.24" gradientTransform="matrix(-0.92, 0.41, 0.41, 0.92, -1775.87, -1099.97)" xlink:href="#linear-gradient-8"/><linearGradient id="linear-gradient-27" x1="-1920.69" y1="956.25" x2="-1919.32" y2="954.35" gradientTransform="matrix(-0.92, -0.41, -0.41, 0.92, -1353.9, -1636.4)" xlink:href="#linear-gradient-8"/><linearGradient id="linear-gradient-28" x1="-1919.75" y1="957.45" x2="-1918.67" y2="955.95" gradientTransform="matrix(-0.92, -0.41, -0.41, 0.92, -1353.9, -1636.4)" xlink:href="#linear-gradient-8"/><linearGradient id="linear-gradient-29" x1="-1921.33" y1="957.49" x2="-1920.67" y2="956.59" gradientTransform="matrix(-0.92, -0.41, -0.41, 0.92, -1353.9, -1636.4)" xlink:href="#linear-gradient-8"/><linearGradient id="linear-gradient-30" x1="34.71" y1="-270.66" x2="36.33" y2="-278.65" xlink:href="#linear-gradient-2"/><linearGradient id="linear-gradient-31" x1="35.15" y1="-275.69" x2="34.1" y2="-261.72" gradientTransform="matrix(1, 0, 0, -1, -1.08, -231.52)" xlink:href="#linear-gradient-8"/><linearGradient id="linear-gradient-32" x1="34.69" y1="-275.75" x2="34.69" y2="-283.03" gradientTransform="matrix(1, 0, 0, -1, -1.08, -231.52)" xlink:href="#linear-gradient-8"/><radialGradient id="radial-gradient-2" cx="39.6" cy="-410.78" r="26.2" gradientTransform="translate(-1.09 240.58) scale(0.88 0.48)" gradientUnits="userSpaceOnUse"><stop offset="0" stop-color="#f4b840"/><stop offset="0.22" stop-color="#f4ba42"/><stop offset="0.48" stop-color="#f5c146"/><stop offset="0.75" stop-color="#f7cb51"/><stop offset="1" stop-color="#f9d862"/></radialGradient><linearGradient id="linear-gradient-33" x1="-1359.29" y1="2709.92" x2="-1357.44" y2="2707.35" gradientTransform="matrix(-0.41, -0.92, -0.92, 0.41, 1976.87, -2308.3)" xlink:href="#linear-gradient-8"/><linearGradient id="linear-gradient-34" x1="-1358.02" y1="2711.53" x2="-1356.56" y2="2709.51" gradientTransform="matrix(-0.41, -0.92, -0.92, 0.41, 1976.87, -2308.3)" xlink:href="#linear-gradient-8"/><linearGradient id="linear-gradient-35" x1="-1360.15" y1="2711.59" x2="-1359.27" y2="2710.37" gradientTransform="matrix(-0.41, -0.92, -0.92, 0.41, 1976.87, -2308.3)" xlink:href="#linear-gradient-8"/><linearGradient id="linear-gradient-36" x1="-2764.14" y1="1450.03" x2="-2762.78" y2="1448.13" gradientTransform="matrix(0.41, -0.92, -0.92, -0.41, 2513.3, -1886.33)" xlink:href="#linear-gradient-8"/><linearGradient id="linear-gradient-37" x1="-2763.21" y1="1451.23" x2="-2762.13" y2="1449.73" gradientTransform="matrix(0.41, -0.92, -0.92, -0.41, 2513.3, -1886.33)" xlink:href="#linear-gradient-8"/><linearGradient id="linear-gradient-38" x1="-2764.78" y1="1451.27" x2="-2764.13" y2="1450.37" gradientTransform="matrix(0.41, -0.92, -0.92, -0.41, 2513.3, -1886.33)" xlink:href="#linear-gradient-8"/></defs><title>Суші штат_іконки_деталізовані</title><path class="cls-1" d="M53,9.59H22.93V21.11c0,6.79,30.07,6.79,30.07,0V9.59Z"/><path class="cls-2" d="M53,9.59c0,6.78-30.07,6.78-30.07,0S53,2.8,53,9.59Z"/><path class="cls-3" d="M46.71,9c0-1.1-2.05-1.83-4.76-2.17C36.77,6.2,30.82,6.93,30.82,9c0,1.19.77,1.93,3.77,2.25,5.14.53,12.12-.22,12.12-2.25Z"/><path class="cls-4" d="M42.75,11.1c-2.11-.51-3.64-2-3.64-3.82a3.21,3.21,0,0,1,.06-.63c3.94.13,7.54.93,7.54,2.39,0,1-1.66,1.68-4,2.06Z"/><path class="cls-5" d="M42,6.87c-.37,1.36-2.44,2.4-4.93,2.4-2.31,0-4.25-.89-4.82-2.11A31.51,31.51,0,0,1,42,6.87Z"/><path class="cls-6" d="M29.22,9c0-1.15,2.24-1.89,5.13-2.22A2.27,2.27,0,0,1,36.88,8.9a.57.57,0,0,1,0,.13,2.54,2.54,0,0,1-.1.68,2.27,2.27,0,0,1-2.43,1.55c-2.89-.33-5.14-1.07-5.14-2.22Z"/><path class="cls-7" d="M40.55,10.2a2.07,2.07,0,0,1,2.78-.94l2.18,1.08a14.14,14.14,0,0,1-4.2.95A.76.76,0,0,1,40.55,10.2Z"/><g class="cls-8"><g class="cls-8"><circle class="cls-9" cx="25.98" cy="8.67" r="0.55"/><circle class="cls-10" cx="26.4" cy="10.35" r="0.43"/><circle class="cls-11" cx="27.89" cy="9.16" r="0.26"/><circle class="cls-12" cx="48.45" cy="10.47" r="0.55"/><circle class="cls-13" cx="47.44" cy="11.88" r="0.43"/><circle class="cls-14" cx="49.32" cy="12.24" r="0.26"/><circle class="cls-15" cx="28.16" cy="6.74" r="0.4"/><circle class="cls-16" cx="27.44" cy="7.8" r="0.32"/><circle class="cls-17" cx="28.83" cy="8.03" r="0.19"/></g></g><path class="cls-18" d="M32.18,36.66a5.17,5.17,0,0,0,4.89-5c0-1.3.06-2.62.06-4,0-.54,0-1.07,0-1.6a7.61,7.61,0,0,0-7.28-7.5c-3.29-.14-6.86-.22-10.59-.22s-7.29.08-10.58.22a7.61,7.61,0,0,0-7.28,7.5c0,.53,0,1.06,0,1.6,0,1.35,0,2.67.06,4a5.16,5.16,0,0,0,4.88,5c3.91.21,8.3.33,12.93.33s9-.12,12.93-.33Z"/><path class="cls-19" d="M37.13,27.68c0,1.35,0,2.67-.06,4a5.17,5.17,0,0,1-4.89,5c-3.9.21-8.29.33-12.93.33-3.66,0-7.16-.07-10.39-.21L1.39,29.31c0-.54,0-1.08,0-1.63s0-1.07,0-1.6a7.6,7.6,0,0,1,7.28-7.5c3.29-.14,6.85-.22,10.58-.22s7.3.08,10.59.22a7.61,7.61,0,0,1,7.28,7.5c0,.53,0,1.06,0,1.6Z"/><path class="cls-20" d="M1.45,31.87a5.16,5.16,0,0,0,4.87,4.79c3.91.21,8.3.33,12.93.33s9-.12,12.93-.33a5.17,5.17,0,0,0,4.88-4.79Z"/><path class="cls-21" d="M34.26,30.16a43.44,43.44,0,0,0-15-2.43,43.42,43.42,0,0,0-15,2.43C2.09,31,0,28.53,0,25.22,0,23,1,21.05,2.37,20.38c4.18-2,10.19-3.22,16.88-3.22S32,18.4,36.14,20.38c1.41.67,2.37,2.63,2.37,4.84,0,3.31-2.09,5.75-4.25,4.94Z"/><path class="cls-22" d="M38.51,25.22c0,2.88-1.58,5.09-3.41,5.09a2.53,2.53,0,0,1-.84-.15,34.47,34.47,0,0,0-5.2-1.48,49.18,49.18,0,0,0-9.81-.95,43.42,43.42,0,0,0-15,2.43,2.42,2.42,0,0,1-1,.15A14.61,14.61,0,0,1,7,20.23a7.13,7.13,0,0,1,4.29-2.45,50.94,50.94,0,0,1,8-.62,49.17,49.17,0,0,1,9.12.82,32.06,32.06,0,0,1,7.77,2.4c1.41.67,2.37,2.63,2.37,4.84Z"/><path class="cls-23" d="M36.14,20.38c-4.18-2-10.2-3.22-16.89-3.22-.47,0-.94,0-1.41,0A5.14,5.14,0,0,0,14,19l0,0a14.88,14.88,0,0,0-3.7,9.51,49.46,49.46,0,0,1,9-.79,43.44,43.44,0,0,1,15,2.43c2.16.81,4.25-1.63,4.25-4.94,0-2.21-1-4.17-2.37-4.84Z"/><path class="cls-24" d="M36.14,20.38A37.79,37.79,0,0,0,23.2,17.3a1.45,1.45,0,0,0-1.2.49h0a14.7,14.7,0,0,0-3.69,9.94h.94a43.44,43.44,0,0,1,15,2.43c2.16.81,4.25-1.63,4.25-4.94,0-2.21-1-4.17-2.37-4.84Z"/><path class="cls-25" d="M36.14,20.38a30.64,30.64,0,0,0-6-2,1,1,0,0,0-1,.32h0a14.88,14.88,0,0,0-3.7,9.43,38.08,38.08,0,0,1,8.8,2.06c2.16.81,4.25-1.63,4.25-4.94C38.51,23,37.55,21.05,36.14,20.38Z"/><g class="cls-8"><circle class="cls-26" cx="6.51" cy="31.94" r="0.67"/><circle class="cls-27" cx="6.19" cy="34.05" r="0.53"/><circle class="cls-28" cx="8.45" cy="33.39" r="0.32"/><circle class="cls-29" cx="9.9" cy="30.77" r="0.5"/><circle class="cls-30" cx="8.58" cy="31.64" r="0.39"/><circle class="cls-31" cx="10.05" cy="32.56" r="0.24"/></g><path class="cls-32" d="M46.68,48.17a5.17,5.17,0,0,0,4.88-5c0-1.3.06-2.63.06-4,0-.53,0-1.06,0-1.59a7.59,7.59,0,0,0-7.28-7.5c-3.29-.14-6.85-.22-10.58-.22s-7.3.08-10.59.22a7.6,7.6,0,0,0-7.28,7.5c0,.53,0,1.06,0,1.59,0,1.35,0,2.68.06,4a5.18,5.18,0,0,0,4.89,5c3.9.21,8.29.33,12.93.33s9-.12,12.93-.33Z"/><path class="cls-33" d="M51.62,39.19c0,1.34,0,2.67-.06,4a5.17,5.17,0,0,1-4.89,5c-3.9.21-8.29.33-12.92.33-3.66,0-7.17-.08-10.4-.21l-7.47-7.47c0-.54,0-1.09,0-1.63s0-1.07,0-1.6a7.6,7.6,0,0,1,7.28-7.5c3.29-.14,6.86-.22,10.59-.22s7.29.08,10.58.22a7.59,7.59,0,0,1,7.28,7.5c0,.53,0,1.06,0,1.6Z"/><path class="cls-34" d="M15.94,43.37a5.18,5.18,0,0,0,4.88,4.8c3.9.21,8.29.33,12.93.33s9-.12,12.93-.33a5.17,5.17,0,0,0,4.87-4.8Z"/><path class="cls-35" d="M48.75,41.66a43.66,43.66,0,0,0-15-2.43,43.68,43.68,0,0,0-15,2.43c-2.16.81-4.25-1.62-4.25-4.93,0-2.21,1-4.18,2.37-4.85,4.18-2,10.2-3.22,16.89-3.22s12.7,1.24,16.88,3.22C52,32.55,53,34.52,53,36.73,53,40,50.91,42.47,48.75,41.66Z"/><g class="cls-8"><circle class="cls-36" cx="44.86" cy="42.6" r="0.67"/><circle class="cls-37" cx="42.75" cy="42.28" r="0.53"/><circle class="cls-38" cx="43.4" cy="44.53" r="0.32"/><circle class="cls-39" cx="46.02" cy="45.98" r="0.5"/><circle class="cls-40" cx="45.16" cy="44.66" r="0.39"/><circle class="cls-41" cx="44.24" cy="46.14" r="0.24"/></g></svg>