<svg id="Layer_1" data-name="Layer 1" xmlns="http://www.w3.org/2000/svg" xmlns:xlink="http://www.w3.org/1999/xlink" viewBox="0 0 53 53"><defs><style>.cls-1{fill:url(#linear-gradient);}.cls-2{fill:url(#linear-gradient-2);}.cls-3{fill:url(#linear-gradient-3);}.cls-4{fill:url(#linear-gradient-4);}.cls-5{fill:url(#linear-gradient-5);}.cls-6{fill:url(#linear-gradient-6);}.cls-7{fill:url(#linear-gradient-7);}.cls-8{fill:url(#linear-gradient-8);}.cls-9{fill:url(#linear-gradient-9);}.cls-10{fill:url(#linear-gradient-10);}.cls-11{fill:url(#linear-gradient-11);}.cls-12{fill:url(#linear-gradient-12);}.cls-13{fill:url(#linear-gradient-13);}.cls-14{fill:url(#linear-gradient-14);}.cls-15{fill:url(#linear-gradient-15);}.cls-16{fill:url(#linear-gradient-16);}.cls-17{fill:url(#linear-gradient-17);}.cls-18{fill:url(#linear-gradient-18);}.cls-19{fill:url(#linear-gradient-19);}.cls-20{fill:url(#linear-gradient-20);}.cls-21{fill:url(#linear-gradient-21);}.cls-22{fill:url(#linear-gradient-22);}.cls-23{fill:url(#linear-gradient-23);}.cls-24{fill:url(#linear-gradient-24);}.cls-25{fill:url(#linear-gradient-25);}.cls-26{fill:url(#linear-gradient-26);}.cls-27{fill:url(#linear-gradient-27);}.cls-28{fill:url(#linear-gradient-28);}.cls-29{fill:url(#linear-gradient-29);}.cls-30{fill:url(#linear-gradient-30);}.cls-31{fill:url(#linear-gradient-31);}.cls-32{fill:url(#linear-gradient-32);}.cls-33{fill:url(#linear-gradient-33);}.cls-34{fill:url(#linear-gradient-34);}.cls-35{fill:url(#linear-gradient-35);}.cls-36{fill:url(#linear-gradient-36);}.cls-37{fill:url(#linear-gradient-37);}.cls-38{fill:url(#linear-gradient-38);}.cls-39{fill:url(#linear-gradient-39);}.cls-40{fill:url(#linear-gradient-40);}.cls-41{fill:url(#linear-gradient-41);}.cls-42{fill:url(#linear-gradient-42);}.cls-43{fill:url(#linear-gradient-43);}.cls-44{fill:url(#linear-gradient-44);}.cls-45{fill:url(#linear-gradient-45);}.cls-46{fill:url(#linear-gradient-46);}.cls-47{fill:url(#linear-gradient-47);}.cls-48{fill:url(#linear-gradient-48);}.cls-49{fill:url(#linear-gradient-49);}.cls-50{fill:url(#linear-gradient-50);}.cls-51{fill:url(#linear-gradient-51);}.cls-52{fill:url(#linear-gradient-52);}.cls-53{fill:url(#linear-gradient-53);}</style><linearGradient id="linear-gradient" x1="24.35" y1="-239.85" x2="28.86" y2="-250.84" gradientTransform="matrix(1, 0, 0, -1, -0.5, -231.52)" gradientUnits="userSpaceOnUse"><stop offset="0" stop-color="#f9d862"/><stop offset="0.3" stop-color="#f7cc5b"/><stop offset="0.86" stop-color="#f3ae4a"/><stop offset="1" stop-color="#f2a546"/></linearGradient><linearGradient id="linear-gradient-2" x1="27.01" y1="-246.19" x2="31.92" y2="-216.34" gradientTransform="matrix(1, 0, 0, -1, -0.5, -231.52)" gradientUnits="userSpaceOnUse"><stop offset="0" stop-color="#e4402b" stop-opacity="0"/><stop offset="1" stop-color="#b03634"/></linearGradient><linearGradient id="linear-gradient-3" x1="24.95" y1="-250.39" x2="21.93" y2="-224.05" xlink:href="#linear-gradient-2"/><linearGradient id="linear-gradient-4" x1="23.14" y1="-247.98" x2="27.39" y2="-223.96" xlink:href="#linear-gradient-2"/><linearGradient id="linear-gradient-5" x1="21.87" y1="-246.58" x2="25.69" y2="-235.38" xlink:href="#linear-gradient-2"/><linearGradient id="linear-gradient-6" x1="19.24" y1="-249.8" x2="18.63" y2="-239.85" xlink:href="#linear-gradient-2"/><linearGradient id="linear-gradient-7" x1="10.74" y1="-244.33" x2="11.93" y2="-245.87" xlink:href="#linear-gradient"/><linearGradient id="linear-gradient-8" x1="12.97" y1="-241.42" x2="15.33" y2="-243.6" xlink:href="#linear-gradient"/><linearGradient id="linear-gradient-9" x1="16.11" y1="-240.14" x2="18.84" y2="-243.07" xlink:href="#linear-gradient"/><linearGradient id="linear-gradient-10" x1="19.14" y1="-238.04" x2="22.74" y2="-242.62" xlink:href="#linear-gradient"/><linearGradient id="linear-gradient-11" x1="20.99" y1="-236.39" x2="25.63" y2="-242.71" xlink:href="#linear-gradient"/><linearGradient id="linear-gradient-12" x1="26.21" y1="-238.32" x2="29.01" y2="-242.98" xlink:href="#linear-gradient"/><linearGradient id="linear-gradient-13" x1="19.3" y1="-238.25" x2="21.44" y2="-241.21" gradientTransform="matrix(1, 0, 0, -1, -0.5, -231.52)" gradientUnits="userSpaceOnUse"><stop offset="0" stop-color="#c0d645"/><stop offset="0.23" stop-color="#b5ca41"/><stop offset="0.64" stop-color="#99ab35"/><stop offset="1" stop-color="#7d8929"/></linearGradient><linearGradient id="linear-gradient-14" x1="17.49" y1="-239.94" x2="19.18" y2="-242.28" xlink:href="#linear-gradient-13"/><linearGradient id="linear-gradient-15" x1="20.1" y1="-241.5" x2="21.12" y2="-242.91" xlink:href="#linear-gradient-13"/><linearGradient id="linear-gradient-16" x1="23.34" y1="-240.19" x2="25.48" y2="-243.15" xlink:href="#linear-gradient-13"/><linearGradient id="linear-gradient-17" x1="24.58" y1="-238.19" x2="26.26" y2="-240.53" xlink:href="#linear-gradient-13"/><linearGradient id="linear-gradient-18" x1="22.08" y1="-238.42" x2="23.1" y2="-239.83" xlink:href="#linear-gradient-13"/><linearGradient id="linear-gradient-19" x1="21.29" y1="-241.63" x2="22.87" y2="-243.82" xlink:href="#linear-gradient-13"/><linearGradient id="linear-gradient-20" x1="21.77" y1="-240.01" x2="23.02" y2="-241.73" xlink:href="#linear-gradient-13"/><linearGradient id="linear-gradient-21" x1="19.98" y1="-240.67" x2="20.73" y2="-241.72" xlink:href="#linear-gradient-13"/><linearGradient id="linear-gradient-22" x1="27.81" y1="-238" x2="29.95" y2="-240.96" xlink:href="#linear-gradient-13"/><linearGradient id="linear-gradient-23" x1="25.99" y1="-239.69" x2="27.68" y2="-242.03" xlink:href="#linear-gradient-13"/><linearGradient id="linear-gradient-24" x1="28.61" y1="-241.25" x2="29.63" y2="-242.66" xlink:href="#linear-gradient-13"/><linearGradient id="linear-gradient-25" x1="32.94" y1="-239.49" x2="35.08" y2="-242.45" xlink:href="#linear-gradient-13"/><linearGradient id="linear-gradient-26" x1="32.17" y1="-237.98" x2="33.86" y2="-240.32" xlink:href="#linear-gradient-13"/><linearGradient id="linear-gradient-27" x1="30.59" y1="-238.17" x2="31.6" y2="-239.58" xlink:href="#linear-gradient-13"/><linearGradient id="linear-gradient-28" x1="29.8" y1="-241.38" x2="31.37" y2="-243.57" xlink:href="#linear-gradient-13"/><linearGradient id="linear-gradient-29" x1="30.28" y1="-239.76" x2="31.52" y2="-241.49" xlink:href="#linear-gradient-13"/><linearGradient id="linear-gradient-30" x1="28.48" y1="-240.43" x2="29.23" y2="-241.47" xlink:href="#linear-gradient-13"/><linearGradient id="linear-gradient-31" x1="-2382.65" y1="955.33" x2="-2381.28" y2="953.43" gradientTransform="matrix(0, 1, 1, 0, -931.86, 2398.27)" gradientUnits="userSpaceOnUse"><stop offset="0" stop-color="#ec6d60"/><stop offset="0.22" stop-color="#eb6658"/><stop offset="0.6" stop-color="#e85543"/><stop offset="1" stop-color="#e4402b"/></linearGradient><linearGradient id="linear-gradient-32" x1="-2382.05" y1="952.09" x2="-2381.39" y2="951.18" xlink:href="#linear-gradient-31"/><linearGradient id="linear-gradient-33" x1="-2380.96" y1="955" x2="-2380.31" y2="954.1" xlink:href="#linear-gradient-31"/><linearGradient id="linear-gradient-34" x1="-2382.1" y1="957.98" x2="-2381.44" y2="957.08" xlink:href="#linear-gradient-31"/><linearGradient id="linear-gradient-35" x1="-2381.32" y1="951.99" x2="-2380.31" y2="950.59" xlink:href="#linear-gradient-31"/><linearGradient id="linear-gradient-36" x1="-2382.27" y1="953.71" x2="-2381.47" y2="952.6" xlink:href="#linear-gradient-31"/><linearGradient id="linear-gradient-37" x1="-2382.27" y1="956.53" x2="-2381.47" y2="955.42" xlink:href="#linear-gradient-31"/><linearGradient id="linear-gradient-38" x1="-2381.51" y1="954.11" x2="-2381.03" y2="953.44" xlink:href="#linear-gradient-31"/><linearGradient id="linear-gradient-39" x1="30.62" y1="-251.28" x2="20.81" y2="-245.39" xlink:href="#linear-gradient-2"/><linearGradient id="linear-gradient-40" x1="22.93" y1="-245.9" x2="26.02" y2="-249.22" gradientTransform="matrix(1, 0, 0, -1, -0.5, -231.52)" gradientUnits="userSpaceOnUse"><stop offset="0" stop-color="#f7f5fa"/><stop offset="1" stop-color="#ebdcf8"/></linearGradient><linearGradient id="linear-gradient-41" x1="22.7" y1="-247.69" x2="26.5" y2="-247.69" gradientTransform="matrix(1, 0, 0, -1, -0.5, -231.52)" gradientUnits="userSpaceOnUse"><stop offset="0" stop-color="#eda892"/><stop offset="0.36" stop-color="#eda094"/><stop offset="0.94" stop-color="#ef8a9b"/><stop offset="1" stop-color="#ee879c"/></linearGradient><linearGradient id="linear-gradient-42" x1="34.4" y1="-247.13" x2="25.71" y2="-235.6" xlink:href="#linear-gradient-2"/><linearGradient id="linear-gradient-43" x1="28.29" y1="-240.42" x2="31.12" y2="-243.46" xlink:href="#linear-gradient-40"/><linearGradient id="linear-gradient-44" x1="-1177.65" y1="932.44" x2="-1173.99" y2="932.44" gradientTransform="matrix(0.61, 0.79, 0.79, -0.61, 11.5, 1518.22)" xlink:href="#linear-gradient-41"/><linearGradient id="linear-gradient-45" x1="20.89" y1="-248" x2="13.67" y2="-238.42" xlink:href="#linear-gradient-2"/><linearGradient id="linear-gradient-46" x1="15.73" y1="-242.56" x2="18.56" y2="-245.6" xlink:href="#linear-gradient-40"/><linearGradient id="linear-gradient-47" x1="-1183.64" y1="921.21" x2="-1179.98" y2="921.21" gradientTransform="matrix(0.61, 0.79, 0.79, -0.61, 11.5, 1518.22)" xlink:href="#linear-gradient-41"/><linearGradient id="linear-gradient-48" x1="-37.34" y1="-172.65" x2="-36.86" y2="-173.42" gradientTransform="matrix(0.84, -0.55, -0.55, -0.84, -24.58, -153.07)" xlink:href="#linear-gradient-31"/><linearGradient id="linear-gradient-49" x1="-21.03" y1="-195.85" x2="-20.24" y2="-197.11" gradientTransform="matrix(0.91, -0.43, -0.43, -0.91, -23.29, -173.39)" xlink:href="#linear-gradient-31"/><linearGradient id="linear-gradient-50" x1="19" y1="-251.96" x2="42.05" y2="-281.17" xlink:href="#linear-gradient-40"/><linearGradient id="linear-gradient-51" x1="26.76" y1="-277.94" x2="26.76" y2="-283.35" gradientTransform="matrix(1, 0, 0, -1, -0.5, -231.52)" gradientUnits="userSpaceOnUse"><stop offset="0" stop-color="#ebdcf8" stop-opacity="0"/><stop offset="0.49" stop-color="#b6abd2" stop-opacity="0.49"/><stop offset="1" stop-color="#827bad"/></linearGradient><linearGradient id="linear-gradient-52" x1="17.6" y1="-253.02" x2="38.88" y2="-279.98" gradientTransform="matrix(1, 0, 0, -1, -0.5, -231.52)" xlink:href="#linear-gradient-31"/><linearGradient id="linear-gradient-53" x1="4.15" y1="25.8" x2="7.42" y2="21.67" gradientTransform="matrix(1, 0, 0, 1, 0, 0)" xlink:href="#linear-gradient-40"/></defs><title>Суші штат_іконки_деталізовані</title><path class="cls-1" d="M44.87,18a115.3,115.3,0,0,1-18.2,1.17c-.69,0-1.37-.82-2.05-.83-.91,0-1.82.76-2.71.72A94.55,94.55,0,0,1,10.22,18a17.71,17.71,0,0,1,6.35-7.37,20.14,20.14,0,0,1,21.94,0A17.66,17.66,0,0,1,44.87,18Z"/><path class="cls-2" d="M42.14,18.43a20.06,20.06,0,0,0-6.58-7.11A21.83,21.83,0,0,0,29.7,8.59,15.12,15.12,0,0,0,18.34,9.64a19.44,19.44,0,0,0-1.77,1A17.71,17.71,0,0,0,10.22,18c8.49,1.42,22.43,1.55,31.92.39Z"/><path class="cls-3" d="M38.55,18.79a20,20,0,0,0-6.45-6.86,21.64,21.64,0,0,0-5.81-2.72,11.51,11.51,0,0,0-9.67,1.43l-.05,0A17.71,17.71,0,0,0,10.22,18c7.47,1.25,19.16,1.5,28.33.75Z"/><path class="cls-4" d="M34.84,19a20.24,20.24,0,0,0-6.34-6.69,21.83,21.83,0,0,0-5.37-2.58,7.57,7.57,0,0,0-6.53.89l0,0A17.71,17.71,0,0,0,10.22,18,94.55,94.55,0,0,0,21.91,19.1c.82,0,1.65-.51,2.48-.49s1.53.59,2.3.6C29.44,19.22,32.2,19.16,34.84,19Z"/><path class="cls-5" d="M30.92,19.17a20.4,20.4,0,0,0-5.74-5.71,21.76,21.76,0,0,0-5.87-2.74,2.7,2.7,0,0,0-.4-.07A5.49,5.49,0,0,0,14.82,12a17.34,17.34,0,0,0-4.61,6A94.74,94.74,0,0,0,21.9,19.1c.8,0,1.6-.63,2.41-.61s1.58.71,2.37.72c1.42,0,2.84,0,4.24,0Z"/><path class="cls-6" d="M27.32,19.21a20.53,20.53,0,0,0-4.85-4.48A22,22,0,0,0,16.6,12h0a2.53,2.53,0,0,0-2.47.63A17.19,17.19,0,0,0,10.22,18a112.25,112.25,0,0,0,17.1,1.17Z"/><path class="cls-7" d="M14.28,11.37a11.23,11.23,0,0,0-6.52,6.24c0,.13-.11.26-.16.4.73.17,1.52.33,2.38.48A21.31,21.31,0,0,1,10.86,16a12.4,12.4,0,0,1,2.87-4.13c.2-.19.41-.37.62-.54l-.07,0Z"/><path class="cls-8" d="M19.46,8A11.29,11.29,0,0,0,13.55,11a12.09,12.09,0,0,0-2.86,4.12,22.54,22.54,0,0,0-1,2.86l.59.1c.66.11,1.35.21,2.06.31.06-.2.12-.39.19-.58a20.45,20.45,0,0,1,1.23-3.58,12.56,12.56,0,0,1,1.87-3A12.18,12.18,0,0,1,19.91,8L19.46,8Z"/><path class="cls-9" d="M22.59,6.77a12.23,12.23,0,0,0-7.28,4.11,12.51,12.51,0,0,0-1.87,2.95A21.5,21.5,0,0,0,12,18.31l.35.05,2.3.26a18,18,0,0,1,1.19-3.57c.29-.65,2-3.5,2.38-3.94A12.12,12.12,0,0,1,24.75,6.6a12.17,12.17,0,0,0-2.16.17Z"/><path class="cls-10" d="M26.3,6a10.91,10.91,0,0,0-8.4,4.55,10.31,10.31,0,0,0-.84,1.3,22,22,0,0,0-2.42,6.74c.88.09,1.78.17,2.71.23a21.12,21.12,0,0,1,.78-2.75c.2-.63.42-1.24.67-1.84a12.64,12.64,0,0,1,2.52-3.86A11.3,11.3,0,0,1,27.63,7a11.09,11.09,0,0,1,3.59,0A10.73,10.73,0,0,0,26.3,6Z"/><path class="cls-11" d="M27.42,6.75a11.23,11.23,0,0,0-6.31,3.44,13,13,0,0,0-2.52,4,24.39,24.39,0,0,0-1.37,4.7h.13l2.39.16a20.23,20.23,0,0,1,1.09-3.21c.05-.15.11-.3.17-.45a9.78,9.78,0,0,1,2.87-3.91,12.35,12.35,0,0,1,1.21-1A12.2,12.2,0,0,1,35.62,8.71a10.83,10.83,0,0,0-8.2-2Z"/><path class="cls-12" d="M41.34,12.27a12.32,12.32,0,0,0-1.5-1.48,12,12,0,0,0-14.76-.51,12.54,12.54,0,0,0-4.14,5.18A23.46,23.46,0,0,0,19.73,19h.16l1.78.08C23.58,13.73,28.16,10,33.51,10a11.81,11.81,0,0,1,8.18,3.4,1.49,1.49,0,0,0-.35-1.08Z"/><path class="cls-13" d="M20.3,8.89a.78.78,0,0,0-1.46-.53.76.76,0,0,0,.46,1A.78.78,0,0,0,20.3,8.89Z"/><path class="cls-14" d="M17.81,9.54a.62.62,0,0,0-.79.37.62.62,0,0,0,.37.78.6.6,0,0,0,.78-.36A.61.61,0,0,0,17.81,9.54Z"/><path class="cls-15" d="M20.13,11a.37.37,0,1,0-.25.69.38.38,0,0,0,.48-.22A.36.36,0,0,0,20.13,11Z"/><path class="cls-16" d="M23.53,9.8a.79.79,0,0,0-.69.86.78.78,0,0,0,.86.68.77.77,0,0,0,.69-.85A.78.78,0,0,0,23.53,9.8Z"/><path class="cls-17" d="M24.65,7.76a.61.61,0,1,0,.67.54A.6.6,0,0,0,24.65,7.76Z"/><path class="cls-18" d="M22,7.93a.37.37,0,0,0-.33.4.38.38,0,0,0,.41.33.37.37,0,0,0,.33-.41A.36.36,0,0,0,22,7.93Z"/><path class="cls-19" d="M21.18,11.23a.58.58,0,0,0-.34.74.58.58,0,0,0,1.08-.4A.58.58,0,0,0,21.18,11.23Z"/><path class="cls-20" d="M21.59,9.57a.44.44,0,0,0-.26.58.45.45,0,0,0,.85-.32A.46.46,0,0,0,21.59,9.57Z"/><path class="cls-21" d="M19.89,10.69a.27.27,0,0,0,.16-.35.28.28,0,0,0-.35-.16.26.26,0,0,0-.16.35A.27.27,0,0,0,19.89,10.69Z"/><path class="cls-22" d="M28.83,8.64a.76.76,0,0,0-.46-1,.77.77,0,1,0-.53,1.45A.77.77,0,0,0,28.83,8.64Z"/><path class="cls-23" d="M26.35,9.29a.62.62,0,0,0-.79.37.61.61,0,0,0,1.15.42A.61.61,0,0,0,26.35,9.29Z"/><path class="cls-24" d="M28.67,10.79a.37.37,0,1,0,.22.47A.36.36,0,0,0,28.67,10.79Z"/><path class="cls-25" d="M33.17,9.1a.77.77,0,1,0,.86.68A.78.78,0,0,0,33.17,9.1Z"/><path class="cls-26" d="M33,8.09a.61.61,0,0,0-.68-.54.6.6,0,0,0-.54.67.61.61,0,0,0,.67.54A.62.62,0,0,0,33,8.09Z"/><path class="cls-27" d="M30.49,7.68A.37.37,0,1,0,30.9,8,.37.37,0,0,0,30.49,7.68Z"/><path class="cls-28" d="M29.72,11a.57.57,0,0,0-.34.73.57.57,0,0,0,.74.34.58.58,0,0,0,.34-.74A.57.57,0,0,0,29.72,11Z"/><path class="cls-29" d="M30.13,9.32a.45.45,0,1,0,.59.26A.46.46,0,0,0,30.13,9.32Z"/><path class="cls-30" d="M28.43,10.44a.27.27,0,0,0,.16-.35.29.29,0,0,0-.36-.16.27.27,0,0,0,.2.51Z"/><path class="cls-31" d="M26.43,7.17a.52.52,0,0,0,.65-.28.48.48,0,0,0-.31-.62.52.52,0,0,0-.65.29A.47.47,0,0,0,26.43,7.17Z"/><path class="cls-32" d="M23.89,7.17a.22.22,0,0,0-.14-.29.24.24,0,0,0-.31.14.22.22,0,0,0,.14.29A.25.25,0,0,0,23.89,7.17Z"/><path class="cls-33" d="M26.83,8.16a.24.24,0,0,0-.48.05.25.25,0,0,0,.27.2A.23.23,0,0,0,26.83,8.16Z"/><path class="cls-34" d="M29.82,7a.24.24,0,0,0-.48.05.25.25,0,0,0,.27.2A.22.22,0,0,0,29.82,7Z"/><path class="cls-35" d="M23.76,7.81a.38.38,0,0,0-.48-.2.34.34,0,0,0-.22.45.38.38,0,0,0,.48.21A.35.35,0,0,0,23.76,7.81Z"/><path class="cls-36" d="M25.5,6.82a.3.3,0,0,0-.38-.16A.28.28,0,0,0,25,7a.3.3,0,0,0,.38.16A.26.26,0,0,0,25.5,6.82Z"/><path class="cls-37" d="M28.33,6.82A.3.3,0,0,0,28,6.66a.28.28,0,0,0-.17.36.3.3,0,0,0,.38.16A.27.27,0,0,0,28.33,6.82Z"/><path class="cls-38" d="M25.6,7.64a.2.2,0,0,0,.23.1.18.18,0,0,0,.11-.22.19.19,0,0,0-.23-.1A.17.17,0,0,0,25.6,7.64Z"/><path class="cls-39" d="M26.51,15.22a.79.79,0,0,0-.77-.33h-.12a.79.79,0,0,1-.46-.15,2.28,2.28,0,0,0-.22-.23.8.8,0,0,0-.65-.34.79.79,0,0,0-.66.36.81.81,0,0,1-.79.35h0a.86.86,0,0,0-.94,1h0a.62.62,0,0,1,0,.13.93.93,0,0,1-.33.72.93.93,0,0,0-.34.72.92.92,0,0,0,.32.7s.12,0,.16.08,0,.14.05.15a1,1,0,0,1,.13.63h0v.07c.77,0,1.56-.51,2.35-.5s1.61.6,2.42.61c1.18,0,2.35,0,3.52,0Z"/><path class="cls-40" d="M27.34,17.47a.89.89,0,0,1-.33.71.94.94,0,0,0-.33.85h0a1.09,1.09,0,0,1,0,.18l-2.45,0-1.35,0-1,0V19h0a.94.94,0,0,0-.32-.85.9.9,0,0,1-.34-.71.93.93,0,0,1,.34-.72.93.93,0,0,0,.33-.72.62.62,0,0,0,0-.13h0a.86.86,0,0,1,.94-1h0a.81.81,0,0,0,.79-.35.79.79,0,0,1,.66-.36.82.82,0,0,1,.67.36.79.79,0,0,0,.66.36h.12a.86.86,0,0,1,.94,1h0a.93.93,0,0,0,.33.85.92.92,0,0,1,.33.72Z"/><path class="cls-41" d="M26.09,17.21a1.64,1.64,0,0,1-.55,1,1.36,1.36,0,0,1-1.07.31,1.18,1.18,0,0,1-.82-.5,1.41,1.41,0,0,1-.25-1,.38.38,0,0,1,.42-.35.41.41,0,0,1,.32.45.54.54,0,0,0,.1.39.48.48,0,0,0,.32.2.7.7,0,0,0,.52-.15.78.78,0,0,0,.27-.51,1,1,0,0,0-.84-1.18,1.28,1.28,0,0,0-1,.29,1.43,1.43,0,0,0-.5.94,1.87,1.87,0,0,0,1.2,2l-1.35,0a2.81,2.81,0,0,1-.49-.94,2.88,2.88,0,0,1-.09-1.14,2.09,2.09,0,0,1,2.29-1.92,1.83,1.83,0,0,1,1.49,2.07Z"/><path class="cls-42" d="M39.88,18.67l-8-8.67A.9.9,0,0,0,31,9.62h0a.88.88,0,0,1-.78-.27.94.94,0,0,0-1.33,0,.89.89,0,0,1-.79.27h0c-.55-.06-1,.33-.94.78h0a.64.64,0,0,1-.32.66.62.62,0,0,0-.05,1.07l.25.28a.46.46,0,0,1,.12.4h0a.63.63,0,0,0,.28.61l5.27,5.69c2.51-.08,4.94-.23,7.19-.45Z"/><path class="cls-43" d="M32.25,12.16a.64.64,0,0,0-.33.65h0c.08.45-.39.84-.94.78h0a.88.88,0,0,0-.78.27.94.94,0,0,1-1.33,0,.89.89,0,0,0-.79-.27h0c-.55.06-1-.33-.94-.78h0a.63.63,0,0,0-.32-.65.62.62,0,0,1,0-1.1.64.64,0,0,0,.32-.66h0c-.08-.45.39-.84.94-.78h0a.89.89,0,0,0,.79-.27.94.94,0,0,1,1.33,0,.88.88,0,0,0,.78.27h0c.55-.06,1,.33.94.78h0a.65.65,0,0,0,.33.66.62.62,0,0,1,0,1.1Z"/><path class="cls-44" d="M27.64,12.18a1.78,1.78,0,0,1-.09-.89,2,2,0,0,1,2.29-1.47,1.5,1.5,0,0,1,1.49,1.59,1.2,1.2,0,0,1-.55.8,1.65,1.65,0,0,1-1.07.24,1.25,1.25,0,0,1-.82-.39.89.89,0,0,1-.25-.75.37.37,0,0,1,.42-.27.33.33,0,0,1,.32.35.36.36,0,0,0,.1.3.51.51,0,0,0,.32.15.76.76,0,0,0,.52-.12.54.54,0,0,0,.27-.39.85.85,0,0,0-.84-.9,1.48,1.48,0,0,0-1,.22,1.06,1.06,0,0,0-.5.72A1.52,1.52,0,0,0,29.78,13a.33.33,0,0,1,.32.35.36.36,0,0,1-.41.26,2.42,2.42,0,0,1-2.05-1.41Z"/><path class="cls-45" d="M25.78,18.84c-1.3,0-2.6.31-3.88.26s-2.71-.12-4-.21l-3.07-3.32a.61.61,0,0,1-.28-.61h0a.49.49,0,0,0-.12-.4l-.26-.28a.67.67,0,0,1-.28-.52.64.64,0,0,1,.34-.55.65.65,0,0,0,.32-.65h0a.61.61,0,0,1,.05-.36.83.83,0,0,1,.44-.38,1,1,0,0,1,.45-.05h0a.9.9,0,0,0,.79-.27.88.88,0,0,1,.66-.27.92.92,0,0,1,.67.27.86.86,0,0,0,.66.28h.12a.89.89,0,0,1,.86.38Z"/><path class="cls-46" d="M19.64,14.3a.67.67,0,0,0-.32.66h0a.77.77,0,0,1-.94.78h0a.9.9,0,0,0-.78.27.94.94,0,0,1-1.33,0,.93.93,0,0,0-.79-.27h0a.77.77,0,0,1-.94-.78h0a.65.65,0,0,0-.32-.66.62.62,0,0,1,0-1.1.63.63,0,0,0,.32-.65h0c-.08-.46.39-.85.94-.79h0a.9.9,0,0,0,.79-.27.94.94,0,0,1,1.33,0,.88.88,0,0,0,.78.27h0c.55-.06,1,.33.94.79h0a.65.65,0,0,0,.32.65A.62.62,0,0,1,19.64,14.3Z"/><path class="cls-47" d="M15,14.32a1.75,1.75,0,0,1-.09-.88A2,2,0,0,1,17.24,12a1.5,1.5,0,0,1,1.48,1.59,1.13,1.13,0,0,1-.54.8,1.59,1.59,0,0,1-1.07.24,1.29,1.29,0,0,1-.82-.38.92.92,0,0,1-.25-.76.37.37,0,0,1,.42-.27.33.33,0,0,1,.32.35.32.32,0,0,0,.1.3.46.46,0,0,0,.32.15.83.83,0,0,0,.52-.11.58.58,0,0,0,.27-.39.85.85,0,0,0-.84-.91,1.46,1.46,0,0,0-1,.22,1,1,0,0,0-.5.72,1.52,1.52,0,0,0,1.5,1.61.33.33,0,0,1,.32.35.35.35,0,0,1-.41.26A2.4,2.4,0,0,1,15,14.32Z"/><path class="cls-48" d="M44.32.56l-12,24.35c-.13.33.32.6.8.49a.62.62,0,0,0,.46-.33L46.23.8c.25-.62-.76-1-1.53-.64a.73.73,0,0,0-.38.4Z"/><path class="cls-49" d="M48.48,2.56,33.1,25.08c-.17.31.24.64.73.6a.6.6,0,0,0,.5-.26l16-22.33c.33-.58-.62-1.15-1.43-.86a.81.81,0,0,0-.44.33Z"/><path class="cls-50" d="M38.5,53H14.23a3,3,0,0,1-3-2.26l-6-30.87A1.58,1.58,0,0,1,6.94,18.1H45.79a2.11,2.11,0,0,1,2.08,1.77l1,4.67a1.8,1.8,0,0,1-1.37,2.05L46.15,27,41.52,50.74A3,3,0,0,1,38.5,53Z"/><path class="cls-51" d="M9.68,42.82l1.53,7.92a3,3,0,0,0,3,2.26H38.5a3,3,0,0,0,3-2.26l1.53-7.92Z"/><path class="cls-52" d="M39,48.49H13.6c-1.56,0-2.9-.7-3.16-1.67L5.26,19.87l4.63,6.19a4.35,4.35,0,0,0,3.44,1.65l21.36.11a4.16,4.16,0,0,0,3.49-1.75l3.62-5.39,1.39,5.67a1.34,1.34,0,0,0,1.75,1L46.15,27l-3.87,19.8C42,47.75,40.61,48.49,39,48.49Z"/><path class="cls-53" d="M5.26,19.87l-2.59,5.7a1,1,0,0,0,1,1.39l3,.21Z"/></svg>