<svg width="110" height="31" viewBox="0 0 110 31" fill="none" xmlns="http://www.w3.org/2000/svg">
<path d="M76.0032 13.4209C75.1463 13.4209 74.4895 13.7084 74.4895 13.7084L74.308 14.8328C74.308 14.8328 74.8499 14.6029 75.6703 14.6029C76.1361 14.6029 76.4762 14.657 76.4762 15.0518C76.4762 15.2919 76.4349 15.3807 76.4349 15.3807C76.4349 15.3807 76.068 15.3494 75.8979 15.3494C74.8167 15.3494 73.6812 15.8296 73.6812 17.283C73.6812 18.4277 74.4255 18.689 74.8879 18.689C75.77 18.689 76.1506 18.0921 76.1701 18.0904L76.1288 18.5892H77.2295L77.7203 14.996C77.7195 13.4699 76.4454 13.4209 76.0032 13.4209ZM75.3861 17.5958C74.9981 17.5958 74.8969 17.2872 74.8969 17.1029C74.8969 16.7461 75.0823 16.3166 75.9984 16.3166C76.2122 16.3174 76.2349 16.3403 76.2705 16.347C76.2948 16.5669 76.1393 17.5958 75.3861 17.5958Z" fill="#B7B7B7"/>
<path d="M79.9781 14.6255C80.1539 14.6255 80.8318 14.6838 80.8318 14.6838L80.9897 13.532C80.9897 13.532 80.5508 13.4297 79.8364 13.4297C78.9115 13.4297 77.9736 13.8153 77.9736 15.1337C77.9736 16.6289 79.5384 16.4767 79.5384 17.1075C79.5384 17.527 79.101 17.5617 78.7641 17.5617C78.1801 17.5617 77.6553 17.3536 77.6537 17.3621L77.4868 18.5046C77.5168 18.513 77.8408 18.6636 78.8896 18.6636C79.1707 18.6636 80.78 18.7397 80.78 17.0052C80.78 15.3832 79.2905 15.7037 79.2905 15.0517C79.2905 14.727 79.5327 14.6255 79.9781 14.6255Z" fill="#B7B7B7"/>
<path d="M82.6081 14.7732H83.2698L83.4293 13.5453H82.8057L82.9328 12.7842H81.6831C81.6556 12.8121 80.9453 17.0769 80.9453 17.5944C80.9453 18.3649 81.3592 18.7065 81.9415 18.7006C82.3975 18.6972 82.753 18.5653 82.8786 18.5289L83.0349 17.4194C82.949 17.4194 82.8235 17.4583 82.7125 17.4583C82.2776 17.4583 82.2298 17.2156 82.2574 17.0371L82.6081 14.7732Z" fill="#B7B7B7"/>
<path d="M87.8461 7.65039H85.6155C85.3158 8.07355 85.0339 8.52378 84.7788 8.96387H88.7581C88.4819 8.50517 88.1765 8.06678 87.8461 7.65039Z" fill="#B7B7B7"/>
<path d="M105.25 22.4117C105.225 22.3736 105.205 22.3449 105.189 22.3271C105.18 22.3187 105.169 22.3094 105.154 22.3051C105.189 22.3026 105.218 22.2891 105.239 22.2662C105.259 22.2434 105.271 22.2163 105.271 22.185C105.271 22.1631 105.264 22.1419 105.252 22.1225C105.24 22.103 105.222 22.0887 105.2 22.081C105.18 22.0726 105.145 22.0684 105.097 22.0684H104.957V22.4954H105.023V22.3144H105.061C105.084 22.3144 105.102 22.3195 105.113 22.3296C105.13 22.344 105.154 22.377 105.183 22.4286L105.218 22.4962H105.3L105.25 22.4117ZM105.102 22.2578H105.021V22.1292H105.097C105.129 22.1292 105.15 22.1318 105.162 22.1369C105.175 22.1419 105.183 22.1495 105.191 22.1588C105.197 22.169 105.2 22.18 105.2 22.1918C105.2 22.2113 105.194 22.2282 105.18 22.24C105.166 22.251 105.14 22.2578 105.102 22.2578Z" fill="#B7B7B7"/>
<path d="M89.4345 10.25H84.0832C83.7415 10.9258 83.5147 11.4366 83.4507 11.5635H89.9415C89.7949 11.1118 89.6265 10.6746 89.4345 10.25Z" fill="#B7B7B7"/>
<path d="M72.1496 12.3828L70.9177 16.1956L70.8537 12.3828H69.0297L68.0303 18.5957H69.2363L69.9968 13.9122L70.1086 18.5957H70.9695L72.5756 13.9122L71.8637 18.5957H73.1434L74.1291 12.3828H72.1496Z" fill="#B7B7B7"/>
<path d="M96.2656 13.4209C95.4071 13.4209 94.751 13.7084 94.751 13.7084L94.5688 14.8328C94.5688 14.8328 95.1114 14.6029 95.9311 14.6029C96.3968 14.6029 96.7378 14.657 96.7378 15.0518C96.7378 15.2919 96.6949 15.3807 96.6949 15.3807C96.6949 15.3807 96.3288 15.3494 96.1571 15.3494C95.0766 15.3494 93.9419 15.8296 93.9419 17.283C93.9419 18.4277 94.687 18.689 95.1487 18.689C96.0299 18.689 96.4106 18.0921 96.4308 18.0904L96.3895 18.5892H97.4894L97.9802 14.996C97.9827 13.4699 96.7078 13.4209 96.2656 13.4209ZM95.65 17.5958C95.2613 17.5958 95.1608 17.2872 95.1608 17.1029C95.1608 16.7461 95.3463 16.3166 96.2624 16.3166C96.4754 16.3174 96.498 16.3403 96.5345 16.347C96.558 16.5669 96.4017 17.5958 95.65 17.5958Z" fill="#B7B7B7"/>
<path d="M105.29 18.0229C105.257 17.9586 105.208 17.9096 105.147 17.8758C105.087 17.8411 105.026 17.8242 104.961 17.8242C104.899 17.8251 104.836 17.842 104.775 17.8758C104.714 17.9096 104.667 17.9586 104.633 18.0229C104.599 18.0863 104.582 18.1522 104.582 18.2207C104.582 18.2892 104.599 18.3543 104.633 18.4168C104.666 18.4794 104.713 18.5293 104.773 18.5648C104.834 18.5994 104.896 18.6172 104.961 18.6172C105.027 18.6172 105.091 18.5994 105.15 18.5648C105.21 18.5293 105.257 18.4794 105.29 18.4168C105.325 18.3543 105.34 18.2892 105.34 18.2207C105.34 18.1505 105.324 18.0846 105.29 18.0229ZM105.237 18.3839C105.21 18.4363 105.171 18.476 105.12 18.5073C105.07 18.536 105.018 18.5512 104.963 18.5512C104.908 18.5512 104.856 18.536 104.806 18.5073C104.755 18.4777 104.717 18.4371 104.688 18.3839C104.659 18.3306 104.646 18.2765 104.646 18.2199C104.646 18.1632 104.66 18.1083 104.69 18.055C104.718 18.0026 104.756 17.962 104.808 17.9324C104.86 17.9028 104.911 17.8902 104.963 17.8902C105.016 17.8902 105.068 17.9037 105.117 17.9324C105.169 17.962 105.207 18.0017 105.236 18.055C105.264 18.1083 105.279 18.1632 105.279 18.2199C105.279 18.2765 105.266 18.3314 105.237 18.3839Z" fill="#B7B7B7"/>
<path d="M105.089 18.3557C105.066 18.3159 105.045 18.2879 105.029 18.271C105.02 18.2617 105.009 18.254 104.995 18.249C105.029 18.2464 105.058 18.2329 105.079 18.21C105.099 18.1879 105.111 18.1591 105.111 18.1286C105.111 18.1075 105.105 18.0854 105.092 18.0659C105.079 18.0473 105.062 18.0329 105.042 18.0244C105.021 18.016 104.986 18.0117 104.938 18.0117H104.795V18.4387H104.862V18.2574H104.9C104.923 18.2574 104.942 18.2625 104.953 18.2718C104.97 18.2871 104.993 18.3193 105.023 18.3727L105.058 18.4396H105.14L105.089 18.3557ZM104.944 18.199H104.863V18.0693H104.938C104.97 18.0693 104.991 18.0719 105.004 18.0761C105.015 18.082 105.025 18.088 105.031 18.099C105.038 18.11 105.042 18.1193 105.042 18.1337C105.042 18.1524 105.034 18.1685 105.022 18.1803C105.007 18.1947 104.982 18.199 104.944 18.199Z" fill="#B7B7B7"/>
<path d="M100.514 13.4824C99.9544 13.4824 99.5389 14.28 99.5389 14.28L99.6507 13.5467H98.486L97.7061 18.606H98.989C99.3543 16.4442 99.4207 14.691 100.288 15.0115C100.441 14.1759 100.589 13.852 100.755 13.4993C100.755 13.5002 100.677 13.4824 100.514 13.4824Z" fill="#B7B7B7"/>
<path d="M103.737 12.3883L103.467 14.1344C103.467 14.1344 102.997 13.4554 102.26 13.4554C101.114 13.4562 100.16 14.8979 100.16 16.5536C100.16 17.6232 100.67 18.6709 101.71 18.6709C102.459 18.6709 102.873 18.1255 102.873 18.1255L102.819 18.5914H104.035L104.991 12.3857L103.737 12.3883ZM102.152 17.4025C101.701 17.4025 101.491 17.0085 101.491 16.3895C101.491 15.3774 101.926 14.7102 102.476 14.7102C102.924 14.7111 103.155 15.0332 103.155 15.7926C103.155 16.4817 102.829 17.4025 102.152 17.4025Z" fill="#B7B7B7"/>
<path d="M108.38 0H64.9906C64.3394 0 63.813 0.550427 63.813 1.22937V29.7189C63.813 30.3978 64.3394 30.9482 64.9906 30.9482H108.38C109.032 30.9482 109.558 30.3978 109.558 29.7189V1.22937C109.558 0.550427 109.032 0 108.38 0ZM105.451 22.4728C105.417 22.5371 105.371 22.5861 105.311 22.6208C105.251 22.6555 105.188 22.6732 105.123 22.6732C105.056 22.6732 104.993 22.6555 104.933 22.6208C104.874 22.5861 104.827 22.5371 104.792 22.4728C104.759 22.4111 104.742 22.3452 104.742 22.2767C104.742 22.2082 104.759 22.1431 104.793 22.0788C104.826 22.0146 104.875 21.9664 104.935 21.9317C104.996 21.8987 105.057 21.881 105.122 21.881C105.186 21.881 105.248 21.8987 105.307 21.9317C105.368 21.9664 105.416 22.0146 105.449 22.0788C105.483 22.1431 105.499 22.209 105.499 22.2767C105.499 22.3443 105.485 22.4128 105.451 22.4728ZM106.3 15.4745C106.301 22.2429 101.048 27.7319 94.5637 27.7336C91.5313 27.7345 88.7662 26.5347 86.6831 24.5638C84.5999 26.5313 81.8405 27.7302 78.8129 27.7302C72.3327 27.7302 67.073 22.2403 67.073 15.4745C67.073 8.73582 72.2914 3.26198 78.7376 3.21801C78.7627 3.21801 78.7878 3.21801 78.8129 3.21801C81.8405 3.21801 84.6007 4.41695 86.6839 6.38445C88.7662 4.4161 91.5281 3.21632 94.558 3.21548C101.042 3.21294 106.3 8.69946 106.301 15.4686C106.3 15.4703 106.3 15.4712 106.3 15.4745Z" fill="#B7B7B7"/>
<path d="M85.481 23.2227C85.8527 23.6984 86.2463 24.1521 86.6813 24.5635C86.691 24.5542 86.7015 24.5457 86.7112 24.5372C86.7112 24.5372 86.7104 24.5372 86.7104 24.5364H86.7129C87.1405 24.1292 87.5398 23.6908 87.9051 23.2227H85.481Z" fill="#B7B7B7"/>
<path d="M87.08 16.4976C87.08 16.4976 87.2444 15.652 87.2444 15.3079C87.2444 14.4479 86.8346 13.3994 85.4625 13.3994C84.2055 13.4003 83.2749 14.814 83.2749 16.4122C83.2749 18.2563 84.4404 18.6943 85.4342 18.6943C86.351 18.6943 86.7544 18.4796 86.7544 18.4796L86.9747 17.2214C86.9747 17.2214 86.2773 17.5427 85.6472 17.5427C84.3051 17.5427 84.54 16.4976 84.54 16.4976H87.08ZM85.4666 14.5705C86.172 14.5705 86.0416 15.3983 86.0416 15.4643H84.6542C84.6542 15.3789 84.7854 14.5705 85.4666 14.5705Z" fill="#B7B7B7"/>
<path d="M92.9424 13.5723C93.5782 13.5723 94.0892 13.9452 94.0892 13.9452L94.2933 12.5628C94.2933 12.5628 93.5369 12.2432 92.8857 12.2432C91.4432 12.2432 90.0396 13.5503 90.0396 16.0048C90.0396 17.6324 90.7968 18.707 92.2887 18.707C92.7099 18.707 93.3822 18.5286 93.3822 18.5286L93.6057 17.1048C93.6057 17.1048 92.9934 17.4253 92.5722 17.4253C91.6845 17.4244 91.329 16.7176 91.329 15.96C91.329 14.4186 92.0919 13.5723 92.9424 13.5723Z" fill="#B7B7B7"/>
<path d="M83.9141 20.6484C84.1174 21.1044 84.3539 21.5384 84.6074 21.9614H88.7728C89.0255 21.5401 89.2531 21.1019 89.4564 20.6484H83.9141Z" fill="#B7B7B7"/>
<path d="M90.0165 13.4845C89.4569 13.4845 89.0422 14.282 89.0422 14.282L89.1548 13.5488H87.9909L87.2109 18.6079H88.4939C88.8575 16.4471 88.9255 14.693 89.793 15.0136C89.9452 14.1771 90.0918 13.8532 90.2579 13.4997C90.2579 13.4997 90.1801 13.4828 90.0165 13.4845Z" fill="#B7B7B7"/>
<path d="M37.804 13.7618L37.5918 12.7217C37.4314 13.1758 37.1552 13.9055 37.173 13.8734C37.173 13.8734 36.1776 16.5514 35.9185 17.2456H38.5337C38.4073 16.641 37.804 13.7618 37.804 13.7618Z" fill="#B7B7B7"/>
<path d="M44.6758 0H1.28604C0.634855 0 0.108398 0.550427 0.108398 1.22937V29.7189C0.108398 30.3978 0.634855 30.9482 1.28604 30.9482H44.6758C45.327 30.9482 45.8535 30.3978 45.8535 29.7189V1.22937C45.8535 0.550427 45.327 0 44.6758 0ZM3.65024 9.3522H8.53252C9.191 9.37841 9.7215 9.5974 9.90455 10.3321L10.9664 15.6631C9.92318 12.8746 7.40914 10.5545 3.60974 9.59401L3.65024 9.3522ZM9.55789 21.5106L6.73771 11.4524C8.76497 12.807 10.4917 14.9562 11.1 16.452L11.4288 17.694L14.5131 9.46803H17.85L12.8908 21.5081L9.55789 21.5106ZM20.3025 21.5191H17.1535L19.1224 9.45535H22.273L20.3025 21.5191ZM25.7825 21.7C24.3708 21.6848 23.0109 21.3931 22.2739 21.0558L22.7169 18.356L23.1227 18.548C24.157 18.9986 24.8268 19.1813 26.0878 19.1813C26.9925 19.1813 27.962 18.8118 27.9709 18.0035C27.9766 17.475 27.5652 17.0979 26.3389 16.5061C25.1435 15.9294 23.5608 14.9622 23.5803 13.2297C23.5973 10.8851 25.7906 9.24905 28.9032 9.24905C30.1229 9.24905 31.1005 9.51115 31.7242 9.75551L31.2989 12.3707L31.0147 12.2312C30.4347 11.9877 29.6888 11.7526 28.6578 11.7695C27.425 11.7695 26.8532 12.3056 26.8532 12.807C26.8467 13.3718 27.5206 13.7438 28.6221 14.3035C30.4388 15.1642 31.2787 16.2084 31.2674 17.5807C31.2431 20.0834 29.0943 21.7 25.7825 21.7ZM39.4299 21.5242C39.4299 21.5242 39.1423 20.1375 39.0468 19.7165C38.5883 19.7165 35.3745 19.7114 35.0133 19.7114C34.891 20.0369 34.3516 21.5242 34.3516 21.5242H31.0446L35.7204 10.4691C36.0524 9.68364 36.6154 9.46803 37.3702 9.46803H39.8032L42.3521 21.5233L39.4299 21.5242Z" fill="#B7B7B7"/>
</svg>
