<svg width="15" height="14" viewBox="0 0 15 14" fill="none" xmlns="http://www.w3.org/2000/svg">
<g clip-path="url(#clip0)">
<path d="M14.5916 10.2746L12.4983 8.32085C11.7507 7.62308 10.4798 7.90222 10.1807 8.80928C9.95646 9.4373 9.20886 9.78618 8.53601 9.6466C7.0408 9.29772 5.02227 7.48353 4.64847 6.01822C4.42418 5.39021 4.87275 4.69244 5.54559 4.48314C6.51748 4.20403 6.81652 3.01783 6.06892 2.32007L3.97562 0.366327C3.37754 -0.122109 2.48041 -0.122109 1.95709 0.366327L0.536636 1.69208C-0.883814 3.08761 0.686158 6.78576 4.1999 10.0653C7.71365 13.3448 11.676 14.8799 13.1712 13.4843L14.5916 12.1586C15.115 11.6003 15.115 10.763 14.5916 10.2746Z" fill="#E31031"/>
</g>
<defs>
<clipPath id="clip0">
<rect width="15" height="14" fill="white"/>
</clipPath>
</defs>
</svg>
