<svg id="Шар_1" data-name="Шар 1" xmlns="http://www.w3.org/2000/svg" viewBox="0 0 28 28"><defs><style>.cls-1{fill:#fff;}</style></defs><title>icons</title><path class="cls-1" d="M25,.66A3.34,3.34,0,0,0,21.22.54L10.07,7.64A.6.6,0,0,0,9.83,8a.57.57,0,0,0,.08.42.57.57,0,0,0,.34.24.54.54,0,0,0,.41-.08L21.81,1.47a2.24,2.24,0,0,1,2.58.08A2.25,2.25,0,0,1,25.27,4L24.88,5.5a2.07,2.07,0,0,0-1.82.25,2.07,2.07,0,0,0-.56,2.86.53.53,0,0,0,.76.15.55.55,0,0,0,.24-.35A.6.6,0,0,0,23.41,8,1,1,0,0,1,24.6,6.57L23.47,11A2.93,2.93,0,0,0,20.1,13.3a2.81,2.81,0,0,0,.43,2.15A3.6,3.6,0,0,0,22,16.61l-1,4a7.73,7.73,0,0,0-3.67-2.3,3.31,3.31,0,0,0-3.77,1.33l-.82,1.13a.85.85,0,0,1-1.19.18.79.79,0,0,1-.34-.55.86.86,0,0,1,.15-.64l.3-.41a1.84,1.84,0,0,0-.33-2.5,2,2,0,0,0-1.4-.4,1.75,1.75,0,0,0-1.16.76L7.59,18.86A.79.79,0,0,1,7,19.2a.82.82,0,0,1-.64-.15.86.86,0,0,1-.19-1.19l2.67-3.68a1.93,1.93,0,0,0,.35-1.78,2.25,2.25,0,0,0-.8-1.1,4.9,4.9,0,0,0-1.13-.6l1.47-.92A.58.58,0,0,0,9,9.43.54.54,0,0,0,8.94,9a.55.55,0,0,0-.76-.17l-2.52,1.6A4.47,4.47,0,0,0,2.14,12.3c-.86,1.19-3,5.56,5.8,11.93,3.45,2.5,6.44,3.77,8.9,3.77.2,0,.41,0,.61,0A4.87,4.87,0,0,0,21.08,26a4.49,4.49,0,0,0,.67-3.92L26.33,4.25A3.34,3.34,0,0,0,25,.66Zm-3.6,14.18a1.82,1.82,0,0,1-.25-1.37A1.8,1.8,0,0,1,22,12.32,1.84,1.84,0,0,1,23,12h.23l-.9,3.5A1.78,1.78,0,0,1,21.44,14.84ZM5.76,19.94a1.93,1.93,0,0,0,1.45.35,2,2,0,0,0,1.27-.78L9.65,17.9a.7.7,0,0,1,1-.14.68.68,0,0,1,.25.42.74.74,0,0,1-.14.56l-.3.42a2,2,0,0,0,3.16,2.29l.82-1.13a2.21,2.21,0,0,1,1.86-1h.15a6.06,6.06,0,0,1,3,1.33,3.34,3.34,0,0,1,1.36,2.22,3.38,3.38,0,0,1-.6,2.54,3.85,3.85,0,0,1-2.82,1.48c-2.31.2-5.26-1-8.79-3.54S3,18.34,2.5,16.08A3.78,3.78,0,0,1,3,13a3.4,3.4,0,0,1,4.76-.76,1,1,0,0,1,.46.62,1,1,0,0,1-.25.72L5.32,17.22A2,2,0,0,0,5.76,19.94Z"/><path class="cls-1" d="M13.31,14a3.17,3.17,0,0,0,1.88.61,3.23,3.23,0,0,0,2.59-1.32,3.14,3.14,0,0,0,.57-2.39,3.2,3.2,0,1,0-5,3.1Zm1.88-4.69a2.1,2.1,0,0,1,1.7,3.33,2.1,2.1,0,1,1-1.7-3.33Z"/></svg>