<svg id="Шар_1" data-name="Шар 1" xmlns="http://www.w3.org/2000/svg" viewBox="0 0 28 28"><defs><style>.cls-1{fill:#fff;}</style></defs><title>icons</title><path class="cls-1" d="M5.21,14.39a.54.54,0,0,0,.12-.74.52.52,0,0,1-.11-.32c0-.55,1.1-1.18,2.59-1.18s2.59.63,2.59,1.18-1.11,1.19-2.59,1.19a.53.53,0,0,0,0,1.06c2.05,0,3.65-1,3.65-2.25s-1.6-2.24-3.65-2.24-3.65,1-3.65,2.24a1.53,1.53,0,0,0,.31.93A.53.53,0,0,0,5.21,14.39Z"/><path class="cls-1" d="M20.17,3.12c-4.38,0-7.81,2.15-7.81,4.9V9.33a11.25,11.25,0,0,0-4.55-.9C3.43,8.43,0,10.59,0,13.33v7.21c0,2.75,3.44,4.9,7.82,4.9s7.82-2.15,7.82-4.9V19.2a11.22,11.22,0,0,0,4.54.93C24.56,20.13,28,18,28,15.22V8C28,5.27,24.56,3.12,20.17,3.12Zm0,1.06c3.67,0,6.76,1.76,6.76,3.84s-3.09,3.85-6.76,3.85S13.41,10.11,13.41,8,16.51,4.18,20.17,4.18ZM7.81,9.49c3.66,0,6.76,1.76,6.76,3.84s-3.1,3.85-6.76,3.85-6.76-1.76-6.76-3.85S4.14,9.49,7.81,9.49Zm0,14.89c-3.67,0-6.76-1.76-6.76-3.84V15.82a9.26,9.26,0,0,0,6.76,2.42,9.28,9.28,0,0,0,6.76-2.42v4.72C14.57,22.62,11.47,24.38,7.81,24.38Zm19.12-9.16c0,2.09-3.09,3.85-6.76,3.85a9.87,9.87,0,0,1-4.54-1V13.33a3.24,3.24,0,0,0-.35-1.46,11.13,11.13,0,0,0,4.89,1.05,9.3,9.3,0,0,0,6.76-2.41Z"/><path class="cls-1" d="M17.57,9.07a.52.52,0,0,0,.12-.73A.59.59,0,0,1,17.58,8c0-.56,1.11-1.18,2.59-1.18s2.6.62,2.6,1.18-1.11,1.19-2.6,1.19a.53.53,0,0,0,0,1c2,0,3.65-1,3.65-2.24s-1.6-2.24-3.65-2.24-3.65,1-3.65,2.24a1.56,1.56,0,0,0,.32.93A.51.51,0,0,0,17.57,9.07Z"/></svg>