<svg id="Шар_1" data-name="Шар 1" xmlns="http://www.w3.org/2000/svg" viewBox="0 0 28 28"><defs><style>.cls-1{fill:#fff;}</style></defs><title>icons</title><path class="cls-1" d="M27.47,12.89a1.83,1.83,0,0,0-1.32-.56H21.63a2.69,2.69,0,0,0-.71-2.67,6.23,6.23,0,0,1,3.34.55,3,3,0,0,0,1.15.29,1.25,1.25,0,0,0,.75-.25,1.1,1.1,0,0,0,.37-1.17A2.57,2.57,0,0,0,24.75,7.3,6.25,6.25,0,0,0,23,7.06H22.9c.87-1.07,1.17-1.91.91-2.58a1.7,1.7,0,0,0-1.45-1.24h-.05A1.81,1.81,0,0,0,20.8,4.51h0a7.83,7.83,0,0,0-.32-.8,2.52,2.52,0,0,0-2.06-1.44,1.12,1.12,0,0,0-1.05.51c-.26.45-.14,1.08.36,1.87a.51.51,0,0,0,.44.24.45.45,0,0,0,.25-.07.52.52,0,0,0,.22-.32.5.5,0,0,0-.08-.39c-.33-.51-.35-.76-.34-.8a.33.33,0,0,1,.26,0,1.65,1.65,0,0,1,1.09.84,4.76,4.76,0,0,1,.49,2.51L20,6.87c0,.12-.09.25-.14.36a6.35,6.35,0,0,0-.29-1.18.51.51,0,0,0-.48-.34l-.15,0a.49.49,0,0,0-.28.25.5.5,0,0,0,0,.38,5.12,5.12,0,0,1,.27,1.44,3,3,0,0,0-1.69-.62H17a4.28,4.28,0,0,0-2.38,1.2,5.49,5.49,0,0,0-2-.94,2.11,2.11,0,0,0-1.13-1.69,2.59,2.59,0,0,0-1.12-1.44,1.74,1.74,0,0,0-.87-.25H9.32a3.22,3.22,0,0,0-.45-.61.53.53,0,0,0-.71-.06.52.52,0,0,0-.06.71,1.91,1.91,0,0,1,.45.72.5.5,0,0,0,.63.32.66.66,0,0,1,.65,0,1.48,1.48,0,0,1,.69,1,.49.49,0,0,0,.45.46h0c.18,0,.44.32.55.74A4.1,4.1,0,0,0,8.85,8.64l-.07.07L8.42,8a3.57,3.57,0,0,1,.47-1.32A.46.46,0,0,0,8.78,6a.52.52,0,0,0-.3-.08.45.45,0,0,0-.39.21,5.23,5.23,0,0,0-.29.58l-.67-1.3a.48.48,0,0,0-.44-.28.5.5,0,0,0-.21,0,.44.44,0,0,0-.25.27.46.46,0,0,0,0,.38l.66,1.31A2.5,2.5,0,0,0,6.22,7a.5.5,0,0,0,0,1h0a3.91,3.91,0,0,1,1.35.42l.64,1.17,0,0a.89.89,0,0,0-.08.17c-.44-.14-.85-.24-1.12-.31l-.25-.06h-.1a.51.51,0,0,0-.12,1c.2,0,.73.17,1.26.34A3.93,3.93,0,0,0,7.67,12a1.73,1.73,0,0,1-1-.77A.48.48,0,0,0,6.28,11a.5.5,0,0,0-.21,0c-.18.08-.46-.06-.71-.34a1.13,1.13,0,0,1-.36-1,.48.48,0,0,0-.08-.65,1.47,1.47,0,0,1-.39-1.17.56.56,0,0,1,.3-.5.47.47,0,0,0,.26-.34A.42.42,0,0,0,5,6.68a2.56,2.56,0,0,1-.3-1.91,1.92,1.92,0,0,1,1-1.22,2,2,0,0,1,.9-.22l.3,0A.48.48,0,0,0,7.47,3a.47.47,0,0,0-.08-.38.49.49,0,0,0-.32-.19,3,3,0,0,0-1.82.29A2.85,2.85,0,0,0,3.71,4.52a3.66,3.66,0,0,0,.22,2.31,1.58,1.58,0,0,0-.43,1A2.57,2.57,0,0,0,4,9.56a2.23,2.23,0,0,0,.58,1.82A1.83,1.83,0,0,0,6,12.09a2.5,2.5,0,0,0,.22.24H1.85a1.83,1.83,0,0,0-1.32.56A1.81,1.81,0,0,0,0,14.25a14.77,14.77,0,0,0,.17,1.87,14.13,14.13,0,0,0,12.2,11.63,14.81,14.81,0,0,0,3.26,0,14.13,14.13,0,0,0,12.2-11.63A16.87,16.87,0,0,0,28,14.25,1.81,1.81,0,0,0,27.47,12.89ZM24.71,9.22a7.37,7.37,0,0,0-3.06-.67h-.17a.6.6,0,0,1,.08-.08l.18-.15a4.63,4.63,0,0,1,2.76-.05,1.61,1.61,0,0,1,1,.91.61.61,0,0,1,0,.24A1.49,1.49,0,0,1,24.71,9.22ZM20.57,8c.28-.63.53-1.32.79-2.11.12-.4.25-.73.35-1,.19-.42.4-.64.65-.66h0c.17,0,.37.24.52.61S22.4,6.44,20.57,8Zm-9.45,4.32H8.75A3.26,3.26,0,0,1,11,8.55a3.13,3.13,0,0,1,.91-.13,3.21,3.21,0,0,1,1.94.67A26.87,26.87,0,0,0,11.12,12.33Zm1.21,0c.31-.4.62-.8.92-1.16,1.56-1.87,2.83-2.87,3.79-3,.62-.07,1.36.53,2.07,1.11l.17.14a3.34,3.34,0,0,1,1.49,1.88,2.29,2.29,0,0,1-.17,1H12.33ZM26.9,14.22A14.64,14.64,0,0,1,26.74,16,13,13,0,0,1,15.5,26.66a14.76,14.76,0,0,1-1.5.08,15.11,15.11,0,0,1-1.51-.08A13,13,0,0,1,1.26,16a14.64,14.64,0,0,1-.16-1.73.74.74,0,0,1,.22-.56.72.72,0,0,1,.53-.23h24.3a.72.72,0,0,1,.53.23A.74.74,0,0,1,26.9,14.22Z"/><path class="cls-1" d="M10,22.78A13,13,0,0,1,5.2,18.25.53.53,0,0,0,4.85,18a.54.54,0,0,0-.41.07.55.55,0,0,0-.18.76,14.16,14.16,0,0,0,5.22,4.92.64.64,0,0,0,.27.07.54.54,0,0,0,.48-.29A.55.55,0,0,0,10,22.78Z"/></svg>