<svg id="Шар_1" data-name="Шар 1" xmlns="http://www.w3.org/2000/svg" viewBox="0 0 28 28"><defs><style>.cls-1{fill:#fff;}</style></defs><title>icons</title><path class="cls-1" d="M7.4,10.41c-1.95,0-3.41.9-3.41,2.1A1.86,1.86,0,0,0,5.13,14.1a.62.62,0,0,0,.46,0,.6.6,0,0,0,.36-.3.61.61,0,0,0,0-.46A.66.66,0,0,0,5.7,13c-.31-.16-.5-.36-.5-.51s.19-.36.5-.52a3.68,3.68,0,0,1,1.7-.37A3.69,3.69,0,0,1,9.11,12c.3.16.5.36.5.52s-.2.35-.5.51a3.69,3.69,0,0,1-1.71.37.61.61,0,0,0,0,1.21c1.95,0,3.42-.9,3.42-2.09S9.35,10.41,7.4,10.41Z"/><path class="cls-1" d="M26,6.62a13.66,13.66,0,0,0-13.82-.84A6.06,6.06,0,0,0,9.38,8.15a5.57,5.57,0,0,1-.82-.08l-.16,0a11.94,11.94,0,0,0-4.31.33A7.5,7.5,0,0,0,1.64,9.6,4.46,4.46,0,0,0,0,13.16c0,.63,0,1.26,0,1.89,0,1.16,0,2.32,0,3.49a4.28,4.28,0,0,0,2.31,3.93A10.26,10.26,0,0,0,7.4,23.72a10.27,10.27,0,0,0,5.1-1.25,4.91,4.91,0,0,0,1.9-1.85,2.32,2.32,0,0,0,2.29-.38.17.17,0,0,1,.19,0,2.55,2.55,0,0,0,1.53.5,2.52,2.52,0,0,0,1.52-.5.18.18,0,0,1,.2,0,2.52,2.52,0,0,0,1.52.5A2.58,2.58,0,0,0,24,19.21a.16.16,0,0,1,.15-.1,2.58,2.58,0,0,0,2.46-3,.17.17,0,0,1,.07-.16,2.59,2.59,0,0,0,1-2.05,2.53,2.53,0,0,0-.36-1.31A4.45,4.45,0,0,0,26,6.62Zm-.62,9.7a1.36,1.36,0,0,1-1.31,1.57,1.36,1.36,0,0,0-1.2.82,1.38,1.38,0,0,1-1.26.82,1.34,1.34,0,0,1-.81-.27A1.42,1.42,0,0,0,20,19a1.39,1.39,0,0,0-.81.26,1.38,1.38,0,0,1-1.62,0,1.41,1.41,0,0,0-1.62,0,1.44,1.44,0,0,1-1.22.2c0-.65,0-4,0-4.93a4.42,4.42,0,0,0,1-.51A4.68,4.68,0,0,1,21,14a4.32,4.32,0,0,0,2.4.74,4.18,4.18,0,0,0,3.06-1.13A1.29,1.29,0,0,1,26,15,1.45,1.45,0,0,0,25.42,16.32ZM21.69,13a6,6,0,0,0-3.31-1,5.84,5.84,0,0,0-3.26,1,2.33,2.33,0,0,1-.34.2v-.7A3.12,3.12,0,0,0,14.39,11a1.78,1.78,0,0,0,1.19-2,7.18,7.18,0,0,0-1.14-2.75A13.05,13.05,0,0,1,16,5.73a3.81,3.81,0,0,1,.67,2.49,1.78,1.78,0,0,0,.41,1.39,1.75,1.75,0,0,0,1.35.53,1.79,1.79,0,0,0,1.76-1.61,7.47,7.47,0,0,0-.34-3,12.44,12.44,0,0,1,1.8.35,3.87,3.87,0,0,1,0,2.45,1.73,1.73,0,0,0,.1,1.36,1.79,1.79,0,0,0,1,.86A1.7,1.7,0,0,0,25,9.46c.06-.16.1-.33.15-.49A.61.61,0,1,0,24,8.67a3.17,3.17,0,0,1-.12.41.55.55,0,0,1-.28.32.51.51,0,0,1-.42,0,.57.57,0,0,1-.35-.71A5,5,0,0,0,23,6.36a12.52,12.52,0,0,1,2.37,1.26,3.26,3.26,0,0,1,.86,4.53A3.41,3.41,0,0,1,21.69,13ZM19,8.42a.55.55,0,0,1-.6.5.56.56,0,0,1-.5-.61,5.06,5.06,0,0,0-.57-2.77c.4,0,1,0,1.21,0A6.1,6.1,0,0,1,19,8.42ZM12.21,7.15a10.71,10.71,0,0,1,1-.53,6,6,0,0,1,1.17,2.59.52.52,0,0,1-.09.42.54.54,0,0,1-.35.23.55.55,0,0,1-.65-.45A5.18,5.18,0,0,0,12.21,7.15ZM10.65,8.39a4.15,4.15,0,0,1,.54-.57,3.94,3.94,0,0,1,.66,1A8.09,8.09,0,0,0,10.65,8.39ZM13.57,15v4.11a2.87,2.87,0,0,1-1.68,2.28A9.12,9.12,0,0,1,7.4,22.5a9.08,9.08,0,0,1-4.48-1.07,2.85,2.85,0,0,1-1.68-2.28V15a5.6,5.6,0,0,0,1.07.79A10.26,10.26,0,0,0,7.4,17.07a10.27,10.27,0,0,0,5.1-1.24A6.31,6.31,0,0,0,13.57,15Zm-1.68-.26A9,9,0,0,1,7.4,15.86a9,9,0,0,1-4.48-1.08,2.82,2.82,0,0,1-1.68-2.27,2.82,2.82,0,0,1,1.68-2.28A9,9,0,0,1,7.4,9.15a9,9,0,0,1,4.49,1.08,2.84,2.84,0,0,1,1.68,2.28A2.84,2.84,0,0,1,11.89,14.78Z"/></svg>