<svg id="Шар_1" data-name="Шар 1" xmlns="http://www.w3.org/2000/svg" viewBox="0 0 28 28"><defs><style>.cls-1{fill:#fff;}</style></defs><title>icons</title><path class="cls-1" d="M10.65,5.57a.6.6,0,0,0,.29.08.51.51,0,0,0,.28-.93A.88.88,0,0,1,10.83,4a.85.85,0,0,1,.39-.73,1.91,1.91,0,0,0,.84-1.58A1.88,1.88,0,0,0,11.22.1.48.48,0,0,0,10.84,0a.54.54,0,0,0-.33.22.52.52,0,0,0,.14.71.85.85,0,0,1,.39.73.88.88,0,0,1-.39.73A1.88,1.88,0,0,0,9.81,4,1.91,1.91,0,0,0,10.65,5.57Z"/><path class="cls-1" d="M13.54,5.57a.6.6,0,0,0,.28.08.51.51,0,0,0,.29-.93A.88.88,0,0,1,13.72,4a.85.85,0,0,1,.39-.73A1.91,1.91,0,0,0,15,1.68,1.88,1.88,0,0,0,14.11.1.49.49,0,0,0,13.72,0a.52.52,0,0,0-.32.22.51.51,0,0,0,.14.71.85.85,0,0,1,.39.73.88.88,0,0,1-.39.73A1.88,1.88,0,0,0,12.7,4,1.91,1.91,0,0,0,13.54,5.57Z"/><path class="cls-1" d="M16.43,5.57a.54.54,0,0,0,.28.08.51.51,0,0,0,.43-.23.5.5,0,0,0-.15-.7A.88.88,0,0,1,16.6,4,.85.85,0,0,1,17,3.26a1.92,1.92,0,0,0,.85-1.58A1.89,1.89,0,0,0,17,.1.47.47,0,0,0,16.61,0a.52.52,0,0,0-.32.22.51.51,0,0,0,.14.71.85.85,0,0,1,.39.73.88.88,0,0,1-.39.73A1.89,1.89,0,0,0,15.58,4,1.92,1.92,0,0,0,16.43,5.57Z"/><path class="cls-1" d="M26.8,12.8H25.05a6.33,6.33,0,0,0-1.69-3.72.54.54,0,0,0-.76,0,.58.58,0,0,0-.17.37.52.52,0,0,0,.15.38,5.2,5.2,0,0,1,1.39,3H22.84v0a4.28,4.28,0,0,0-8.52,0v.07h-1v-.05a5.27,5.27,0,0,1,8-4.09A.53.53,0,0,0,22,8.47a.53.53,0,0,0-.18-.73,6.35,6.35,0,0,0-7.27.55,9.72,9.72,0,0,0-.72.7,5,5,0,0,0-1.16-.46l-.07,0a5,5,0,0,0-.89-.12h0c-.08,0-.58,0-.81,0h0a4.36,4.36,0,0,0-.86.2h0a5.11,5.11,0,0,0-1.24.61,4.1,4.1,0,0,0-.67.55L8,9.86,4.09,4.74a1.77,1.77,0,0,0-1.21-.66,1.76,1.76,0,0,0-1.3.43A1.72,1.72,0,0,0,1.47,7l5.26,5.58a1.1,1.1,0,0,0,0,.16v.1H1.2a.63.63,0,0,0-.63.63A13.38,13.38,0,0,0,6.78,24.76v2.62a.63.63,0,0,0,.63.63H20.59a.63.63,0,0,0,.63-.63V24.76a13.38,13.38,0,0,0,6.21-11.33A.63.63,0,0,0,26.8,12.8Zm-11.41,0a3.21,3.21,0,0,1,6.37,0H15.38ZM2.26,6.22a.62.62,0,0,1,0-.91.68.68,0,0,1,.48-.16.66.66,0,0,1,.45.25l4.13,5.35a4.48,4.48,0,0,0-.29.58Zm5.51,6.52a3.75,3.75,0,0,1,3.71-3.29,3.67,3.67,0,0,1,1.69.41,6.37,6.37,0,0,0-.51,1c-.09.23-.14.42-.2.62l-.06.2a6.48,6.48,0,0,0-.16,1v.07H7.76ZM20.26,23.86a.65.65,0,0,0-.31.57v2.31H8.05v-2.3a.66.66,0,0,0-.31-.58,12.05,12.05,0,0,1-5.88-9.79H26.14A12.05,12.05,0,0,1,20.26,23.86Z"/><path class="cls-1" d="M10.47,22a13,13,0,0,1-4.81-4.53.53.53,0,0,0-.35-.25.58.58,0,0,0-.41.07.55.55,0,0,0-.17.76,14,14,0,0,0,5.21,4.91.5.5,0,0,0,.27.07.56.56,0,0,0,.48-.28.52.52,0,0,0,0-.42A.54.54,0,0,0,10.47,22Z"/></svg>