<?xml version="1.0" encoding="utf-8"?>
<!-- Generator: Adobe Illustrator 24.0.3, SVG Export Plug-In . SVG Version: 6.00 Build 0)  -->
<svg version="1.1" id="Шар_1" xmlns="http://www.w3.org/2000/svg" xmlns:xlink="http://www.w3.org/1999/xlink" x="0px" y="0px"
	 viewBox="0 0 12 12" style="enable-background:new 0 0 12 12;" xml:space="preserve">
<style type="text/css">
	.st0{fill:#E31031;}
</style>
<title>icons</title>
<g>
	<path class="st0" d="M4.4,2c2.2-0.8,4.6-1,6.9-0.6C10.6,0.5,9.6,0,8.5,0H3.5C1.6,0,0,1.6,0,3.5c0,0,0,0,0,0V5
		C1.2,3.7,2.7,2.7,4.4,2z"/>
	<path class="st0" d="M6.9,6.3C4.7,7.1,3,8.7,2,10.8c-0.1,0.2-0.2,0.5-0.3,0.7C2.3,11.8,2.9,12,3.5,12h0.8c0.9-1.6,2.3-2.8,4-3.5
		C9.5,8,10.8,7.9,12,8V6C10.3,5.6,8.6,5.7,6.9,6.3z"/>
	<path class="st0" d="M8.8,9.7C7.6,10.2,6.6,11,5.9,12h2.6c1.7,0,3.1-1.1,3.4-2.8C10.9,9.1,9.8,9.3,8.8,9.7z"/>
	<path class="st0" d="M0.8,10.2C1.9,7.8,4,6,6.5,5.1c1.8-0.6,3.7-0.8,5.5-0.4V3.5c0-0.2,0-0.4-0.1-0.7C9.6,2.4,7.1,2.5,4.9,3.3
		C2.9,4,1.1,5.4,0,7.2v1.3c0,0.7,0.2,1.5,0.7,2.1C0.7,10.4,0.8,10.3,0.8,10.2z"/>
</g>
</svg>
