<svg id="Шар_1" data-name="Шар 1" xmlns="http://www.w3.org/2000/svg" viewBox="0 0 28 28"><defs><style>.cls-1{fill:#fff;}</style></defs><title>icons</title><path class="cls-1" d="M26.82,7.1,26.71,7a15.18,15.18,0,0,0,1.05-1.57.52.52,0,0,0,0-.47.58.58,0,0,0-.34-.33,3.42,3.42,0,0,0-1-.14A6.07,6.07,0,0,0,24.1,5a9.92,9.92,0,0,0-5-2.09l-.12,0a26.07,26.07,0,0,0-4.18-.34h-.11c-3.59,0-8,.75-9.7,2.78a2.77,2.77,0,0,0-.65,2.3c0,.1,0,.21.08.31h0A2.12,2.12,0,0,0,5,8.85a5,5,0,0,0-.17,1.26,4.71,4.71,0,0,0,1.52,3.46C4,14,1.8,14.73.72,16a2.71,2.71,0,0,0-.65,2.29,2.82,2.82,0,0,0,.07.31h0a2.26,2.26,0,0,0,.58.93,5,5,0,0,0-.17,1.26A4.69,4.69,0,0,0,5.24,25.5H15.59a4.7,4.7,0,0,0,4.69-4.69c0-.2,0-.4,0-.6a4.78,4.78,0,0,0,2.87.81h.1a.57.57,0,0,0,.54-.48,3.44,3.44,0,0,0-1.19-2.74l-.1-.12a18.6,18.6,0,0,0,1.05-1.56.54.54,0,0,0-.29-.8,3.13,3.13,0,0,0-1-.15,6,6,0,0,0-2.35.52,5.61,5.61,0,0,0-1.25-.89h1.24a4.69,4.69,0,0,0,4.69-4.69,4,4,0,0,0,0-.6,4.87,4.87,0,0,0,2.87.8h.11A.53.53,0,0,0,28,9.84,3.4,3.4,0,0,0,26.82,7.1ZM18.49,3.9a6.51,6.51,0,0,1-.28,5l-1.66-.11-1.13-.08a8.59,8.59,0,0,0,0-3.69,10.09,10.09,0,0,1-.17-1.36A24,24,0,0,1,18.49,3.9ZM11,3.9a24.51,24.51,0,0,1,3.08-.27,12.21,12.21,0,0,0,.19,1.54,7.36,7.36,0,0,1,0,3.49c-.42,0-.93.05-1.51.1l-1.19.08A6.64,6.64,0,0,1,11,3.9ZM5.54,7.8a2,2,0,0,1,0-1.36A2,2,0,0,1,5.81,6a7.6,7.6,0,0,1,4.07-1.9A7.45,7.45,0,0,0,10.4,8.9l-.84,0C7.33,8.92,6,8.54,5.54,7.8ZM1.29,18.51a2.05,2.05,0,0,1,0-1.36,2.26,2.26,0,0,1,.28-.43,7.64,7.64,0,0,1,4.07-1.9,7.54,7.54,0,0,0,.52,4.79H5.31C3.08,19.62,1.73,19.25,1.29,18.51Zm14.3,5.9H5.24a3.6,3.6,0,0,1-3.59-3.6,4.58,4.58,0,0,1,.05-.63l.33.13a10.62,10.62,0,0,0,3.28.41c1.14,0,2.29-.09,3.3-.17.73-.05,1.36-.1,1.8-.1h0c.44,0,1.06.05,1.77.1,1,.08,2.16.17,3.31.17a9.48,9.48,0,0,0,3.61-.54,4.58,4.58,0,0,1,.05.63A3.6,3.6,0,0,1,15.59,24.41ZM6.79,14.6l1.14-.14H8q.93-.11,1.92-.12a12,12,0,0,0,.18,1.53,7.35,7.35,0,0,1,0,3.49l-1.51.1-1.2.09A6.71,6.71,0,0,1,6.79,14.6Zm4.34,1.09A11.74,11.74,0,0,1,11,14.33a24.18,24.18,0,0,1,3.28.27,6.56,6.56,0,0,1-.28,5l-1.66-.11-1.13-.08A8.74,8.74,0,0,0,11.13,15.69Zm8.17,1a.56.56,0,0,0,.75.1,4.53,4.53,0,0,1,2.07-.56,6,6,0,0,1-.72,1,.55.55,0,0,0-.14.68,4,4,0,0,0,.49.63,3.33,3.33,0,0,1,.89,1.37,3.57,3.57,0,0,1-2.46-1.19.56.56,0,0,0-.4-.17h0a.56.56,0,0,0-.4.17c-.55.6-1.85.9-3.86.9h-.38a7.33,7.33,0,0,0,.28-4.79l.52.13A6.25,6.25,0,0,1,19.3,16.72Zm.54-3H15.38l-.55-.1-.13,0a24.89,24.89,0,0,0-4.18-.34h-.1c-.8,0-1.63,0-2.46.12A3.6,3.6,0,0,1,5.9,10.11,3.44,3.44,0,0,1,6,9.48l.32.12A10.37,10.37,0,0,0,9.56,10c1.14,0,2.29-.09,3.31-.16.73-.06,1.35-.11,1.8-.11h0c.44,0,1.06,0,1.78.11,1,.07,2.16.16,3.3.16a9.51,9.51,0,0,0,3.61-.53,3.36,3.36,0,0,1,.06.63A3.6,3.6,0,0,1,19.84,13.7ZM24.43,8A.52.52,0,0,0,24,7.85h0a.52.52,0,0,0-.39.17c-.56.6-1.86.9-3.87.9H19.4a7.23,7.23,0,0,0,.27-4.78l.53.12A6.47,6.47,0,0,1,23.56,6a.54.54,0,0,0,.74.11,4.58,4.58,0,0,1,2.08-.56,6.42,6.42,0,0,1-.72,1,.56.56,0,0,0-.15.69,3.23,3.23,0,0,0,.5.62,3.44,3.44,0,0,1,.88,1.37A3.58,3.58,0,0,1,24.43,8Z"/></svg>