<svg xmlns="http://www.w3.org/2000/svg" viewBox="0 0 184.5 94.47"><defs><style>.cls-1{fill:#f9f9f9;}.cls-2{fill:#e60101;}</style></defs><title>sushishtat</title><g id="Layer_2" data-name="Layer 2"><g id="Layer_1-2" data-name="Layer 1"><path class="cls-1" d="M47.32,0A47.24,47.24,0,1,1,0,47.11,47.24,47.24,0,0,1,47.32,0Zm0,91.29A44.06,44.06,0,1,0,3.15,47.15,44,44,0,0,0,47.28,91.29Z"/><path class="cls-1" d="M119.83,75.33c-4.08,0-8.15,0-12.23,0-.85,0-1.06-.23-1-1.06q0-9.53,0-19.06c0-.82.18-1.12,1-1.06a28.86,28.86,0,0,0,3.48,0c.81-.06,1,.24,1,1,0,4.92,0,9.83,0,14.75,0,1,.28,1.23,1.19,1.15a14.55,14.55,0,0,1,2.64,0c1,.09,1.35-.16,1.33-1.27-.08-4.83,0-9.67-.05-14.5,0-.88.17-1.21,1.1-1.14a25.12,25.12,0,0,0,3.47,0c.8-.05,1,.21,1,1,0,4.92,0,9.83,0,14.75,0,1,.28,1.24,1.2,1.16a14.44,14.44,0,0,1,2.63,0c1,.09,1.35-.16,1.33-1.27-.07-4.84,0-9.67,0-14.51,0-.84.11-1.22,1.08-1.13a20.82,20.82,0,0,0,3.35,0c.84-.06,1.06.21,1.05,1,0,6,0,11.91,0,17.86,0,2.25,0,2.25-2.22,2.25Z"/><path class="cls-2" d="M153.66,39.13c-3.44,0-6.87,0-10.31,0-.85,0-1.17-.16-1.16-1.1.05-4.63,0-9.26,0-13.9,0-.8.16-1.16,1.05-1.1a23.41,23.41,0,0,0,3.35,0c.89-.06,1,.32,1,1.11,0,3.16,0,6.31,0,9.47,0,1,.18,1.49,1.36,1.42,2.42-.13,2,.3,2.06-2.14,0-2.91,0-5.83,0-8.74,0-.92.27-1.18,1.15-1.12a18.66,18.66,0,0,0,3,0c.91-.06,1.24.18,1.22,1.17-.07,3.23,0,6.47,0,9.7,0,.91.26,1.14,1.15,1.13,2.26,0,2.26,0,2.26-2.27,0-2.88,0-5.75,0-8.63,0-.8.15-1.15,1-1.1a33.47,33.47,0,0,0,3.47,0c.66,0,.92.16.92.86q0,7.18,0,14.38c0,.86-.44.84-1,.84C160.6,39.12,157.13,39.13,153.66,39.13Z"/><path class="cls-1" d="M162.64,73.89a11.42,11.42,0,0,1-7.39,1.71c-2.65-.32-3.85-2.25-3.72-6.07a4.15,4.15,0,0,1,4.07-4.3c1.84-.06,3.67,0,5.51,0,.58,0,1.24.19,1.18-.82,0-.85-.32-1.42-1.25-1.39-1.55,0-3.11.12-4.66.19l-.36,0c-3.19.34-3.37.14-3-3.08,0-.45.2-.6.64-.64a80.28,80.28,0,0,1,9.68-.51,4.15,4.15,0,0,1,4.28,4.46c0,3.64,0,7.27,0,10.91,0,.79-.2,1-1,1s-1.44,0-2.16,0C163.55,75.33,162.4,75.66,162.64,73.89Zm-2.82-4.83c-.56,0-1.12,0-1.67,0-.79,0-1.25.33-1.28,1.08s.42,1.23,1.26,1.24a18.42,18.42,0,0,0,3.31-.36c.91-.14.85-.73.84-1.38,0-.86-.63-.52-1-.56A13.62,13.62,0,0,0,159.82,69.06Z"/><path class="cls-2" d="M106,28.33c.12-1.8-.27-4.13.18-6.42a4.3,4.3,0,0,1,4.36-3.85c3.91-.12,7.82,0,11.73-.07.5,0,.68.17.73.69.36,3.58.37,3.58-3.22,3.58-2.12,0-4.23,0-6.35,0-1.46,0-1.93.49-1.94,2,0,3,0,6.06,0,9.09,0,1.38.43,1.83,1.79,1.8q4.25-.1,8.49-.34c.89-.05,1.26.1,1.25,1.12,0,3.09,0,3.06-3.08,3.22a80.42,80.42,0,0,1-9.31.26c-2.89-.18-4.51-1.88-4.61-4.79C105.93,32.67,106,30.76,106,28.33Z"/><path class="cls-2" d="M132.56,33.16c1-3.15,1.87-5.95,2.67-8.77.28-1,.69-1.47,1.8-1.35a20.48,20.48,0,0,0,3.23,0c.94-.06,1.05.22.74,1.07-1.95,5.27-3.86,10.55-5.78,15.83a2,2,0,0,1-.08.22c-1.36,3.36-3.08,4.5-6.69,4.44-3.19-.06-3.53-.45-3.22-3.6,0-.51.21-.72.71-.69s1,0,1.56,0c2,0,2.5-.7,1.72-2.63-.9-2.21-1.85-4.41-2.77-6.61s-1.9-4.66-2.92-6.95c-.44-1-.16-1.14.77-1.08a23.21,23.21,0,0,0,3.23,0,1.43,1.43,0,0,1,1.72,1.17c.89,2.65,1.9,5.25,2.86,7.87C132.21,32.34,132.32,32.59,132.56,33.16Z"/><path class="cls-1" d="M143.1,59.26c2.15,0,4.31,0,6.47,0,.71,0,1.12.07,1,.94-.12,1,.41,2.36-.2,3s-2,.17-3,.19c-1.83,0-1.83,0-1.83,1.83,0,3.07,0,6.15,0,9.22,0,.75-.2,1-.94.92a28.7,28.7,0,0,0-3.47,0c-.85.06-.95-.29-.95-1,0-3.2-.05-6.4,0-9.59,0-1.21-.34-1.5-1.46-1.39-.9.1-1.83,0-2.75,0-.6,0-.81-.14-.84-.79-.12-3.34-.14-3.34,3.18-3.34Z"/><path class="cls-1" d="M176.9,59.26c2.16,0,4.32,0,6.47,0,.71,0,1.13.07,1,.94-.12,1,.42,2.36-.19,3s-2,.17-3,.19c-1.82,0-1.82,0-1.82,1.83,0,3.07,0,6.15,0,9.22,0,.75-.2,1-.93.92a28.7,28.7,0,0,0-3.47,0c-.85.06-1-.29-.95-1,0-3.2-.05-6.4,0-9.59,0-1.21-.35-1.5-1.46-1.39-.91.1-1.84,0-2.75,0-.6,0-.82-.14-.84-.79-.13-3.34-.15-3.34,3.18-3.34Z"/><path class="cls-2" d="M174.58,31.39c0,2.23,0,4.47,0,6.7,0,.87-.27,1.1-1.09,1a31.2,31.2,0,0,0-3.35,0c-.76,0-.94-.24-.94-1,0-3.07,0-6.15,0-9.22,0-.87-.2-1.29-1.12-1.14s-1.22-.22-1.21-1.17c0-3,0-3,3-3,1.24,0,2.47,0,3.71,0,.72,0,1,.21,1,.95C174.55,26.83,174.58,29.11,174.58,31.39Z"/><path class="cls-2" d="M171.84,22c-2.66,0-2.66,0-2.66-2.67,0-1.65,0-1.65,1.67-1.65,1,0,1.91,0,2.86,0,.75-.05,1,.26.93,1a5.8,5.8,0,0,0,0,.59C174.64,22,174.64,22,171.84,22Z"/><path d="M47.28,91.29a44.06,44.06,0,1,1,44-43A44.05,44.05,0,0,1,47.28,91.29ZM11.62,46.74a39,39,0,0,0,.85,8.44A35.44,35.44,0,0,0,45.61,82.91c11.2.44,20.66-3.64,28.23-12,9.34-10.3,11.73-26.06,5.81-38.47-1.16-2.44-1.71-2.55-3.49-.53-2.76,3.14-5.5,6.32-8.22,9.51-5.37,6.29-11,12.32-16.27,18.71-.85,1-1.69,1-2.78.08a1.68,1.68,0,0,1-.11-2.7c.46-.51.95-1,1.38-1.49,6.39-7.68,12.7-15.42,19.2-23a52.63,52.63,0,0,0,4.76-5.68,2.81,2.81,0,0,0-.41-4c-1.49-1.5-3-3-4.64-4.33-1.79-1.54-2.56-1.45-4.09.37-1,1.13-1.79,2.35-2.67,3.53s-1.13,1.12-2.09.25a3,3,0,0,1-.66-4.37c.59-.94,1.28-1.83,1.94-2.73.47-.64.48-1-.37-1.43a32.11,32.11,0,0,0-11.5-3,34.53,34.53,0,0,0-26.4,9.48A34.76,34.76,0,0,0,11.62,46.74Z"/><path class="cls-2" d="M11.62,46.74A34.76,34.76,0,0,1,23.23,21.08a34.53,34.53,0,0,1,26.4-9.48,32.11,32.11,0,0,1,11.5,3c.85.4.84.79.37,1.43-.66.9-1.35,1.79-1.94,2.73a3,3,0,0,0,.66,4.37c1,.87,1.28.82,2.09-.25S64,20.52,65,19.39c1.53-1.82,2.3-1.91,4.09-.37,1.61,1.37,3.15,2.83,4.64,4.33a2.81,2.81,0,0,1,.41,4A52.63,52.63,0,0,1,69.36,33c-6.5,7.58-12.81,15.32-19.2,23-.43.52-.92,1-1.38,1.49a1.68,1.68,0,0,0,.11,2.7c1.09.94,1.93,1,2.78-.08,5.25-6.39,10.9-12.42,16.27-18.71,2.72-3.19,5.46-6.37,8.22-9.51,1.78-2,2.33-1.91,3.49.53,5.92,12.41,3.53,28.17-5.81,38.47-7.57,8.35-17,12.43-28.23,12A35.44,35.44,0,0,1,12.47,55.18,39,39,0,0,1,11.62,46.74ZM33.51,58.39c10-4.68,18.16-11.18,23-21.22C58,34,59.4,30.85,59.26,27.25a6.4,6.4,0,0,0-5.54-6.38,14.45,14.45,0,0,0-7.51.87C39.76,24,34.57,28.15,30,33.14A38,38,0,0,0,21.22,48c-1.17,4-.64,7.52,2.53,10.52,4.93,4.66,9.71,9.49,14.41,14.39a10.32,10.32,0,0,0,8.6,3.36A26.76,26.76,0,0,0,60.24,71.2C67.74,66,73,59.09,74.66,49.88a6.81,6.81,0,0,0-.31-3.71c-.27.7-.47,1.16-.63,1.63A37.56,37.56,0,0,1,68.35,58,33.55,33.55,0,0,1,52.29,70.2a4.61,4.61,0,0,1-5.35-1.08c-2.45-2.46-5-4.81-7.6-7.13-.78-.7-.69-1.18,0-1.79s1.16-1,1.68-1.53c.33-.33.73-.79.44-1.25s-.78-.29-1.22-.23a14.42,14.42,0,0,0-3.07,1A5.25,5.25,0,0,1,33.51,58.39Z"/><path class="cls-1" d="M33.51,58.39a5.25,5.25,0,0,0,3.63-.23,14.42,14.42,0,0,1,3.07-1c.44-.06,1-.15,1.22.23s-.11.92-.44,1.25c-.52.54-1.12,1-1.68,1.53s-.75,1.09,0,1.79c2.58,2.32,5.15,4.67,7.6,7.13a4.61,4.61,0,0,0,5.35,1.08A33.55,33.55,0,0,0,68.35,58,37.56,37.56,0,0,0,73.72,47.8c.16-.47.36-.93.63-1.63a6.81,6.81,0,0,1,.31,3.71C73,59.09,67.74,66,60.24,71.2a26.76,26.76,0,0,1-13.48,5.11A10.32,10.32,0,0,1,38.16,73c-4.7-4.9-9.48-9.73-14.41-14.39-3.17-3-3.7-6.52-2.53-10.52A38,38,0,0,1,30,33.14c4.53-5,9.72-9.1,16.17-11.4a14.45,14.45,0,0,1,7.51-.87,6.4,6.4,0,0,1,5.54,6.38c.14,3.6-1.25,6.79-2.75,9.92C51.67,47.21,43.53,53.71,33.51,58.39Zm10-28.77c-.58.31-.9.45-1.2.65a10.7,10.7,0,0,0-1.16.84,27.24,27.24,0,0,0-8.35,14.17,6.35,6.35,0,0,0,.12,3.88c.31.79.81,1.37,1.81,1.19,4.14-.72,6.19-3.49,5.45-7.6a14.07,14.07,0,0,1,1-8.28C41.9,32.92,42.67,31.41,43.53,29.62ZM41.67,39.2A7.69,7.69,0,0,0,42,41.68c.72,2,2.06,2.39,3.49.84A22.71,22.71,0,0,0,51.22,31.4a2.9,2.9,0,0,0-1.4-3.17c-1.41-.64-3-.56-3.78.43C43.71,31.8,41.85,35.16,41.67,39.2ZM30.77,51.14c-.81-5.66,1.92-10.3,4.15-15.09-3,2.66-5.67,5.57-6.59,9.6C27.74,48.23,28.63,50.17,30.77,51.14Z"/><path class="cls-2" d="M43.53,29.62c-.86,1.79-1.63,3.3-2.31,4.85a14.07,14.07,0,0,0-1,8.28c.74,4.11-1.31,6.88-5.45,7.6-1,.18-1.5-.4-1.81-1.19a6.35,6.35,0,0,1-.12-3.88,27.24,27.24,0,0,1,8.35-14.17,10.7,10.7,0,0,1,1.16-.84C42.63,30.07,43,29.93,43.53,29.62Z"/><path class="cls-2" d="M41.67,39.2c.18-4,2-7.4,4.37-10.54.73-1,2.37-1.07,3.78-.43a2.9,2.9,0,0,1,1.4,3.17,22.71,22.71,0,0,1-5.74,11.12c-1.43,1.55-2.77,1.16-3.49-.84A7.69,7.69,0,0,1,41.67,39.2Z"/><path class="cls-2" d="M30.77,51.14c-2.14-1-3-2.91-2.44-5.49.92-4,3.55-6.94,6.59-9.6C32.69,40.84,30,45.48,30.77,51.14Z"/></g></g></svg>