<svg width="21" height="24" viewBox="0 0 21 24" fill="none" xmlns="http://www.w3.org/2000/svg">
<path d="M20.4493 17.6136L17.5125 14.2643C16.4637 13.0681 14.6806 13.5466 14.2611 15.1016C13.9465 16.1782 12.8976 16.7763 11.9536 16.537C9.85594 15.9389 7.02405 12.8289 6.49962 10.3169C6.18497 9.24034 6.81428 8.04418 7.75824 7.68537C9.12175 7.20691 9.54129 5.17342 8.49244 3.97726L5.55566 0.627988C4.71658 -0.209329 3.45796 -0.209329 2.72376 0.627988L0.730951 2.90071C-1.26186 5.29304 0.940721 11.6327 5.87031 17.2547C10.7999 22.8767 16.3588 25.5083 18.4565 23.1159L20.4493 20.8432C21.1836 19.8863 21.1836 18.4509 20.4493 17.6136Z" fill="#FBFBFB"/>
</svg>
