<svg id="Шар_1" data-name="Шар 1" xmlns="http://www.w3.org/2000/svg" viewBox="0 0 28 28"><defs><style>.cls-1{fill:#fff;}</style></defs><title>icons</title><path class="cls-1" d="M27.88,17.31l-1.21-3a3.08,3.08,0,0,0-2.85-1.91h-.36A5.43,5.43,0,0,0,22,8.87a.53.53,0,0,0-.75,0,.54.54,0,0,0,0,.75,4.65,4.65,0,0,1,1.22,2.82h-1a4.25,4.25,0,0,0-8.43,0H12a5.22,5.22,0,0,1,7.87-4,.55.55,0,0,0,.4.06.59.59,0,0,0,.33-.25.51.51,0,0,0,0-.4.53.53,0,0,0-.24-.33,6.36,6.36,0,0,0-3.22-.88A6.29,6.29,0,0,0,13.39,8c-.24-2.26-.51-4.33-.58-4.66a1.84,1.84,0,0,0-2.17-1.48,1.85,1.85,0,0,0-1.19.77A1.87,1.87,0,0,0,9.16,4c.06.33.51,2.17,1.07,4.21l-.58,0C8.54,6.34,7.46,4.6,7.25,4.31A1.89,1.89,0,0,0,6,3.55a1.73,1.73,0,0,0-1.36.32,1.94,1.94,0,0,0-.45,2.59c.2.28,1.31,1.68,2.54,3.16a4.82,4.82,0,0,0-1.32,2.8H5A4,4,0,0,0,1,15.07L.12,17.31a1.52,1.52,0,0,0,.15,1.46,1.53,1.53,0,0,0,1.29.69H3.4l1.07,6A3.4,3.4,0,0,0,7.76,28H20.24a3.42,3.42,0,0,0,3.3-2.55l.87-6.05a2.76,2.76,0,0,0,.57.06h1.46a1.56,1.56,0,0,0,1.44-2.15ZM7.58,9C6.34,7.46,5.25,6.08,5.08,5.84a.83.83,0,0,1,.2-1.11.68.68,0,0,1,.53-.14.91.91,0,0,1,.57.34c.16.22,1.13,1.77,2.18,3.53A4.73,4.73,0,0,0,7.58,9Zm3.79-.62c-.62-2.26-1.11-4.28-1.17-4.55a.8.8,0,1,1,1.57-.29c.05.27.49,4.22.6,5.23A4.51,4.51,0,0,0,11.37,8.33ZM6.5,12.42a3.71,3.71,0,0,1,3.67-3.18,3.78,3.78,0,0,1,1.68.4,6.73,6.73,0,0,0-.51,1c-.09.24-.14.42-.2.61l-.06.21a7.67,7.67,0,0,0-.15,1ZM2.66,15.76l.52,2.64H1.56a.48.48,0,0,1-.41-.22.49.49,0,0,1,0-.47L2,15.47a3,3,0,0,1,.57-.92A2.73,2.73,0,0,0,2.66,15.76Zm11.4-3.34a3.18,3.18,0,0,1,6.27,0Zm1.58,5.14A2.15,2.15,0,0,1,14,18.4H8.29a2.15,2.15,0,0,1-1.69-.84L3.71,13.74A3.24,3.24,0,0,1,5,13.48H18.71Zm-9.89.64a3.21,3.21,0,0,0,2.54,1.26H14a3.19,3.19,0,0,0,2.54-1.26l2.09-2.78-2.29,8.79a.53.53,0,0,0,.38.65.52.52,0,0,0,.65-.38L20,14.21l2.84,4.12a2.44,2.44,0,0,0,.59.61L22.5,25.2a2.34,2.34,0,0,1-2.26,1.74H7.76A2.33,2.33,0,0,1,5.5,25.2L3.69,15.5v-.05Zm20.69.2H25a1.54,1.54,0,0,1-1.27-.67l-2.93-4.25h3a2,2,0,0,1,1.86,1.25l1.22,3a.49.49,0,0,1,0,.47A.48.48,0,0,1,26.44,18.4Z"/></svg>